<svg width="60" height="60" viewBox="0 0 60 60" fill="none" xmlns="http://www.w3.org/2000/svg">
<g id="Group 374">
<circle id="Ellipse 29" cx="30" cy="30" r="30" fill="white"/>
<g id="Group 352">
<circle id="Ellipse 30" cx="30" cy="30" r="15" fill="#ABF19A"/>
<g id="Group 351">
<g id="Group 350">
<path id="Vector" d="M13.3362 29.0071C13.4216 28.3759 13.484 27.741 13.5961 27.1142C14.3261 23.0455 16.3066 19.6993 19.4902 17.0764C22.0514 14.9667 25.004 13.7213 28.3034 13.4168C33.336 12.952 37.7493 14.4297 41.4416 17.9051C42.6008 18.9968 43.662 20.1924 44.767 21.3412C44.8479 21.4251 44.9214 21.5157 45.0618 21.6746C45.0618 19.899 45.0618 18.2259 45.0618 16.5269C45.5972 16.5269 46.1014 16.5269 46.6309 16.5269C46.6309 19.1431 46.6309 21.7704 46.6309 24.4156C44.0028 24.4156 41.3837 24.4156 38.7422 24.4156C38.7422 23.8995 38.7422 23.3952 38.7422 22.8479C40.4628 22.8479 42.1901 22.8479 43.9182 22.8479C43.9144 22.7855 43.9219 22.7581 43.9107 22.7469C42.5889 21.3857 41.3294 19.9562 39.9296 18.6819C37.3275 16.3123 34.2093 15.0922 30.6946 14.9347C23.5529 14.6147 17.2297 19.2819 15.4088 26.1978C15.1177 27.3028 14.9588 28.4271 14.9343 29.57C14.9313 29.6985 14.9194 29.8269 14.9098 29.9836C14.3743 29.9836 13.8553 29.9836 13.3362 29.9836C13.3362 29.6584 13.3362 29.3324 13.3362 29.0071Z" fill="#184E6F"/>
<path id="Vector_2" d="M13.3362 35.5146C13.7588 35.5206 14.1813 35.5309 14.6031 35.5309C16.6846 35.5324 18.7669 35.5317 20.8484 35.5317C20.9761 35.5317 21.1039 35.5317 21.2509 35.5317C21.2509 36.0693 21.2509 36.5736 21.2509 37.1209C19.5258 37.1209 17.7993 37.1209 16.0698 37.1209C16.0764 37.1832 16.0705 37.2107 16.0816 37.2219C17.4035 38.5823 18.6629 40.0111 20.0627 41.2854C22.6745 43.661 25.8023 44.8826 29.329 45.0326C36.4714 45.3371 42.7783 40.6609 44.5895 33.7405C44.8843 32.614 45.0373 31.4674 45.0611 30.303C45.0633 30.2065 45.0752 30.1099 45.0833 29.9985C45.5995 29.9985 46.1052 29.9985 46.6666 29.9985C46.6347 30.5644 46.628 31.1243 46.5678 31.6791C46.2455 34.6614 45.2304 37.3867 43.437 39.7957C40.7785 43.3677 37.2563 45.5836 32.8638 46.3826C32.2378 46.4963 31.6013 46.5572 30.9701 46.6426C30.2973 46.6426 29.6253 46.6426 28.9525 46.6426C28.6435 46.6017 28.3354 46.5572 28.0264 46.5208C24.6364 46.1183 21.623 44.8284 19.0907 42.5434C17.7258 41.3114 16.4975 39.9279 15.2113 38.6083C15.1326 38.5281 15.0947 38.4078 15.0375 38.3068C14.9915 38.3387 14.9462 38.3707 14.9001 38.4026C14.9001 40.0839 14.9001 41.7659 14.9001 43.4538C14.3499 43.4538 13.8412 43.4538 13.3333 43.4538C13.3362 40.8072 13.3362 38.1605 13.3362 35.5146Z" fill="#184E6F"/>
<path id="&#226;&#130;&#185;" d="M30.1853 37.4131L26.3958 30.7965V29.9143H26.8369C27.5453 29.9143 28.1401 29.8475 28.6213 29.7138C29.1159 29.5801 29.5036 29.3596 29.7843 29.0521C30.065 28.7447 30.2321 28.3236 30.2855 27.789H26.3958V26.5057H30.2655C30.1719 26.0112 29.9848 25.6101 29.7041 25.3027C29.4234 24.9819 29.0424 24.748 28.5612 24.6009C28.0933 24.4539 27.5186 24.3804 26.8369 24.3804H26.3958V23.0972H34.6966V24.3804H30.9071C31.2145 24.6344 31.4685 24.9351 31.669 25.2827C31.8695 25.6302 31.9965 26.0379 32.05 26.5057H34.6966V27.789H32.0901C31.9965 28.7647 31.6222 29.5266 30.9672 30.0747C30.3256 30.6094 29.4701 30.9502 28.4008 31.0973L32.2304 37.4131H30.1853Z" fill="#184E6F"/>
</g>
</g>
</g>
</g>
</svg>
