<svg width="20" height="21" viewBox="0 0 20 21" fill="none" xmlns="http://www.w3.org/2000/svg">
<g id="Buy">
<g id="Iconly/Light/Buy">
<g id="Buy_2">
<path id="Stroke-1" d="M2.29175 2.78516L4.02508 3.09373L4.82758 12.9277C4.89175 13.7309 5.54425 14.3472 6.32758 14.3446H15.4184C16.1659 14.3463 16.8001 13.7806 16.9059 13.0194L17.6967 7.3983C17.7851 6.77001 17.3609 6.18716 16.7509 6.0963C16.6976 6.08858 4.30341 6.0843 4.30341 6.0843" stroke="white" stroke-width="1.5" stroke-linecap="round" stroke-linejoin="round"/>
<path id="Stroke-3 (Stroke)" fill-rule="evenodd" clip-rule="evenodd" d="M11.146 9.25223C11.146 8.89719 11.4258 8.60938 11.771 8.60938H14.0818C14.427 8.60938 14.7068 8.89719 14.7068 9.25223C14.7068 9.60727 14.427 9.89509 14.0818 9.89509H11.771C11.4258 9.89509 11.146 9.60727 11.146 9.25223Z" fill="white"/>
<path id="Union" fill-rule="evenodd" clip-rule="evenodd" d="M5.962 16.6729C5.36524 16.6729 4.88367 17.1706 4.88367 17.782C4.88367 18.3935 5.36449 18.892 5.962 18.892C6.55951 18.892 7.04033 18.3935 7.04033 17.782C7.04033 17.1706 6.55876 16.6729 5.962 16.6729ZM15.3622 16.6729C14.7655 16.6729 14.2839 17.1706 14.2839 17.782C14.2839 18.3935 14.7647 18.892 15.3622 18.892C15.9582 18.892 16.4414 18.395 16.4414 17.782C16.4414 17.169 15.9575 16.6729 15.3622 16.6729Z" fill="white"/>
</g>
</g>
</g>
</svg>
