<svg width="24" height="25" viewBox="0 0 24 25" fill="none" xmlns="http://www.w3.org/2000/svg">
<g id="Buy">
<g id="Iconly/Light/Buy">
<g id="Buy_2">
<path id="Stroke-1" d="M2.75 3.34131L4.83 3.70131L5.793 15.1743C5.87 16.1113 6.653 16.8303 7.593 16.8273H18.502C19.399 16.8293 20.16 16.1693 20.287 15.2813L21.236 8.72331C21.342 7.99031 20.833 7.31031 20.101 7.20431C20.037 7.19531 5.164 7.19031 5.164 7.19031" stroke="white" stroke-width="1.5" stroke-linecap="round" stroke-linejoin="round"/>
<path id="Stroke-3" d="M14.125 10.8862H16.898" stroke="white" stroke-width="1.5" stroke-linecap="round" stroke-linejoin="round"/>
<path id="Stroke-5" fill-rule="evenodd" clip-rule="evenodd" d="M7.15435 20.2939C7.45535 20.2939 7.69835 20.5379 7.69835 20.8379C7.69835 21.1389 7.45535 21.3829 7.15435 21.3829C6.85335 21.3829 6.61035 21.1389 6.61035 20.8379C6.61035 20.5379 6.85335 20.2939 7.15435 20.2939Z" fill="white" stroke="white" stroke-width="1.5" stroke-linecap="round" stroke-linejoin="round"/>
<path id="Stroke-7" fill-rule="evenodd" clip-rule="evenodd" d="M18.4346 20.2939C18.7356 20.2939 18.9796 20.5379 18.9796 20.8379C18.9796 21.1389 18.7356 21.3829 18.4346 21.3829C18.1336 21.3829 17.8906 21.1389 17.8906 20.8379C17.8906 20.5379 18.1336 20.2939 18.4346 20.2939Z" fill="white" stroke="white" stroke-width="1.5" stroke-linecap="round" stroke-linejoin="round"/>
</g>
</g>
</g>
</svg>
