<svg width="24" height="24" viewBox="0 0 24 24" fill="none" xmlns="http://www.w3.org/2000/svg">
<path d="M19.3238 9.46875C19.3238 9.46875 18.7808 16.2037 18.4658 19.0407C18.3158 20.3957 17.4788 21.1897 16.1078 21.2147C13.4988 21.2617 10.8868 21.2647 8.27881 21.2097C6.95981 21.1827 6.13681 20.3787 5.98981 19.0477C5.67281 16.1857 5.13281 9.46875 5.13281 9.46875" stroke="white" stroke-width="1.5" stroke-linecap="round" stroke-linejoin="round"/>
<path d="M20.708 6.24023H3.75" stroke="white" stroke-width="1.5" stroke-linecap="round" stroke-linejoin="round"/>
<path d="M17.4386 6.23998C16.6536 6.23998 15.9776 5.68498 15.8236 4.91598L15.5806 3.69998C15.4306 3.13898 14.9226 2.75098 14.3436 2.75098H10.1106C9.53162 2.75098 9.02362 3.13898 8.87362 3.69998L8.63062 4.91598C8.47662 5.68498 7.80063 6.23998 7.01562 6.23998" stroke="white" stroke-width="1.5" stroke-linecap="round" stroke-linejoin="round"/>
</svg>
