<svg width="60" height="60" viewBox="0 0 60 60" fill="none" xmlns="http://www.w3.org/2000/svg">
<g id="Group 349">
<circle id="Ellipse 28" cx="30" cy="30" r="30" fill="white"/>
<g id="Group 348">
<g id="Group 347">
<path id="Vector 5" d="M13.8948 31.7092V40.5075L14.6239 42.1116L18.5127 42.5491L19.5821 40.5075L22.3042 40.07L23.5195 40.5075L24.9291 42.5491H38.394L39.512 41.9658V41.1881L41.8938 40.07L43.6438 40.5075L44.7618 41.1881L45.4423 42.5491L48.1645 41.9658V41.5283V40.07L47.6784 35.6952V34.7716L46.2687 33.9939L38.394 33.7022L37.762 24.0289L14.3809 23.8345L13.8948 31.7092Z" fill="#ABF19A"/>
<path id="Vector" d="M48.6265 42.5448C48.4389 42.8375 48.1725 42.9366 47.8264 42.923C47.283 42.9016 46.7385 42.9172 46.1581 42.9172C46.0901 44.1869 45.6098 45.231 44.5735 45.9728C43.8783 46.4706 43.0977 46.6912 42.2441 46.6407C40.3007 46.5269 39.0952 45.2699 38.7141 42.9425C34.3596 42.9425 30.0013 42.9425 25.6138 42.9425C25.5613 44.147 25.1054 45.1542 24.139 45.8979C23.4604 46.42 22.6875 46.6699 21.8349 46.6485C19.8371 46.5969 18.6218 45.3652 18.1688 42.9182C17.5125 42.9182 16.8476 42.9182 16.1836 42.9182C15.8559 42.9182 15.5283 42.9191 15.2017 42.9182C14.3296 42.9143 13.8571 42.4418 13.8523 41.5668C13.8503 41.2052 13.8523 40.8435 13.8523 40.4352C13.2252 40.4352 12.6224 40.441 12.0206 40.4333C11.6221 40.4284 11.3693 40.1922 11.3712 39.8499C11.3732 39.5311 11.6075 39.2773 11.9526 39.2763C13.8202 39.2686 15.6877 39.2686 17.5553 39.2763C17.8985 39.2773 18.1338 39.5379 18.1318 39.8558C18.1299 40.1844 17.8839 40.4284 17.5125 40.4323C16.7008 40.441 15.888 40.4352 15.0471 40.4352C15.0471 40.8688 15.0471 41.2839 15.0471 41.7263C15.1132 41.736 15.1812 41.7545 15.2493 41.7545C16.2195 41.7564 17.1898 41.7515 18.16 41.7593C18.3418 41.7603 18.4303 41.7068 18.511 41.5328C19.1789 40.0881 20.3115 39.2851 21.9078 39.2851C23.5042 39.2851 24.628 40.094 25.3183 41.527C25.3669 41.6281 25.5176 41.7467 25.6206 41.7467C29.5502 41.7545 33.4788 41.7506 37.4084 41.7467C37.4201 41.7467 37.4317 41.7409 37.4998 41.7234C37.4998 41.6115 37.4998 41.4842 37.4998 41.3568C37.4998 40.0833 37.4911 38.8097 37.5086 37.5371C37.5115 37.3359 37.5766 37.0753 37.7127 36.9548C37.8449 36.8381 38.1191 36.8041 38.3057 36.8459C38.5634 36.9032 38.6664 37.1414 38.6655 37.4127C38.6625 38.2371 38.6655 39.0625 38.6655 39.8869C38.6655 40.4926 38.6655 41.0982 38.6655 41.7029C38.9289 41.842 38.9824 41.6631 39.0611 41.4929C39.6104 40.3137 40.5136 39.57 41.8008 39.3376C43.472 39.0352 45.0984 39.8917 45.7945 41.4443C45.9102 41.702 46.0434 41.7797 46.3098 41.7632C46.6812 41.7399 47.0545 41.7574 47.4424 41.7574C47.4424 40.8892 47.4424 40.059 47.4424 39.1947C47.2207 39.1947 47.0175 39.1976 46.8144 39.1937C45.7761 39.1743 45.0012 38.4092 44.9798 37.3757C44.9711 36.9761 44.9711 36.5756 44.9798 36.1751C44.9886 35.758 45.1908 35.5538 45.6108 35.547C46.1678 35.5383 46.7249 35.5451 47.3335 35.5451C47.2995 35.4274 47.2888 35.3361 47.248 35.2593C46.9369 34.675 46.4585 34.2978 45.7936 34.2443C45.2151 34.1976 44.6308 34.2122 44.0485 34.2112C42.4113 34.2073 40.7741 34.2103 39.137 34.2103C38.9941 34.2103 38.8511 34.2103 38.6625 34.2103C38.6625 34.464 38.6723 34.6779 38.6606 34.8918C38.6412 35.2165 38.4088 35.4449 38.1064 35.4547C37.807 35.4644 37.5542 35.2476 37.5105 34.9287C37.494 34.8091 37.5017 34.6866 37.5017 34.5651C37.5017 31.2908 37.5017 28.0164 37.5017 24.7411C37.5017 24.5982 37.5017 24.4543 37.5017 24.2871C30.0071 24.2871 22.5427 24.2871 15.0199 24.2871C15.0199 24.4281 15.0199 24.5681 15.0199 24.7071C15.0199 27.9698 15.0199 31.2324 15.0199 34.4941C15.0199 34.6157 15.0237 34.7372 15.0169 34.8577C14.9975 35.2087 14.7719 35.4459 14.456 35.4537C14.1429 35.4615 13.895 35.2301 13.8581 34.8879C13.8474 34.7916 13.8532 34.6944 13.8532 34.5972C13.8532 31.2499 13.8532 27.9027 13.8532 24.5554C13.8532 23.5327 14.2888 23.0991 15.3144 23.0991C17.8849 23.0991 20.4563 23.0991 23.056 23.0379C22.9617 22.9931 22.8693 22.9426 22.7721 22.9037C21.3673 22.3418 19.9615 21.7808 18.5567 21.2189C18.4779 21.1878 18.3982 21.1586 18.3214 21.1236C17.9617 20.9593 17.8198 20.6482 17.9578 20.3313C18.0881 20.0309 18.3992 19.9094 18.7511 20.0464C19.5405 20.3536 20.3261 20.6735 21.1126 20.9875C21.5588 21.1654 22.005 21.3394 22.4756 21.4678C22.0527 21.1713 21.621 20.8864 21.2098 20.5753C20.8433 20.2982 20.4758 20.0143 20.1472 19.6945C19.3121 18.8808 19.0651 17.8911 19.456 16.7974C19.8264 15.763 20.5973 15.1505 21.6978 15.0338C22.8761 14.9094 23.8473 15.3663 24.3607 16.4182C25.0062 17.7414 25.501 19.1374 26.0581 20.5034C26.1262 20.6706 26.1777 20.8446 26.2632 21.0935C26.3848 20.7454 26.4713 20.4606 26.5831 20.1855C27.0906 18.943 27.5193 17.6587 28.1376 16.4727C29.1244 14.5779 31.7269 14.5088 32.8333 16.2811C33.5022 17.3525 33.3797 18.7418 32.4473 19.6177C31.8232 20.203 31.1018 20.6842 30.4213 21.2101C30.3027 21.3015 30.1744 21.3812 30.081 21.5203C31.0785 21.1226 32.075 20.724 33.0725 20.3264C33.297 20.237 33.5206 20.1427 33.7472 20.0571C34.1244 19.9162 34.4462 20.027 34.5764 20.3342C34.7135 20.6589 34.5609 20.9826 34.171 21.1401C32.948 21.635 31.7211 22.1211 30.4961 22.6111C30.153 22.7481 29.8117 22.8901 29.4841 23.0991C29.6105 23.0991 29.7359 23.0991 29.8623 23.0991C32.3365 23.0991 34.8107 23.0981 37.285 23.0991C38.2183 23.0991 38.6645 23.5473 38.6674 24.4796C38.6684 24.8296 38.6674 25.1806 38.6674 25.586C38.82 25.586 38.9474 25.586 39.0748 25.586C40.3726 25.586 41.6705 25.5831 42.9674 25.5869C44.4685 25.5908 45.5 26.6175 45.5087 28.1224C45.5106 28.5482 45.6293 29.0275 45.0605 29.2404C45.3668 30.4673 45.6643 31.6767 45.9763 32.8823C45.9997 32.9736 46.1095 33.0854 46.1999 33.1088C47.4968 33.4529 48.2892 34.2744 48.5828 35.5811C48.5876 35.6015 48.6129 35.6161 48.6285 35.6336C48.6265 37.9357 48.6265 40.2398 48.6265 42.5448ZM38.6859 29.2297C38.6859 30.5159 38.6859 31.7574 38.6859 33.0174C40.7236 33.0174 42.7389 33.0174 44.798 33.0174C44.4889 31.7769 44.1904 30.5694 43.8803 29.3658C43.8647 29.3065 43.7403 29.2356 43.6664 29.2356C42.0185 29.2278 40.3717 29.2297 38.6859 29.2297ZM42.3928 45.4838C43.7753 45.5168 44.9293 44.4144 44.973 43.0193C45.0158 41.6514 43.8842 40.4644 42.5095 40.4352C41.1018 40.406 39.9439 41.5124 39.9108 42.9201C39.8787 44.2928 40.9997 45.4507 42.3928 45.4838ZM21.9282 45.4848C23.3185 45.4731 24.4462 44.3317 24.4345 42.9483C24.4238 41.5445 23.2718 40.4167 21.866 40.4342C20.4865 40.4517 19.3626 41.6057 19.3762 42.9911C19.3918 44.3745 20.5399 45.4964 21.9282 45.4848ZM27.2646 21.6826C27.2947 21.704 27.3249 21.7244 27.355 21.7458C27.7215 21.5242 28.1016 21.3219 28.4526 21.077C29.5035 20.3429 30.5661 19.6226 31.5782 18.837C32.0886 18.4413 32.1984 17.8337 31.9875 17.2144C31.7872 16.6263 31.3624 16.2704 30.7402 16.1888C30.0732 16.1023 29.5463 16.3579 29.1983 16.9276C28.9912 17.2669 28.8065 17.6266 28.6616 17.9971C28.1843 19.221 27.7293 20.4538 27.2646 21.6826ZM25.1442 21.7526C25.1676 21.7322 25.1909 21.7128 25.2142 21.6923C25.1345 21.4435 25.0674 21.1888 24.9712 20.9467C24.4647 19.6644 23.9757 18.3752 23.4293 17.1104C23.1454 16.4542 22.5903 16.1159 21.8485 16.1849C21.1933 16.2461 20.7412 16.602 20.5351 17.2242C20.3076 17.9096 20.5127 18.4968 21.0542 18.9527C21.4985 19.327 21.9545 19.6926 22.4357 20.0153C23.3262 20.6122 24.2401 21.1751 25.1442 21.7526ZM38.6839 28.0476C40.5797 28.0476 42.4512 28.0476 44.3217 28.0476C44.3382 27.299 43.8093 26.7555 43.05 26.7497C41.7794 26.7409 40.5087 26.7468 39.2371 26.7468C39.0592 26.7468 38.8813 26.7468 38.6839 26.7468C38.6839 27.193 38.6839 27.5994 38.6839 28.0476ZM46.1737 36.7039C46.0065 37.8842 46.4274 38.1574 47.4366 37.9794C47.4366 37.5633 47.4366 37.1473 47.4366 36.7039C47.1245 36.7039 46.8357 36.7039 46.547 36.7039C46.4284 36.7039 46.3098 36.7039 46.1737 36.7039Z" fill="#184E6F"/>
<path id="Vector_2" d="M31.2418 39.2695C32.6602 39.2695 34.0796 39.2715 35.498 39.2676C35.7771 39.2666 36.0327 39.3395 36.1095 39.6176C36.1582 39.7926 36.1426 40.0492 36.0415 40.1834C35.9384 40.3205 35.6973 40.4216 35.5155 40.4225C32.6661 40.4371 29.8156 40.4342 26.9661 40.4313C26.5714 40.4313 26.3079 40.1931 26.3021 39.8587C26.2963 39.5106 26.5656 39.2715 26.9855 39.2705C28.404 39.2686 29.8224 39.2695 31.2418 39.2695Z" fill="#184E6F"/>
<path id="Vector_3" d="M16.9359 36.7829C18.1229 36.7829 19.3109 36.7809 20.498 36.7838C20.9812 36.7848 21.2573 37.0094 21.2446 37.3788C21.232 37.7317 20.9559 37.9495 20.5009 37.9495C18.1142 37.9514 15.7265 37.9514 13.3398 37.9495C12.8896 37.9495 12.6126 37.7181 12.6126 37.3633C12.6116 37.0035 12.877 36.7858 13.3378 36.7848C14.5365 36.7809 15.7362 36.7829 16.9359 36.7829Z" fill="#184E6F"/>
<path id="Vector_4" d="M38.6855 29.2302C40.3713 29.2302 42.0192 29.2283 43.667 29.236C43.7409 29.236 43.8654 29.307 43.8809 29.3663C44.192 30.5699 44.4895 31.7773 44.7987 33.0178C42.7396 33.0178 40.7233 33.0178 38.6865 33.0178C38.6855 31.7579 38.6855 30.5164 38.6855 29.2302Z" fill="#ABF19A"/>
<path id="Vector_5" d="M42.3929 45.4838C40.9997 45.4507 39.8788 44.2928 39.9118 42.9201C39.9449 41.5124 41.1028 40.405 42.5105 40.4352C43.8852 40.4643 45.0168 41.6514 44.974 43.0193C44.9293 44.4153 43.7753 45.5168 42.3929 45.4838ZM42.457 44.1577C43.123 44.1509 43.6577 43.6074 43.647 42.9454C43.6373 42.2862 43.0812 41.7437 42.4259 41.7535C41.7678 41.7632 41.2292 42.3173 41.2389 42.9755C41.2486 43.6444 41.7843 44.1645 42.457 44.1577Z" fill="#ABF19A"/>
<path id="Vector_6" d="M21.9281 45.4843C20.5398 45.496 19.3917 44.3741 19.3771 42.9916C19.3625 41.6063 20.4864 40.4513 21.8669 40.4348C23.2727 40.4173 24.4247 41.544 24.4354 42.9489C24.4461 44.3313 23.3184 45.4727 21.9281 45.4843ZM23.1035 42.9576C23.1025 42.2887 22.5668 41.7511 21.9038 41.7531C21.2505 41.755 20.6964 42.3111 20.6983 42.9625C20.7002 43.6245 21.2398 44.1573 21.9087 44.1563C22.5824 44.1573 23.1045 43.6323 23.1035 42.9576Z" fill="#ABF19A"/>
<path id="Vector_7" d="M38.684 28.0473C38.684 27.5991 38.684 27.1928 38.684 26.7465C38.8813 26.7465 39.0592 26.7465 39.2371 26.7465C40.5078 26.7465 41.7784 26.7407 43.0501 26.7495C43.8093 26.7553 44.3382 27.2987 44.3217 28.0473C42.4512 28.0473 40.5797 28.0473 38.684 28.0473Z" fill="#ABF19A"/>
<path id="Vector_8" d="M46.1735 36.7041C46.3097 36.7041 46.4283 36.7041 46.5469 36.7041C46.8356 36.7041 47.1243 36.7041 47.4364 36.7041C47.4364 37.1474 47.4364 37.5645 47.4364 37.9796C46.4283 38.1575 46.0063 37.8843 46.1735 36.7041Z" fill="#ABF19A"/>
<path id="Vector_9" d="M42.4568 44.1578C41.784 44.1646 41.2484 43.6445 41.2386 42.9766C41.2299 42.3184 41.7675 41.7642 42.4257 41.7545C43.0809 41.7448 43.6361 42.2873 43.6467 42.9464C43.6574 43.6075 43.1237 44.1519 42.4568 44.1578Z" fill="#184E6F"/>
<path id="Vector_10" d="M23.1033 42.958C23.1043 43.6327 22.5822 44.1567 21.9085 44.1577C21.2396 44.1586 20.7001 43.6259 20.6981 42.9638C20.6962 42.3115 21.2503 41.7563 21.9036 41.7544C22.5667 41.7525 23.1014 42.2891 23.1033 42.958Z" fill="#184E6F"/>
</g>
</g>
</g>
</svg>
