<svg width="101" height="25" viewBox="0 0 101 25" fill="none" xmlns="http://www.w3.org/2000/svg">
<path d="M21.6941 24.5192C22.4158 24.5192 23.0008 23.9319 23.0008 23.2074C23.0008 22.4828 22.4158 21.8955 21.6941 21.8955C20.9724 21.8955 20.3873 22.4828 20.3873 23.2074C20.3873 23.9319 20.9724 24.5192 21.6941 24.5192Z" fill="white"/>
<path d="M30.0853 24.5187C30.807 24.5187 31.392 23.9314 31.392 23.2069C31.392 22.4824 30.807 21.895 30.0853 21.895C29.3636 21.895 28.7786 22.4824 28.7786 23.2069C28.7786 23.9314 29.3636 24.5187 30.0853 24.5187Z" fill="white"/>
<path d="M16.1762 1.13179C16.6076 1.87795 17.0376 2.62484 17.4683 3.37174C17.502 3.48517 17.5967 3.43435 17.6627 3.43435C21.1023 3.4373 24.542 3.43582 27.9823 3.43803C28.2993 3.43803 28.6148 3.41888 28.934 3.42698C30.0184 3.45276 31.1035 3.43509 32.1887 3.43435C32.188 3.42625 32.1872 3.41814 32.1865 3.41004C32.1946 3.40415 32.2019 3.39531 32.2056 3.38131C32.207 2.32505 32.2063 1.26806 32.2063 0.211805C32.2063 -0.0283203 32.2261 0.00114406 31.9921 0.00114406C26.5868 0.000407482 21.1808 0.00114406 15.7756 0.00114406C15.7316 0.00114406 15.6876 -0.00032838 15.6435 0.00188136C15.5621 0.00482769 15.5548 0.0504934 15.5812 0.114576C15.7793 0.453403 15.9796 0.791494 16.1762 1.13179Z" fill="#0A9494"/>
<path d="M30.4153 8.47656C28.7791 8.48098 27.1422 8.47951 25.506 8.47951C25.2309 8.47951 24.955 8.47951 24.6799 8.47951C23.3137 8.47951 21.9468 8.47951 20.5807 8.47877C20.4838 8.47877 20.3914 8.46551 20.4779 8.61578C21.0722 9.64404 21.6621 10.6753 22.252 11.7057C22.3181 11.8214 22.3929 11.8818 22.5455 11.881C25.1685 11.8744 27.7908 11.8744 30.4138 11.8803C30.5774 11.8803 30.6039 11.8214 30.6031 11.6777C30.598 10.6708 30.5973 9.66393 30.6039 8.65776C30.6053 8.50602 30.5562 8.47656 30.4153 8.47656Z" fill="#0A9494"/>
<path d="M32.1882 16.9554C32.1441 16.9525 32.1008 16.9459 32.0568 16.9459C29.8183 16.9451 27.5805 16.9459 25.3419 16.9459H22.6316C22.2662 16.9459 21.9008 16.9459 21.5354 16.9466C21.4445 16.9466 21.3806 16.9385 21.3241 16.8383C20.8494 15.9986 20.3637 15.1655 19.8809 14.3303C19.4444 13.5745 19.0056 12.8188 18.5698 12.0623C18.018 11.1033 17.4692 10.1435 16.9182 9.18377C16.475 8.41257 16.0304 7.64136 15.5865 6.87016C15.0406 5.92071 14.494 4.97126 13.9489 4.02107C13.5637 3.34931 13.1799 2.67607 12.7955 2.00431C12.4323 1.37011 12.0684 0.737387 11.7045 0.103927C11.6692 0.0427905 11.6502 0.0170078 11.5995 0.106134C11.3149 0.609219 11.0184 1.10568 10.7301 1.60729C10.2158 2.50076 9.70583 3.39645 9.19223 4.28992C8.71459 5.12079 8.23181 5.94944 7.75416 6.78104C7.24057 7.67451 6.73064 8.57094 6.21631 9.46515C5.73793 10.2975 5.25515 11.1269 4.77677 11.9592C4.22502 12.9182 3.6718 13.8765 3.12812 14.84C2.97991 15.1029 2.79282 15.3438 2.68203 15.6274C2.58371 15.7209 2.50887 15.8285 2.48833 15.9669C2.12441 16.5908 1.75829 17.2132 1.3973 17.8393C0.948273 18.6179 0.502911 19.3994 0.0560823 20.1795C0.0318699 20.2214 -0.0172881 20.2612 0.00619061 20.312C0.0326042 20.368 0.0949685 20.3393 0.140458 20.34C0.730361 20.3422 1.32026 20.3415 1.91017 20.3415C6.39166 20.3415 10.8739 20.3415 15.3554 20.34C15.4075 20.34 15.4809 20.3695 15.5073 20.3143C15.5278 20.2715 15.4801 20.2178 15.4537 20.1714C14.8616 19.1409 14.2695 18.1097 13.6789 17.0777C13.6246 16.9834 13.5615 16.9429 13.4448 16.9437C11.9341 16.9488 10.4241 16.9466 8.91342 16.9466C7.93759 16.9466 6.96176 16.9466 5.98592 16.9466C5.90888 16.9466 5.79296 16.9724 5.8766 16.8273C6.34764 16.0104 6.82088 15.195 7.29193 14.3781C7.83781 13.4324 8.38369 12.4873 8.92663 11.5408C9.46371 10.6054 9.99565 9.6677 10.5335 8.73224C10.8842 8.12235 11.243 7.51689 11.5922 6.90552C11.6568 6.79283 11.667 6.82966 11.7147 6.91363C12.0266 7.46312 12.345 8.00892 12.6597 8.55694C13.0728 9.27584 13.4852 9.99622 13.8982 10.7151C14.246 11.3199 14.5975 11.9224 14.9438 12.5278C15.1279 12.849 15.3048 13.1746 15.4853 13.4979C15.5821 13.6696 15.6254 13.8714 15.7699 14.0165C15.7802 14.0238 15.7898 14.0297 15.7993 14.0334C15.844 14.1152 15.8822 14.2006 15.9409 14.2735C15.9387 14.289 15.9358 14.3045 15.9336 14.32C15.9548 14.4039 16.0003 14.4687 16.0788 14.5085C16.0869 14.5608 16.0942 14.6139 16.1361 14.647C16.1375 14.6536 16.139 14.6603 16.1419 14.6669C16.1625 14.7486 16.2182 14.8068 16.274 14.865C16.3077 14.9144 16.3437 14.9623 16.3738 15.0138C16.8478 15.8395 17.3195 16.6667 17.7935 17.4924C18.3137 18.3984 18.8346 19.3037 19.3556 20.2097C19.3695 20.3194 19.4297 20.3724 19.5419 20.3724C19.8406 20.371 20.1399 20.3724 20.4393 20.3724C24.3022 20.3724 28.166 20.3717 32.0289 20.3754C32.1816 20.3754 32.227 20.3327 32.2263 20.1795C32.2204 19.1556 32.2234 18.1325 32.2219 17.1086C32.2226 17.0549 32.2498 16.9937 32.1882 16.9554ZM20.0922 20.3165C20.0952 20.3128 20.0974 20.3098 20.0996 20.3054C20.1018 20.3025 20.1025 20.2988 20.104 20.2958C20.1091 20.3025 20.1142 20.3091 20.1201 20.3165C20.1106 20.3165 20.101 20.3165 20.0922 20.3165ZM20.4268 20.301C20.429 20.2973 20.4305 20.2936 20.4319 20.2907C20.4334 20.2966 20.4349 20.3017 20.4371 20.3062C20.4334 20.3039 20.4305 20.3025 20.4268 20.301Z" fill="white"/>
<path d="M38.724 0.78499C38.9727 0.635467 39.3457 0.493421 39.8431 0.358851C40.3551 0.224282 40.867 0.156997 41.379 0.156997C42.1104 0.156997 42.7541 0.269138 43.3099 0.493422C43.8804 0.702752 44.2461 1.03918 44.407 1.50269C44.6704 2.28021 44.9556 3.18481 45.2628 4.21651C45.57 5.24821 45.8772 6.3173 46.1844 7.42376C46.4916 8.51527 46.7914 9.5993 47.084 10.6759C47.3766 11.7375 47.6325 12.6794 47.852 13.5018C47.6764 13.7111 47.4131 13.8756 47.062 13.9952C46.711 14.1298 46.2941 14.1971 45.8113 14.1971C45.4603 14.1971 45.1604 14.1672 44.9117 14.1074C44.6777 14.0476 44.4802 13.9579 44.3193 13.8382C44.173 13.7186 44.0487 13.5616 43.9463 13.3672C43.8585 13.1729 43.778 12.9486 43.7049 12.6944L43.3099 11.1468H39.3384C39.2214 11.5954 39.1044 12.0589 38.9873 12.5374C38.8703 13.0159 38.7533 13.4794 38.6363 13.928C38.4315 14.0027 38.212 14.0625 37.978 14.1074C37.7586 14.1672 37.488 14.1971 37.1661 14.1971C36.4201 14.1971 35.8642 14.07 35.4985 13.8158C35.1475 13.5467 34.9719 13.1803 34.9719 12.7168C34.9719 12.5075 35.0012 12.2982 35.0597 12.0888C35.1182 11.8795 35.184 11.6328 35.2572 11.3487C35.3596 10.945 35.4985 10.4441 35.6741 9.84601C35.8642 9.24792 36.069 8.60498 36.2885 7.91718C36.5079 7.21443 36.7419 6.49672 36.9906 5.76406C37.2393 5.03141 37.4733 4.34361 37.6928 3.70066C37.9122 3.04277 38.1097 2.45963 38.2852 1.95126C38.4754 1.44289 38.6216 1.05413 38.724 0.78499ZM41.3571 3.67824C41.1523 4.30623 40.9182 5.00898 40.6549 5.78649C40.4063 6.54905 40.1795 7.32657 39.9747 8.11903H42.6956C42.4908 7.31162 42.2787 6.52663 42.0592 5.76406C41.8544 4.98655 41.6643 4.29128 41.4887 3.67824H41.3571Z" fill="white"/>
<path d="M51.6908 14.0401C51.0618 14.0401 50.5645 13.8532 50.1987 13.4794C49.833 13.1056 49.6502 12.5972 49.6502 11.9543V0.358851C49.8111 0.328947 50.0671 0.291567 50.4182 0.24671C50.7692 0.186901 51.1057 0.156997 51.4275 0.156997C51.764 0.156997 52.0565 0.186901 52.3052 0.24671C52.5685 0.291567 52.7879 0.38128 52.9635 0.51585C53.139 0.65042 53.2707 0.837321 53.3584 1.07656C53.4462 1.31579 53.4901 1.62979 53.4901 2.01854V10.8777H58.5148C58.6172 11.0422 58.7123 11.2665 58.8001 11.5506C58.8878 11.8197 58.9317 12.1038 58.9317 12.4028C58.9317 13.0009 58.8074 13.4271 58.5587 13.6812C58.31 13.9205 57.9809 14.0401 57.5713 14.0401H51.6908Z" fill="white"/>
<path d="M65.8807 6.68362C66.4951 6.68362 66.9632 6.54158 67.285 6.25749C67.6214 5.95844 67.7897 5.50988 67.7897 4.91179C67.7897 4.34361 67.6141 3.90999 67.2631 3.61095C66.9266 3.29696 66.4293 3.13996 65.771 3.13996C65.5369 3.13996 65.3395 3.14743 65.1786 3.16239C65.0323 3.16239 64.8787 3.17734 64.7178 3.20724V6.68362H65.8807ZM64.7397 13.8831C64.5788 13.928 64.3228 13.9728 63.9717 14.0177C63.6353 14.0625 63.2988 14.085 62.9624 14.085C62.626 14.085 62.3261 14.055 62.0628 13.9952C61.8141 13.9504 61.602 13.8607 61.4264 13.7261C61.2509 13.5915 61.1193 13.4046 61.0315 13.1654C60.9437 12.9262 60.8998 12.6122 60.8998 12.2234V1.65969C60.8998 1.3457 60.9803 1.10646 61.1412 0.941987C61.3167 0.76256 61.5508 0.620515 61.8433 0.51585C62.3407 0.336423 62.9039 0.20933 63.5329 0.134569C64.1765 0.0448563 64.8202 0 65.4638 0C67.4825 0 69.0257 0.441089 70.0936 1.32327C71.1614 2.20545 71.6954 3.40162 71.6954 4.91179C71.6954 5.64445 71.5784 6.30982 71.3443 6.90791C71.1249 7.49104 70.7884 7.99942 70.335 8.43303C69.8961 8.85169 69.3329 9.18064 68.6454 9.41987C67.9725 9.64416 67.1899 9.7563 66.2976 9.7563H64.7397V13.8831Z" fill="white"/>
<path d="M85.5421 13.8831C85.3812 13.928 85.1252 13.9728 84.7741 14.0177C84.4376 14.0625 84.1012 14.085 83.7648 14.085C83.4283 14.085 83.1284 14.055 82.8651 13.9952C82.6165 13.9504 82.4043 13.8607 82.2288 13.7261C82.0533 13.5915 81.9216 13.4046 81.8338 13.1654C81.7461 12.9262 81.7022 12.6122 81.7022 12.2234V8.7246H77.4893V13.8831C77.3284 13.928 77.0724 13.9728 76.7213 14.0177C76.3849 14.0625 76.0484 14.085 75.712 14.085C75.3755 14.085 75.0757 14.055 74.8124 13.9952C74.5637 13.9504 74.3516 13.8607 74.176 13.7261C74.0005 13.5915 73.8688 13.4046 73.7811 13.1654C73.6933 12.9262 73.6494 12.6122 73.6494 12.2234V0.381281C73.8103 0.351376 74.0663 0.313996 74.4174 0.26914C74.7685 0.209331 75.1049 0.179426 75.4267 0.179426C75.7632 0.179426 76.0557 0.209331 76.3044 0.26914C76.5677 0.313996 76.7872 0.403708 76.9627 0.538278C77.1382 0.672848 77.2699 0.85975 77.3577 1.09899C77.4454 1.33822 77.4893 1.65222 77.4893 2.04097V5.6295H81.7022V0.381281C81.8631 0.351376 82.1191 0.313996 82.4702 0.26914C82.8212 0.209331 83.1577 0.179426 83.4795 0.179426C83.816 0.179426 84.1085 0.209331 84.3572 0.26914C84.6205 0.313996 84.8399 0.403708 85.0155 0.538278C85.191 0.672848 85.3226 0.85975 85.4104 1.09899C85.4982 1.33822 85.5421 1.65222 85.5421 2.04097V13.8831Z" fill="white"/>
<path d="M91.2223 0.78499C91.471 0.635467 91.844 0.493421 92.3414 0.358851C92.8534 0.224282 93.3654 0.156997 93.8773 0.156997C94.6088 0.156997 95.2524 0.269138 95.8083 0.493422C96.3788 0.702752 96.7445 1.03918 96.9054 1.50269C97.1687 2.28021 97.4539 3.18481 97.7611 4.21651C98.0683 5.24821 98.3755 6.3173 98.6827 7.42376C98.9899 8.51527 99.2897 9.5993 99.5823 10.6759C99.8749 11.7375 100.131 12.6794 100.35 13.5018C100.175 13.7111 99.9114 13.8756 99.5604 13.9952C99.2093 14.1298 98.7924 14.1971 98.3097 14.1971C97.9586 14.1971 97.6587 14.1672 97.41 14.1074C97.176 14.0476 96.9785 13.9579 96.8176 13.8382C96.6713 13.7186 96.547 13.5616 96.4446 13.3672C96.3568 13.1729 96.2764 12.9486 96.2032 12.6944L95.8083 11.1468H91.8367C91.7197 11.5954 91.6027 12.0589 91.4856 12.5374C91.3686 13.0159 91.2516 13.4794 91.1346 13.928C90.9298 14.0027 90.7104 14.0625 90.4763 14.1074C90.2569 14.1672 89.9863 14.1971 89.6645 14.1971C88.9184 14.1971 88.3626 14.07 87.9968 13.8158C87.6458 13.5467 87.4702 13.1803 87.4702 12.7168C87.4702 12.5075 87.4995 12.2982 87.558 12.0888C87.6165 11.8795 87.6823 11.6328 87.7555 11.3487C87.8579 10.945 87.9968 10.4441 88.1724 9.84601C88.3626 9.24792 88.5673 8.60498 88.7868 7.91718C89.0062 7.21443 89.2402 6.49672 89.4889 5.76406C89.7376 5.03141 89.9716 4.34361 90.1911 3.70066C90.4105 3.04277 90.608 2.45963 90.7835 1.95126C90.9737 1.44289 91.1199 1.05413 91.2223 0.78499ZM93.8554 3.67824C93.6506 4.30623 93.4166 5.00898 93.1533 5.78649C92.9046 6.54905 92.6778 7.32657 92.473 8.11903H95.1939C94.9891 7.31162 94.777 6.52663 94.5575 5.76406C94.3528 4.98655 94.1626 4.29128 93.9871 3.67824H93.8554Z" fill="white"/>
<path d="M36.4448 21.7871C36.4448 22.1349 36.4997 22.4471 36.6095 22.7239C36.7229 22.9969 36.893 23.2138 37.1199 23.3746C37.3467 23.5317 37.6285 23.6102 37.9651 23.6102C38.3017 23.6102 38.5925 23.5317 38.8377 23.3746C39.0865 23.2175 39.2493 22.9838 39.3261 22.6734H40.4128C40.3469 23.0698 40.1914 23.4064 39.9463 23.6832C39.7048 23.9599 39.4121 24.1693 39.0682 24.3114C38.7243 24.4498 38.3639 24.519 37.987 24.519C37.4492 24.519 36.9754 24.4012 36.5656 24.1656C36.1558 23.9262 35.8357 23.5859 35.6052 23.1446C35.3783 22.7033 35.2649 22.1779 35.2649 21.5683C35.2649 20.9662 35.3692 20.4351 35.5777 19.9751C35.7863 19.5114 36.0881 19.1486 36.4833 18.8868C36.8784 18.625 37.3541 18.4941 37.9102 18.4941C38.459 18.4941 38.92 18.6138 39.2932 18.8532C39.6701 19.0925 39.9554 19.4291 40.1494 19.8629C40.3433 20.293 40.4402 20.8016 40.4402 21.3888V21.7871H36.4448ZM36.4448 21.0073H39.3206C39.3206 20.7044 39.2694 20.4295 39.167 20.1827C39.0645 19.9321 38.9072 19.7358 38.695 19.5937C38.4864 19.4478 38.223 19.3749 37.9047 19.3749C37.5791 19.3749 37.3083 19.4553 37.0924 19.6161C36.8766 19.7769 36.7138 19.9826 36.604 20.2332C36.4979 20.4837 36.4448 20.7418 36.4448 21.0073Z" fill="white"/>
<path d="M44.8002 21.0522V21.9666L41.9574 21.9778V21.0578L44.8002 21.0522Z" fill="white"/>
<path d="M48.8958 18.4941C49.3202 18.4941 49.697 18.5802 50.0263 18.7522C50.3593 18.9205 50.6282 19.1561 50.8331 19.459C51.038 19.7619 51.1624 20.1154 51.2063 20.5193H50.191C50.158 20.3285 50.0867 20.1509 49.9769 19.9863C49.8708 19.8218 49.7263 19.6909 49.5434 19.5937C49.3641 19.4927 49.1501 19.4422 48.9013 19.4422C48.4476 19.4422 48.078 19.6124 47.7926 19.9527C47.5073 20.293 47.3646 20.8147 47.3646 21.5178C47.3646 22.161 47.4963 22.6734 47.7597 23.0549C48.0268 23.4363 48.4146 23.6271 48.9232 23.6271C49.1683 23.6271 49.3806 23.5747 49.5598 23.47C49.7428 23.3653 49.8873 23.2306 49.9934 23.0661C50.0995 22.9015 50.1672 22.7314 50.1965 22.5556H51.1953C51.1551 22.9445 51.0307 23.2867 50.8221 23.5822C50.6172 23.8776 50.3483 24.1076 50.0153 24.2722C49.6861 24.4367 49.3129 24.519 48.8958 24.519C48.3799 24.519 47.9225 24.4049 47.5237 24.1768C47.1249 23.9449 46.8121 23.6065 46.5852 23.1614C46.3621 22.7127 46.2505 22.1685 46.2505 21.529C46.2505 20.9269 46.3547 20.3977 46.5633 19.9415C46.7718 19.4852 47.0737 19.1299 47.4688 18.8756C47.8676 18.6213 48.3433 18.4941 48.8958 18.4941Z" fill="white"/>
<path d="M55.0267 24.519C54.4962 24.519 54.0315 24.4031 53.6327 24.1712C53.2376 23.9356 52.9302 23.5953 52.7107 23.1502C52.4949 22.7052 52.3869 22.1667 52.3869 21.5346C52.3869 20.925 52.4894 20.3921 52.6943 19.9358C52.9028 19.4796 53.2047 19.1262 53.5998 18.8756C53.9949 18.6213 54.4724 18.4941 55.0322 18.4941C55.5664 18.4941 56.0292 18.6138 56.4207 18.8532C56.8122 19.0888 57.1159 19.4347 57.3318 19.891C57.5476 20.3435 57.6556 20.8914 57.6556 21.5346C57.6556 22.1218 57.5531 22.6397 57.3482 23.0885C57.147 23.5373 56.8506 23.8888 56.4591 24.1432C56.0713 24.3937 55.5938 24.519 55.0267 24.519ZM55.0322 23.5934C55.3542 23.5934 55.6231 23.5074 55.839 23.3354C56.0585 23.1596 56.2231 22.9146 56.3329 22.6005C56.4427 22.2826 56.4976 21.9161 56.4976 21.501C56.4976 21.1158 56.4482 20.7661 56.3494 20.4519C56.2542 20.1341 56.0987 19.8816 55.8829 19.6946C55.667 19.5076 55.3835 19.4141 55.0322 19.4141C54.7029 19.4141 54.4285 19.5002 54.209 19.6722C53.9895 19.8405 53.823 20.0817 53.7096 20.3958C53.5998 20.7063 53.5449 21.0746 53.5449 21.501C53.5449 21.8787 53.5943 22.2265 53.6931 22.5444C53.7919 22.8623 53.951 23.1166 54.1706 23.3073C54.3901 23.498 54.6773 23.5934 55.0322 23.5934Z" fill="white"/>
<path d="M59.1368 24.4068V18.6063H60.2784V19.4422C60.4394 19.1879 60.6589 18.9672 60.937 18.7802C61.215 18.5895 61.5736 18.4941 62.0126 18.4941C62.2175 18.4941 62.4243 18.5297 62.6328 18.6007C62.845 18.6718 63.0389 18.7784 63.2145 18.9205C63.3938 19.0589 63.5347 19.2309 63.6371 19.4366C63.8164 19.1598 64.0561 18.9336 64.3561 18.7578C64.6561 18.582 64.9927 18.4941 65.3659 18.4941C65.5671 18.4941 65.7757 18.5278 65.9916 18.5951C66.2074 18.6587 66.4068 18.769 66.5898 18.9261C66.7764 19.0794 66.9264 19.2926 67.0398 19.5656C67.1569 19.8386 67.2154 20.1845 67.2154 20.6034V24.4068H66.0355V20.7324C66.0355 20.4145 65.9824 20.1658 65.8763 19.9863C65.7739 19.8068 65.6385 19.6815 65.4702 19.6105C65.3055 19.5357 65.1299 19.4983 64.9433 19.4983C64.775 19.4983 64.5994 19.5319 64.4165 19.5993C64.2335 19.6666 64.078 19.7788 63.95 19.9358C63.8219 20.0929 63.7579 20.3061 63.7579 20.5754V24.4068H62.5834V20.4744C62.5834 20.2612 62.5267 20.0817 62.4133 19.9358C62.3035 19.79 62.1645 19.6815 61.9962 19.6105C61.8315 19.5357 61.6669 19.4983 61.5022 19.4983C61.3193 19.4983 61.1364 19.5357 60.9534 19.6105C60.7705 19.6853 60.6168 19.8031 60.4924 19.9639C60.3717 20.121 60.3113 20.3248 60.3113 20.5754V24.4068H59.1368Z" fill="white"/>
<path d="M68.9392 24.4068V18.6063H70.0807V19.4422C70.2417 19.1879 70.4613 18.9672 70.7393 18.7802C71.0174 18.5895 71.376 18.4941 71.815 18.4941C72.0199 18.4941 72.2266 18.5297 72.4352 18.6007C72.6474 18.6718 72.8413 18.7784 73.0169 18.9205C73.1962 19.0589 73.3371 19.2309 73.4395 19.4366C73.6188 19.1598 73.8584 18.9336 74.1585 18.7578C74.4585 18.582 74.7951 18.4941 75.1683 18.4941C75.3695 18.4941 75.5781 18.5278 75.7939 18.5951C76.0098 18.6587 76.2092 18.769 76.3921 18.9261C76.5787 19.0794 76.7287 19.2926 76.8422 19.5656C76.9592 19.8386 77.0178 20.1845 77.0178 20.6034V24.4068H75.8378V20.7324C75.8378 20.4145 75.7848 20.1658 75.6787 19.9863C75.5762 19.8068 75.4408 19.6815 75.2725 19.6105C75.1079 19.5357 74.9323 19.4983 74.7457 19.4983C74.5774 19.4983 74.4018 19.5319 74.2188 19.5993C74.0359 19.6666 73.8804 19.7788 73.7523 19.9358C73.6243 20.0929 73.5602 20.3061 73.5602 20.5754V24.4068H72.3858V20.4744C72.3858 20.2612 72.3291 20.0817 72.2156 19.9358C72.1059 19.79 71.9668 19.6815 71.7985 19.6105C71.6339 19.5357 71.4693 19.4983 71.3046 19.4983C71.1217 19.4983 70.9387 19.5357 70.7558 19.6105C70.5729 19.6853 70.4192 19.8031 70.2948 19.9639C70.174 20.121 70.1137 20.3248 70.1137 20.5754V24.4068H68.9392Z" fill="white"/>
<path d="M79.6307 21.7871C79.6307 22.1349 79.6855 22.4471 79.7953 22.7239C79.9087 22.9969 80.0789 23.2138 80.3057 23.3746C80.5325 23.5317 80.8143 23.6102 81.1509 23.6102C81.4875 23.6102 81.7784 23.5317 82.0235 23.3746C82.2723 23.2175 82.4351 22.9838 82.5119 22.6734H83.5986C83.5327 23.0698 83.3772 23.4064 83.1321 23.6832C82.8906 23.9599 82.5979 24.1693 82.254 24.3114C81.9101 24.4498 81.5497 24.519 81.1728 24.519C80.635 24.519 80.1612 24.4012 79.7514 24.1656C79.3416 23.9262 79.0215 23.5859 78.791 23.1446C78.5641 22.7033 78.4507 22.1779 78.4507 21.5683C78.4507 20.9662 78.555 20.4351 78.7635 19.9751C78.9721 19.5114 79.2739 19.1486 79.6691 18.8868C80.0642 18.625 80.5399 18.4941 81.096 18.4941C81.6448 18.4941 82.1058 18.6138 82.479 18.8532C82.8559 19.0925 83.1412 19.4291 83.3352 19.8629C83.5291 20.293 83.626 20.8016 83.626 21.3888V21.7871H79.6307ZM79.6307 21.0073H82.5065C82.5065 20.7044 82.4552 20.4295 82.3528 20.1827C82.2503 19.9321 82.093 19.7358 81.8808 19.5937C81.6723 19.4478 81.4088 19.3749 81.0905 19.3749C80.7649 19.3749 80.4941 19.4553 80.2783 19.6161C80.0624 19.7769 79.8996 19.9826 79.7898 20.2332C79.6837 20.4837 79.6307 20.7418 79.6307 21.0073Z" fill="white"/>
<path d="M85.1567 24.4068V18.6063H86.2818V19.7956C86.3769 19.5114 86.5086 19.2739 86.6769 19.0832C86.8489 18.8887 87.0483 18.7428 87.2751 18.6456C87.502 18.5446 87.7416 18.4941 87.9941 18.4941C88.0709 18.4941 88.1441 18.4998 88.2136 18.511C88.2831 18.5184 88.338 18.5334 88.3783 18.5558V19.7115C88.3307 19.689 88.2685 19.6741 88.1917 19.6666C88.1185 19.6591 88.0545 19.6535 87.9996 19.6497C87.7508 19.631 87.5239 19.6441 87.3191 19.689C87.1142 19.7339 86.9367 19.8087 86.7867 19.9134C86.6404 20.0181 86.5269 20.1546 86.4464 20.3229C86.3696 20.4912 86.3312 20.6894 86.3312 20.9176V24.4068H85.1567Z" fill="white"/>
<path d="M91.8994 18.4941C92.3238 18.4941 92.7006 18.5802 93.0299 18.7522C93.3629 18.9205 93.6318 19.1561 93.8367 19.459C94.0416 19.7619 94.166 20.1154 94.2099 20.5193H93.1946C93.1616 20.3285 93.0903 20.1509 92.9805 19.9863C92.8744 19.8218 92.7299 19.6909 92.547 19.5937C92.3677 19.4927 92.1536 19.4422 91.9048 19.4422C91.4512 19.4422 91.0816 19.6124 90.7962 19.9527C90.5108 20.293 90.3682 20.8147 90.3682 21.5178C90.3682 22.161 90.4999 22.6734 90.7633 23.0549C91.0304 23.4363 91.4182 23.6271 91.9268 23.6271C92.1719 23.6271 92.3841 23.5747 92.5634 23.47C92.7464 23.3653 92.8909 23.2306 92.997 23.0661C93.1031 22.9015 93.1708 22.7314 93.2 22.5556H94.1989C94.1586 22.9445 94.0342 23.2867 93.8257 23.5822C93.6208 23.8776 93.3519 24.1076 93.0189 24.2722C92.6896 24.4367 92.3165 24.519 91.8994 24.519C91.3835 24.519 90.9261 24.4049 90.5273 24.1768C90.1285 23.9449 89.8157 23.6065 89.5888 23.1614C89.3657 22.7127 89.2541 22.1685 89.2541 21.529C89.2541 20.9269 89.3583 20.3977 89.5669 19.9415C89.7754 19.4852 90.0773 19.1299 90.4724 18.8756C90.8712 18.6213 91.3469 18.4941 91.8994 18.4941Z" fill="white"/>
<path d="M96.6144 21.7871C96.6144 22.1349 96.6692 22.4471 96.779 22.7239C96.8924 22.9969 97.0626 23.2138 97.2894 23.3746C97.5162 23.5317 97.798 23.6102 98.1346 23.6102C98.4712 23.6102 98.7621 23.5317 99.0072 23.3746C99.256 23.2175 99.4188 22.9838 99.4956 22.6734H100.582C100.516 23.0698 100.361 23.4064 100.116 23.6832C99.8743 23.9599 99.5816 24.1693 99.2377 24.3114C98.8938 24.4498 98.5334 24.519 98.1565 24.519C97.6187 24.519 97.1449 24.4012 96.7351 24.1656C96.3253 23.9262 96.0052 23.5859 95.7747 23.1446C95.5478 22.7033 95.4344 22.1779 95.4344 21.5683C95.4344 20.9662 95.5387 20.4351 95.7472 19.9751C95.9558 19.5114 96.2576 19.1486 96.6528 18.8868C97.0479 18.625 97.5236 18.4941 98.0797 18.4941C98.6285 18.4941 99.0895 18.6138 99.4627 18.8532C99.8396 19.0925 100.125 19.4291 100.319 19.8629C100.513 20.293 100.61 20.8016 100.61 21.3888V21.7871H96.6144ZM96.6144 21.0073H99.4902C99.4902 20.7044 99.4389 20.4295 99.3365 20.1827C99.234 19.9321 99.0767 19.7358 98.8645 19.5937C98.656 19.4478 98.3925 19.3749 98.0742 19.3749C97.7486 19.3749 97.4778 19.4553 97.262 19.6161C97.0461 19.7769 96.8833 19.9826 96.7735 20.2332C96.6674 20.4837 96.6144 20.7418 96.6144 21.0073Z" fill="white"/>
</svg>
