<svg width="60" height="60" viewBox="0 0 60 60" fill="none" xmlns="http://www.w3.org/2000/svg">
<g id="Group 3186">
<circle id="Ellipse 27" cx="30" cy="30" r="30" fill="white"/>
<g id="Group 346">
<g id="Group 345">
<g id="Group">
<path id="Vector" d="M27.829 55.3042L25.6739 53.2105L22.8663 54.2835L21.175 51.7987L18.2106 52.2852L17.0557 49.5118L14.0527 49.3913L13.4798 46.4428L10.5631 45.7199L10.5949 42.7145L7.88284 41.4187L8.51938 38.4816L6.12329 36.6675L7.33725 33.919L5.35718 31.6593L7.09855 29.211L5.61179 26.5989L7.81237 24.5506L6.88258 21.6931L9.44689 20.1336L9.11044 17.1464L11.9385 16.1325L12.2113 13.1408L15.187 12.718L16.0555 9.84221L19.054 10.0263L20.4839 7.38474L23.3847 8.16904L25.317 5.86843L27.9995 7.22106L30.357 5.35693L32.7144 7.22106L35.3969 5.86843L37.3293 8.16904L40.23 7.38474L41.6599 10.0263L44.6585 9.84221L45.5269 12.718L48.5027 13.1408L48.7755 16.1325L51.6035 17.1464L51.2761 20.1336L53.8427 21.6953L52.9129 24.5529L55.1135 26.5989L53.6267 29.211L55.3681 31.6593L53.388 33.919L54.602 36.6675L52.2059 38.4816L52.8424 41.4187L50.1304 42.7145L50.1622 45.7199L47.2455 46.4428L46.6726 49.3913L43.6696 49.5118L42.5147 52.2852L39.5503 51.7987L37.8589 54.2835L35.0514 53.2105L32.8963 55.3042L30.3615 53.6879L27.829 55.3042ZM30.3615 51.26L32.6303 52.7081L34.5626 50.8326L37.0769 51.7942L38.591 49.5686L41.2462 50.0051L42.2806 47.5203L44.9699 47.4112L45.4837 44.7696L48.0957 44.1217L48.0685 41.4301L50.4964 40.2707L49.9258 37.6405L52.0718 36.015L50.9851 33.553L52.7606 31.5298L51.1988 29.336L52.5287 26.9967L50.5577 25.1622L51.3898 22.6024L49.0915 21.202L49.3915 18.5263L46.8568 17.617L46.6135 14.9367L43.9492 14.5571L43.1694 11.9814L40.4824 12.1451L39.2002 9.77856L36.6018 10.481L34.8695 8.41911L32.4643 9.63079L30.3615 7.96217L28.2496 9.63306L25.8444 8.42138L24.1121 10.4833L21.5137 9.78083L20.2316 12.1474L17.5445 11.9837L16.7647 14.5594L14.1004 14.939L13.8571 17.6193L11.3224 18.5286L11.6225 21.2043L9.32414 22.6047L10.1562 25.1644L8.1852 26.999L9.51737 29.3383L7.95559 31.532L9.73106 33.5553L8.64441 36.0173L10.7904 37.6427L10.2221 40.273L12.65 41.4324L12.6227 44.124L15.2348 44.7719L15.7486 47.4135L18.4379 47.5226L19.4723 50.0074L22.1275 49.5709L23.6416 51.7965L26.1558 50.8349L28.0882 52.7103L30.3615 51.26Z" fill="#184E6F"/>
</g>
<path id="Vector_2" d="M30.3613 6.65869L32.596 8.42507L35.1399 7.14291L36.9722 9.32303L39.7206 8.58193L41.0778 11.0871L43.9195 10.9121L44.7447 13.6378L47.5636 14.0402L47.8228 16.8773L50.503 17.8366L50.1847 20.6669L52.6195 22.1491L51.7374 24.8567L53.8221 26.7981L52.4149 29.2738L54.0653 31.5948L52.1875 33.7363L53.3379 36.3415L51.0668 38.0602L51.6692 40.845L49.1004 42.0726L49.1299 44.9211L46.3656 45.6053L45.8222 48.4015L42.976 48.5152L41.8803 51.1454L39.0682 50.684L37.4655 53.0391L34.8057 52.0207L32.762 54.0053L30.3613 52.4731L27.9607 54.0053L25.917 52.0207L23.2572 53.0391L21.6545 50.684L18.8424 51.1454L17.7466 48.5152L14.9004 48.4015L14.3571 45.6053L11.5927 44.9211L11.6223 42.0726L9.05344 40.845L9.65587 38.0602L7.38481 36.3415L8.53512 33.7363L6.65735 31.5948L8.30779 29.2738L6.9006 26.7981L8.98524 24.8567L8.10318 22.1491L10.5379 20.6669L10.2197 17.8366L12.8999 16.8773L13.1591 14.0402L15.978 13.6378L16.8032 10.9121L19.6449 11.0871L21.002 8.58193L23.7505 9.32303L25.5828 7.14291L28.1267 8.42507L30.3613 6.65869Z" fill="#ABF19A"/>
<g id="Rectangle 4501">
<rect x="5.35718" y="23.3159" width="50.0132" height="13.8673" fill="#184E6F"/>
<rect x="5.35718" y="23.3159" width="50.0132" height="13.8673" stroke="#ABF19A"/>
</g>
<path id="Vector 3" d="M48.8189 29.5864L49.3459 28.3174L49.8729 29.5864L51.3919 30.0224L49.8729 30.7977L49.3459 32.182L48.8189 30.7977L47.4136 30.0224L48.8189 29.5864Z" fill="#ABF19A"/>
<path id="Vector 4" d="M12.446 29.5864L12.973 28.3174L13.5 29.5864L15.019 30.0224L13.5 30.7977L12.973 32.182L12.446 30.7977L11.0406 30.0224L12.446 29.5864Z" fill="#ABF19A"/>
</g>
<g id="100%">
<path d="M18.7475 34.2273V34.0113L19.1908 33.8749C19.4788 33.784 19.6265 33.5946 19.6341 33.3066V27.8961L18.6907 28.0211V27.7597C19.115 27.6839 19.528 27.574 19.9296 27.43C20.3388 27.2785 20.7253 27.0966 21.089 26.8844L21.2254 26.9981L21.18 28.6235V31.8517C21.18 32.0487 21.18 32.2798 21.18 32.545C21.1875 32.8027 21.1913 33.0527 21.1913 33.2952C21.1913 33.5908 21.3353 33.784 21.6233 33.8749L22.0893 34.0113V34.2273H18.7475Z" fill="#ABF19A"/>
<path d="M25.1776 34.3864C24.7306 34.3864 24.31 34.2614 23.916 34.0113C23.5219 33.7537 23.2036 33.3483 22.9612 32.7951C22.7187 32.2419 22.5974 31.5182 22.5974 30.6241C22.5974 29.7223 22.7187 28.9949 22.9612 28.4417C23.2036 27.8885 23.5219 27.4831 23.916 27.2254C24.31 26.9678 24.7306 26.839 25.1776 26.839C25.6247 26.839 26.0453 26.9678 26.4393 27.2254C26.8334 27.4831 27.1517 27.8885 27.3941 28.4417C27.6366 28.9949 27.7579 29.7223 27.7579 30.6241C27.7579 31.5182 27.6366 32.2419 27.3941 32.7951C27.1517 33.3483 26.8334 33.7537 26.4393 34.0113C26.0453 34.2614 25.6247 34.3864 25.1776 34.3864ZM25.1776 34.0682C25.3747 34.0682 25.5414 34.0189 25.6778 33.9204C25.8142 33.8219 25.9241 33.6514 26.0074 33.4089C26.0983 33.1588 26.1628 32.8103 26.2006 32.3632C26.2461 31.9085 26.2688 31.3288 26.2688 30.6241C26.2688 29.9118 26.2461 29.3321 26.2006 28.885C26.1628 28.4303 26.0983 28.0779 26.0074 27.8279C25.9241 27.5778 25.8142 27.4035 25.6778 27.305C25.5414 27.2065 25.3747 27.1572 25.1776 27.1572C24.9882 27.1572 24.8215 27.2065 24.6775 27.305C24.5411 27.3959 24.4312 27.5664 24.3479 27.8165C24.2645 28.0666 24.2001 28.4189 24.1547 28.8736C24.1168 29.3283 24.0978 29.9118 24.0978 30.6241C24.0978 31.3288 24.1168 31.9085 24.1547 32.3632C24.2001 32.8103 24.2645 33.1588 24.3479 33.4089C24.4312 33.659 24.5411 33.8333 24.6775 33.9318C24.8215 34.0227 24.9882 34.0682 25.1776 34.0682Z" fill="#ABF19A"/>
<path d="M30.8388 34.3864C30.3917 34.3864 29.9711 34.2614 29.5771 34.0113C29.183 33.7537 28.8648 33.3483 28.6223 32.7951C28.3798 32.2419 28.2585 31.5182 28.2585 30.6241C28.2585 29.7223 28.3798 28.9949 28.6223 28.4417C28.8648 27.8885 29.183 27.4831 29.5771 27.2254C29.9711 26.9678 30.3917 26.839 30.8388 26.839C31.2859 26.839 31.7064 26.9678 32.1005 27.2254C32.4945 27.4831 32.8128 27.8885 33.0553 28.4417C33.2977 28.9949 33.419 29.7223 33.419 30.6241C33.419 31.5182 33.2977 32.2419 33.0553 32.7951C32.8128 33.3483 32.4945 33.7537 32.1005 34.0113C31.7064 34.2614 31.2859 34.3864 30.8388 34.3864ZM30.8388 34.0682C31.0358 34.0682 31.2025 34.0189 31.3389 33.9204C31.4753 33.8219 31.5852 33.6514 31.6685 33.4089C31.7595 33.1588 31.8239 32.8103 31.8618 32.3632C31.9072 31.9085 31.93 31.3288 31.93 30.6241C31.93 29.9118 31.9072 29.3321 31.8618 28.885C31.8239 28.4303 31.7595 28.0779 31.6685 27.8279C31.5852 27.5778 31.4753 27.4035 31.3389 27.305C31.2025 27.2065 31.0358 27.1572 30.8388 27.1572C30.6493 27.1572 30.4826 27.2065 30.3386 27.305C30.2022 27.3959 30.0924 27.5664 30.009 27.8165C29.9256 28.0666 29.8612 28.4189 29.8158 28.8736C29.7779 29.3283 29.7589 29.9118 29.7589 30.6241C29.7589 31.3288 29.7779 31.9085 29.8158 32.3632C29.8612 32.8103 29.9256 33.1588 30.009 33.4089C30.0924 33.659 30.2022 33.8333 30.3386 33.9318C30.4826 34.0227 30.6493 34.0682 30.8388 34.0682Z" fill="#ABF19A"/>
<path d="M36.2498 34.5001L35.9543 34.2841L41.1034 26.748L41.3989 26.964L36.2498 34.5001ZM36.0225 26.839C36.318 26.839 36.5908 26.9223 36.8409 27.089C37.0985 27.2482 37.3069 27.502 37.466 27.8506C37.6252 28.1916 37.7047 28.6349 37.7047 29.1805C37.7047 29.7185 37.6252 30.1618 37.466 30.5104C37.3069 30.8514 37.0985 31.1053 36.8409 31.272C36.5908 31.4311 36.318 31.5107 36.0225 31.5107C35.727 31.5107 35.4504 31.4311 35.1927 31.272C34.9427 31.1053 34.7381 30.8514 34.5789 30.5104C34.4198 30.1618 34.3402 29.7185 34.3402 29.1805C34.3402 28.6349 34.4198 28.1916 34.5789 27.8506C34.7381 27.502 34.9427 27.2482 35.1927 27.089C35.4504 26.9223 35.727 26.839 36.0225 26.839ZM35.3746 29.1805C35.3746 29.7413 35.4049 30.1732 35.4655 30.4763C35.5261 30.7718 35.6057 30.9764 35.7042 31.0901C35.8027 31.1962 35.9088 31.2492 36.0225 31.2492C36.1437 31.2492 36.2498 31.1962 36.3408 31.0901C36.4393 30.9764 36.5188 30.7718 36.5795 30.4763C36.6401 30.1732 36.6704 29.7413 36.6704 29.1805C36.6704 28.6198 36.6401 28.1916 36.5795 27.8961C36.5188 27.593 36.4393 27.3884 36.3408 27.2823C36.2498 27.1686 36.1437 27.1118 36.0225 27.1118C35.9088 27.1118 35.8027 27.1686 35.7042 27.2823C35.6057 27.3884 35.5261 27.5892 35.4655 27.8847C35.4049 28.1802 35.3746 28.6122 35.3746 29.1805ZM41.2057 29.6579C41.5012 29.6579 41.774 29.7413 42.0241 29.908C42.2817 30.0671 42.4901 30.321 42.6492 30.6695C42.8084 31.0105 42.8879 31.4538 42.8879 31.9994C42.8879 32.5375 42.8084 32.9808 42.6492 33.3293C42.4901 33.6703 42.2817 33.9242 42.0241 34.0909C41.774 34.25 41.5012 34.3296 41.2057 34.3296C40.9101 34.3296 40.6336 34.25 40.3759 34.0909C40.1258 33.9242 39.9212 33.6703 39.7621 33.3293C39.603 32.9808 39.5234 32.5375 39.5234 31.9994C39.5234 31.4538 39.603 31.0105 39.7621 30.6695C39.9212 30.321 40.1258 30.0671 40.3759 29.908C40.6336 29.7413 40.9101 29.6579 41.2057 29.6579ZM40.5578 31.9994C40.5578 32.5602 40.5881 32.9921 40.6487 33.2952C40.7093 33.5908 40.7889 33.7954 40.8874 33.909C40.9859 34.0151 41.092 34.0682 41.2057 34.0682C41.3269 34.0682 41.433 34.0151 41.5239 33.909C41.6224 33.7954 41.702 33.5908 41.7626 33.2952C41.8233 32.9921 41.8536 32.5602 41.8536 31.9994C41.8536 31.4387 41.8233 31.0105 41.7626 30.715C41.702 30.4119 41.6224 30.2073 41.5239 30.1012C41.433 29.9875 41.3269 29.9307 41.2057 29.9307C41.092 29.9307 40.9859 29.9875 40.8874 30.1012C40.7889 30.2073 40.7093 30.4081 40.6487 30.7036C40.5881 30.9992 40.5578 31.4311 40.5578 31.9994Z" fill="#ABF19A"/>
</g>
</g>
</g>
</svg>
