<svg width="68" height="68" viewBox="0 0 68 68" fill="none" xmlns="http://www.w3.org/2000/svg">
<g id="Group 76">
<g id="Group 75">
<path id="Vector" d="M44.7192 58.249C46.1056 58.249 47.2294 57.1251 47.2294 55.7387C47.2294 54.3524 46.1056 53.2285 44.7192 53.2285C43.3328 53.2285 42.209 54.3524 42.209 55.7387C42.209 57.1251 43.3328 58.249 44.7192 58.249Z" fill="#040D12"/>
<g id="Group">
<path id="Vector_2" d="M60.8383 58.249C62.2247 58.249 63.3486 57.1251 63.3486 55.7387C63.3486 54.3524 62.2247 53.2285 60.8383 53.2285C59.452 53.2285 58.3281 54.3524 58.3281 55.7387C58.3281 57.1251 59.452 58.249 60.8383 58.249Z" fill="#040D12"/>
</g>
<g id="Group_2">
<path id="Vector_3" d="M34.1205 13.4987C34.9493 14.9265 35.7752 16.3556 36.6025 17.7848C36.6674 18.0019 36.8492 17.9046 36.976 17.9046C43.5835 17.9103 50.191 17.9074 56.7999 17.9117C57.4088 17.9117 58.0148 17.875 58.6279 17.8905C60.7111 17.9399 62.7957 17.906 64.8802 17.9046C64.8788 17.8891 64.8774 17.8736 64.876 17.8581C64.8915 17.8468 64.9056 17.8299 64.9127 17.8031C64.9155 15.782 64.9141 13.7594 64.9141 11.7383C64.9141 11.2788 64.9521 11.3352 64.5025 11.3352C54.1191 11.3338 43.7343 11.3352 33.3509 11.3352C33.2664 11.3352 33.1818 11.3324 33.0972 11.3366C32.9408 11.3422 32.9267 11.4296 32.9774 11.5522C33.358 12.2006 33.7428 12.8475 34.1205 13.4987Z" fill="#0A9494"/>
<path id="Vector_4" d="M61.4721 27.5527C58.3291 27.5612 55.1846 27.5584 52.0415 27.5584C51.513 27.5584 50.983 27.5584 50.4545 27.5584C47.8301 27.5584 45.2043 27.5584 42.5799 27.557C42.3939 27.557 42.2163 27.5316 42.3826 27.8191C43.5242 29.7867 44.6574 31.7599 45.7906 33.7317C45.9175 33.953 46.0612 34.0686 46.3544 34.0672C51.3932 34.0545 56.4305 34.0545 61.4693 34.0658C61.7836 34.0658 61.8343 33.953 61.8329 33.6782C61.8231 31.7515 61.8216 29.8248 61.8343 27.8995C61.8372 27.6091 61.7427 27.5527 61.4721 27.5527Z" fill="#0A9494"/>
<path id="Vector_5" d="M64.8779 43.7775C64.7933 43.7718 64.7101 43.7591 64.6256 43.7591C60.3254 43.7577 56.0266 43.7591 51.7263 43.7591H46.5199C45.8179 43.7591 45.116 43.7591 44.4141 43.7605C44.2394 43.7605 44.1167 43.745 44.0082 43.5534C43.0963 41.9466 42.1633 40.3525 41.2358 38.7542C40.3972 37.3081 39.5544 35.862 38.7172 34.4145C37.6573 32.5794 36.603 30.7429 35.5445 28.9064C34.6932 27.4307 33.8391 25.955 32.9864 24.4793C31.9377 22.6625 30.8877 20.8458 29.8405 19.0276C29.1005 17.7422 28.3634 16.4539 27.6248 15.1685C26.9272 13.955 26.2281 12.7443 25.529 11.5321C25.4613 11.4152 25.4247 11.3658 25.3274 11.5364C24.7806 12.499 24.2112 13.449 23.6572 14.4088C22.6692 16.1185 21.6897 17.8324 20.7031 19.542C19.7855 21.1319 18.8581 22.7175 17.9405 24.3088C16.9539 26.0184 15.9744 27.7337 14.9863 29.4448C14.0674 31.0375 13.14 32.6245 12.221 34.2172C11.1611 36.0523 10.0984 37.886 9.054 39.7295C8.76929 40.2327 8.40988 40.6936 8.19706 41.2362C8.00819 41.4152 7.86443 41.621 7.82496 41.886C7.12588 43.0798 6.42257 44.2708 5.72912 45.4688C4.86654 46.9586 4.01101 48.454 3.15266 49.9466C3.10614 50.0269 3.01171 50.1031 3.05681 50.2003C3.10755 50.3074 3.22735 50.2524 3.31474 50.2539C4.44793 50.2581 5.58113 50.2567 6.71432 50.2567C15.3232 50.2567 23.9335 50.2567 32.5424 50.2539C32.6425 50.2539 32.7834 50.3102 32.8341 50.2045C32.8736 50.1228 32.782 50.0199 32.7313 49.9311C31.5938 47.9593 30.4564 45.9861 29.3218 44.0114C29.2175 43.831 29.0963 43.7535 28.8722 43.7549C25.9701 43.7648 23.0695 43.7605 20.1675 43.7605C18.2929 43.7605 16.4183 43.7605 14.5438 43.7605C14.3958 43.7605 14.1731 43.8099 14.3338 43.5322C15.2386 41.9691 16.1477 40.4089 17.0526 38.8458C18.1012 37.0361 19.1498 35.2278 20.1928 33.4166C21.2246 31.6266 22.2464 29.8324 23.2795 28.0424C23.9532 26.8754 24.6425 25.7168 25.3133 24.547C25.4374 24.3313 25.4571 24.4018 25.5487 24.5625C26.1477 25.6139 26.7594 26.6583 27.3641 27.7069C28.1576 29.0826 28.9497 30.461 29.7432 31.8366C30.4113 32.9938 31.0864 34.1467 31.7517 35.3053C32.1055 35.9198 32.4451 36.5428 32.7919 37.1615C32.9779 37.4899 33.0611 37.8761 33.3387 38.1538C33.3585 38.1679 33.3768 38.1791 33.3951 38.1862C33.4811 38.3426 33.5544 38.5061 33.6671 38.6457C33.6629 38.6753 33.6573 38.7049 33.653 38.7345C33.6939 38.8951 33.7813 39.0192 33.9321 39.0953C33.9476 39.1953 33.9617 39.2968 34.042 39.3603C34.0449 39.3729 34.0477 39.3856 34.0533 39.3983C34.0928 39.5548 34.1999 39.6661 34.307 39.7774C34.3718 39.8719 34.4409 39.9635 34.4987 40.0622C35.4092 41.6421 36.3155 43.225 37.226 44.8049C38.2253 46.5386 39.226 48.2708 40.2267 50.0044C40.2535 50.2144 40.369 50.3159 40.5847 50.3159C41.1583 50.3131 41.7334 50.3159 42.3084 50.3159C49.7292 50.3159 57.1513 50.3145 64.572 50.3215C64.8652 50.3215 64.9526 50.2398 64.9512 49.9466C64.9399 47.9875 64.9455 46.0297 64.9427 44.0706C64.9441 43.9677 64.9963 43.8507 64.8779 43.7775ZM41.6418 50.2088C41.6474 50.2017 41.6516 50.1961 41.6559 50.1876C41.6601 50.182 41.6615 50.1749 41.6643 50.1693C41.6742 50.182 41.684 50.1947 41.6953 50.2088C41.677 50.2088 41.6587 50.2088 41.6418 50.2088ZM42.2845 50.1792C42.2887 50.1721 42.2915 50.1651 42.2943 50.1594C42.2972 50.1707 42.3 50.1806 42.3042 50.189C42.2972 50.1848 42.2915 50.182 42.2845 50.1792Z" fill="#040D12"/>
</g>
</g>
</g>
</svg>
