<svg width="40" height="40" viewBox="0 0 40 40" fill="none" xmlns="http://www.w3.org/2000/svg">
<rect width="40" height="40" rx="8" fill="#F2D0F5"/>
<path fill-rule="evenodd" clip-rule="evenodd" d="M20.0025 9.75001C22.4991 9.75088 24.5229 11.7755 24.5229 14.273V17.305C24.5229 17.7193 24.1871 18.055 23.7729 18.055C23.3587 18.055 23.0229 17.7193 23.0229 17.305V14.273C23.0229 12.6031 21.6696 11.25 20.0009 11.25H19.9977C18.328 11.2428 16.9689 12.589 16.9609 14.2578V17.305C16.9609 17.7193 16.6251 18.055 16.2109 18.055C15.7967 18.055 15.4609 17.7193 15.4609 17.305V14.2528C15.4717 11.7548 17.5054 9.74013 20.0025 9.75001Z" fill="#CB43D7"/>
<path fill-rule="evenodd" clip-rule="evenodd" d="M10.25 19.2293C10.25 16.4647 12.4919 14.2243 15.2578 14.2243H24.7422C27.5081 14.2243 29.75 16.4647 29.75 19.2293V24.7453C29.75 27.5099 27.5081 29.7503 24.7422 29.7503H15.2578C12.4919 29.7503 10.25 27.5099 10.25 24.7453V19.2293Z" fill="#CB43D7"/>
</svg>
