<svg width="40" height="40" viewBox="0 0 40 40" fill="none" xmlns="http://www.w3.org/2000/svg">
<g id="Group 4110">
<rect id="Rectangle 4590" opacity="0.2" width="40" height="40" rx="8" fill="#1698B5"/>
<path id="Stroke-1 (Stroke)" fill-rule="evenodd" clip-rule="evenodd" d="M13.3862 24.0251C15.1737 23.4259 17.5416 23.2451 19.9787 23.2451C22.4306 23.2451 24.7993 23.4329 26.5843 24.04C27.4817 24.3452 28.3001 24.7787 28.9022 25.4098C29.5259 26.0635 29.8781 26.8901 29.8781 27.8671C29.8781 28.8462 29.5227 29.6724 28.8954 30.3236C28.2903 30.9518 27.4691 31.3811 26.5708 31.6825C24.7836 32.2819 22.4159 32.463 19.9787 32.463C17.527 32.463 15.158 32.2755 13.3727 31.6686C12.4751 31.3635 11.6566 30.93 11.0543 30.2988C10.4304 29.6451 10.0781 28.8183 10.0781 27.8409C10.0781 26.8616 10.4336 26.0353 11.0611 25.3839C11.6663 24.7557 12.4877 24.3264 13.3862 24.0251Z" fill="#00C2ED"/>
<path id="Stroke-3 (Stroke)" fill-rule="evenodd" clip-rule="evenodd" d="M13.3399 14.2604C13.3407 10.5951 16.313 7.625 19.978 7.625C23.6437 7.625 26.6149 10.5962 26.6149 14.2619C26.6149 17.9274 23.644 20.9 19.978 20.9H19.9375L19.9345 20.9C16.281 20.8876 13.3283 17.9145 13.3399 14.2604ZM13.3399 14.2604L13.3399 14.2589L14.2327 14.2619H13.3399L13.3399 14.2604Z" fill="#00C2ED"/>
</g>
</svg>
