<svg width="40" height="40" viewBox="0 0 40 40" fill="none" xmlns="http://www.w3.org/2000/svg">
<g id="Group 3628">
<g id="Rectangle 4590" opacity="0.25">
<rect width="40" height="40" rx="8" fill="#4399D7"/>
<rect x="0.5" y="0.5" width="39" height="39" rx="7.5" stroke="white" stroke-opacity="0.07"/>
</g>
<g id="Group 2334">
<g id="Group 2333">
<g id="Group">
<path id="Vector" d="M7.5 12.8971C7.61694 12.5993 7.83867 12.4989 8.15197 12.5C12.7974 12.5055 17.4439 12.5033 22.0894 12.5033C22.5803 12.5033 22.7447 12.6688 22.7447 13.1652C22.7458 17.226 22.7458 21.2867 22.7447 25.3475C22.7447 25.8307 22.5803 25.9984 22.1048 25.9984C20.1114 25.9995 18.118 25.9995 16.1246 25.9984C15.6678 25.9984 15.5311 25.8858 15.4505 25.4402C15.1427 23.7589 13.5707 22.8709 11.9645 23.2228C10.7455 23.4898 10.0196 24.2708 9.79348 25.5052C9.7306 25.8472 9.56292 25.9906 9.2066 25.9962C8.86462 26.0017 8.52264 25.9851 8.18176 26.0017C7.87508 26.016 7.64451 25.92 7.5 25.6431C7.5 21.3948 7.5 17.1454 7.5 12.8971Z" fill="#0C77C8"/>
<path id="Vector_2" d="M23.7522 20.6287C23.7522 19.0578 23.7522 17.488 23.7522 15.9171C23.7522 15.4151 23.9232 15.2464 24.4284 15.2464C25.5349 15.2453 26.6414 15.2497 27.7479 15.2442C28.0204 15.243 28.2267 15.3346 28.4032 15.5464C29.6939 17.0975 30.9956 18.6397 32.2786 20.1963C32.401 20.3452 32.4849 20.5747 32.4871 20.7677C32.5036 22.2978 32.497 23.8279 32.4959 25.3569C32.4959 25.8202 32.3238 25.9923 31.866 25.9978C31.7689 25.9989 31.6707 25.9989 31.5726 25.9978C31.1743 25.9912 31.0199 25.8599 30.9438 25.4661C30.6702 24.0375 29.5505 23.1285 28.0877 23.1494C26.6392 23.1693 25.5868 24.0408 25.2966 25.4573C25.2095 25.882 25.0694 25.9945 24.6292 25.9989C23.8349 26.0055 23.75 25.9195 23.75 25.123C23.7522 23.6238 23.7522 22.1257 23.7522 20.6287ZM27.3706 19.7462C28.0535 19.7462 28.7374 19.7429 29.4203 19.7484C29.6663 19.7506 29.8781 19.6954 29.984 19.4527C30.0844 19.2244 30.0039 19.0302 29.8505 18.8482C29.2019 18.076 28.5565 17.3016 27.9145 16.5238C27.7567 16.333 27.5692 16.248 27.3221 16.2513C26.6712 16.2591 26.0203 16.2513 25.3706 16.2547C24.9326 16.2569 24.7473 16.44 24.7451 16.8779C24.7406 17.6259 24.7406 18.3749 24.7451 19.1229C24.7473 19.5608 24.9326 19.744 25.3706 19.7462C26.0369 19.7484 26.7043 19.7462 27.3706 19.7462Z" fill="#0C77C8"/>
<path id="Vector_3" d="M28.1295 28.3306C26.9734 28.3328 26.0159 27.3841 26.0059 26.2246C25.996 25.063 26.9613 24.0878 28.124 24.0845C29.279 24.0812 30.2608 25.0663 30.2509 26.2191C30.2399 27.3774 29.2857 28.3284 28.1295 28.3306ZM28.1273 26.8281C28.4638 26.8281 28.7462 26.5456 28.7451 26.2092C28.7451 25.8738 28.4605 25.5903 28.1251 25.5914C27.7887 25.5914 27.5084 25.8738 27.5084 26.2114C27.5084 26.549 27.7887 26.8292 28.1273 26.8281Z" fill="#0C77C8"/>
<path id="Vector_4" d="M14.7416 26.2004C14.7515 27.3565 13.8083 28.3151 12.6444 28.3306C11.4806 28.346 10.5153 27.394 10.5021 26.2191C10.4888 25.0641 11.4663 24.0823 12.6257 24.0845C13.7818 24.0878 14.7316 25.0365 14.7416 26.2004ZM12.618 26.8281C12.9522 26.8303 13.2457 26.5456 13.249 26.2158C13.2523 25.8893 12.9588 25.5936 12.6279 25.5925C12.2969 25.5903 12.0002 25.8782 11.9969 26.2059C11.9936 26.5324 12.2848 26.8247 12.618 26.8281Z" fill="#0C77C8"/>
</g>
</g>
</g>
</g>
</svg>
