<svg width="40" height="40" viewBox="0 0 40 40" fill="none" xmlns="http://www.w3.org/2000/svg">
<g id="Group 3626">
<g id="Group 3627">
<g id="Rectangle 5222" opacity="0.15">
<rect width="40" height="40" rx="8" fill="#E17A1A"/>
<rect x="0.5" y="0.5" width="39" height="39" rx="7.5" stroke="white" stroke-opacity="0.07"/>
</g>
<g id="Group 173">
<path id="Vector" d="M34.3413 16.9818C33.3072 15.2371 32.2572 13.5021 31.2152 11.7637C30.9848 11.3791 30.6464 11.2001 30.1989 11.2001C23.1831 11.2019 16.1672 11.2019 9.15051 11.1992C8.68798 11.1992 8.34862 11.3871 8.11204 11.7831C7.07712 13.5137 6.03334 15.2397 5.00285 16.9738C4.535 17.7615 5.02234 18.6157 5.9341 18.6254C6.51979 18.6316 7.10636 18.6432 7.69027 18.6192C7.9623 18.6077 8.0066 18.7016 8.00571 18.948C7.99685 21.6106 8.0004 24.2733 8.0004 26.936C8.0004 27.7689 8.40533 28.1738 9.23911 28.1738C12.7196 28.1738 16.2 28.1738 19.6805 28.1738C23.1609 28.1738 26.6414 28.1738 30.1218 28.1738C30.9299 28.1738 31.3375 27.7618 31.3384 26.9466C31.3393 24.2733 31.3428 21.5991 31.3322 18.9258C31.3313 18.6777 31.3898 18.6121 31.6379 18.621C32.2227 18.6414 32.8093 18.6316 33.3949 18.6263C34.3111 18.6166 34.8082 17.7686 34.3413 16.9818ZM7.75318 16.5042C8.38583 15.4515 8.98658 14.4547 9.58202 13.4552C9.6405 13.3577 9.70429 13.3196 9.81771 13.3196C11.7476 13.3223 13.6783 13.3214 15.6046 13.3214C15.656 13.4375 15.5665 13.4977 15.5257 13.5659C14.9861 14.4742 14.4412 15.3797 13.8989 16.2862C13.8245 16.4102 13.7625 16.5095 13.5773 16.5086C11.6589 16.5006 9.73974 16.5042 7.75318 16.5042ZM31.2152 16.5042C28.0245 16.5042 24.8347 16.5024 21.644 16.5086C21.4242 16.5086 21.2922 16.4581 21.1735 16.2525C20.6613 15.3656 20.1262 14.4928 19.5998 13.6147C19.5511 13.5331 19.5041 13.4507 19.4297 13.3214C22.8313 13.3214 26.1647 13.3214 29.4989 13.3205C29.6017 13.3205 29.685 13.3267 29.7479 13.433C30.3478 14.4423 30.953 15.448 31.5865 16.5042C31.4252 16.5042 31.3207 16.5042 31.2152 16.5042Z" fill="#E17A1A"/>
</g>
</g>
</g>
</svg>
