<svg width="40" height="40" viewBox="0 0 40 40" fill="none" xmlns="http://www.w3.org/2000/svg">
<g id="Group 4070">
<g id="Rectangle 5222" opacity="0.15">
<rect width="40" height="40" rx="8" fill="#E92068"/>
<rect x="0.5" y="0.5" width="39" height="39" rx="7.5" stroke="white" stroke-opacity="0.07"/>
</g>
<g id="Group 3601">
<g id="Group 448">
<path id="Vector" d="M32.1738 15.8156C32.1728 15.5262 32.136 15.2421 32.0676 14.9611C31.6954 13.448 31.2906 11.9432 30.9194 10.4301C30.8269 10.0534 30.7385 9.67667 30.6344 9.30311C30.4294 8.56232 29.7617 7.80259 28.6902 7.80469C22.5577 7.81206 16.4252 7.80785 10.2927 7.80995C10.0467 7.80995 9.80273 7.83205 9.56929 7.93938C8.89632 8.24875 8.50831 8.77488 8.3327 9.48305C8.0204 10.7479 7.70389 12.0106 7.38528 13.2744C7.17813 14.0951 6.9142 14.9033 6.83008 15.7514C6.83008 15.8503 6.83008 15.9492 6.83008 16.0481C6.83008 16.147 6.83008 16.2459 6.83008 16.3449C6.83008 16.5258 6.83008 16.7079 6.83008 16.8889C6.88055 16.9636 6.85426 17.0499 6.86162 17.1298C6.94049 17.9369 7.3306 18.6177 7.75016 19.2796C7.92261 19.5511 7.99832 19.8173 7.99727 20.1351C7.99096 23.7612 8.00147 27.3873 7.9878 31.0145C7.98465 31.9415 8.61451 33.0811 9.75226 33.1705C9.80168 33.1705 9.8511 33.1705 9.90052 33.1705C16.2927 33.1705 22.6849 33.1705 29.0761 33.1705C29.1087 33.1705 29.1423 33.1705 29.1749 33.1705C29.4325 33.1274 29.6965 33.1242 29.9331 32.9832C30.6859 32.535 31.0266 31.8563 31.0287 31.005C31.0361 28.6384 31.0319 22.0618 31.0319 19.6953C31.0319 19.6732 31.0308 19.65 31.0298 19.6279C31.1045 19.5427 31.177 19.4543 31.2464 19.3627C31.7785 18.6598 32.1255 17.878 32.1959 16.9878C32.1959 16.7068 32.1959 16.4269 32.1959 16.146C32.1486 16.0386 32.1865 15.925 32.1738 15.8156ZM29.1034 30.7556C29.1034 31.3333 29.0729 31.3638 28.5103 31.3638C26.9825 31.3638 25.4546 31.3638 23.9278 31.3638C23.8458 31.3638 23.7627 31.3649 23.6807 31.3596C23.5724 31.3522 23.5167 31.2975 23.5093 31.1891C23.5041 31.0986 23.5041 31.0081 23.5041 30.9166C23.5041 28.8962 23.5041 26.8759 23.5041 24.8545C23.5041 24.6556 23.4946 24.4589 23.4262 24.2694C23.2885 23.8843 22.9741 23.6465 22.565 23.6455C20.5335 23.6412 18.502 23.6444 16.4704 23.6434C16.0887 23.6434 15.8332 23.8338 15.6544 24.1505C15.5409 24.3515 15.5251 24.5725 15.5262 24.7977C15.5272 26.8433 15.5272 28.8878 15.5272 30.9334C15.5272 31.3638 15.5272 31.3638 15.0856 31.3638C14.0782 31.3638 13.0709 31.3638 12.0635 31.3638C11.4852 31.3638 10.9079 31.367 10.3295 31.3628C10.013 31.3607 9.94048 31.2838 9.92786 30.9661C9.92576 30.9166 9.92681 30.8671 9.92681 30.8177C9.92681 27.6672 9.92681 24.5167 9.92681 21.3663C9.92681 21.2926 9.92365 21.2179 9.93312 21.1442C9.94468 21.0622 9.992 21.0316 10.0719 21.0464C10.1455 21.06 10.2139 21.0895 10.2854 21.1106C11.5199 21.4767 12.7186 21.381 13.8763 20.8233C14.5156 20.515 15.0761 20.0972 15.5135 19.5311C15.6187 19.3954 15.6965 19.368 15.8101 19.5269C15.9541 19.7289 16.1445 19.891 16.3222 20.0636C17.6439 21.3494 19.8763 21.6988 21.5346 20.8885C22.1886 20.5697 22.7743 20.1688 23.2307 19.5932C23.4021 19.3775 23.4399 19.3838 23.6218 19.6016C23.728 19.7289 23.8353 19.8531 23.9552 19.9667C25.4063 21.3336 27.4062 21.6525 29.1024 20.9917C29.1045 23.9064 29.1034 28.8026 29.1034 30.7556Z" fill="#E92068"/>
</g>
</g>
</g>
</svg>
