<svg width="58" height="59" viewBox="0 0 58 59" fill="none" xmlns="http://www.w3.org/2000/svg">
<g id="Group">
<g id="Group_2">
<g id="Group_3">
<g id="Group_4">
<path id="Vector" d="M56.9318 50.6436V52.274C56.9318 52.4041 56.8846 52.5243 56.8022 52.6247C56.7158 52.73 56.5922 52.8134 56.4465 52.8601C56.4023 52.875 56.3561 52.885 56.3078 52.8929C56.2646 52.8999 56.2204 52.9029 56.1742 52.9029H24.8933C24.4904 52.9029 24.1578 52.6376 24.1377 52.3067C24.1377 52.2958 24.1367 52.2849 24.1367 52.274V50.6436C24.1367 50.6326 24.1367 50.6217 24.1377 50.6108C24.1578 50.2799 24.4904 50.0146 24.8933 50.0146H56.1752C56.2204 50.0146 56.2657 50.0186 56.3089 50.0246C56.3561 50.0315 56.4033 50.0425 56.4475 50.0574C56.5922 50.1041 56.7168 50.1865 56.8032 50.2928C56.8836 50.3932 56.9318 50.5134 56.9318 50.6436Z" fill="#FFB93E"/>
<path id="Vector_2" d="M41.5703 52.9009H24.812C24.4523 52.9009 24.1558 52.6356 24.1367 52.3048C24.1367 52.2939 24.1357 52.2829 24.1357 52.272V50.6416C24.1357 50.6307 24.1357 50.6197 24.1367 50.6088C24.1548 50.278 24.4523 50.0127 24.812 50.0127H39.5124C39.7475 50.8642 40.2952 52.0395 41.5703 52.9009Z" fill="#FFA412"/>
<g id="Group_5">
<path id="Vector_3" d="M53.1243 50.0146H52.7686V52.9019H53.1243V50.0146Z" fill="#FFA412"/>
<path id="Vector_4" d="M51.9211 50.0146H51.5654V52.9019H51.9211V50.0146Z" fill="#FFA412"/>
<path id="Vector_5" d="M50.4778 50.0146H50.1221V52.9019H50.4778V50.0146Z" fill="#FFA412"/>
<path id="Vector_6" d="M48.2659 50.0146H47.9102V52.9019H48.2659V50.0146Z" fill="#FFA412"/>
<path id="Vector_7" d="M45.926 50.0146H45.5703V52.9019H45.926V50.0146Z" fill="#FFA412"/>
<path id="Vector_8" d="M42.3401 50.0146H41.9844V52.9019H42.3401V50.0146Z" fill="#FFA412"/>
<path id="Vector_9" d="M38.9827 50.0146H38.627V52.9019H38.9827V50.0146Z" fill="#FFA412"/>
<path id="Vector_10" d="M35.9846 50.0146H35.6289V52.9019H35.9846V50.0146Z" fill="#FFA412"/>
<path id="Vector_11" d="M54.2707 50.0146H53.915V52.9019H54.2707V50.0146Z" fill="#FFA412"/>
<path id="Vector_12" d="M55.0276 50.0146H54.6719V52.9019H55.0276V50.0146Z" fill="#FFA412"/>
<path id="Vector_13" d="M55.7571 50.0146H55.4014V52.9019H55.7571V50.0146Z" fill="#FFA412"/>
<path id="Vector_14" d="M56.3069 50.0246V52.8919C56.2637 52.8989 56.2195 52.9019 56.1732 52.9019H55.9512V50.0146H56.1732C56.2195 50.0146 56.2637 50.0186 56.3069 50.0246Z" fill="#FFA412"/>
<path id="Vector_15" d="M56.801 50.2901V52.623C56.7146 52.7283 56.591 52.8117 56.4453 52.8584V50.0557C56.591 50.1024 56.7146 50.1848 56.801 50.2901Z" fill="#FFA412"/>
</g>
</g>
<g id="Group_6">
<path id="Vector_16" d="M53.5871 47.7559V49.3863C53.5871 49.5164 53.5399 49.6366 53.4575 49.737C53.3711 49.8423 53.2475 49.9257 53.1028 49.9724C53.0586 49.9873 53.0124 49.9983 52.9641 50.0052C52.9209 50.0122 52.8767 50.0152 52.8305 50.0152H21.5486C21.1457 50.0152 20.8131 49.7499 20.793 49.419C20.793 49.4081 20.792 49.3972 20.792 49.3863V47.7559C20.792 47.7449 20.792 47.734 20.793 47.7231C20.8131 47.3922 21.1457 47.127 21.5486 47.127H52.8305C52.8506 47.127 52.8707 47.1279 52.8908 47.1289C52.8988 47.1289 52.9079 47.1299 52.9159 47.1309C52.9249 47.1319 52.935 47.1329 52.944 47.1339C52.9511 47.1349 52.9571 47.1359 52.9641 47.1369C53.0114 47.1438 53.0586 47.1548 53.1028 47.1697C53.1098 47.1717 53.1159 47.1736 53.1229 47.1766C53.1289 47.1786 53.136 47.1816 53.142 47.1836C53.154 47.1885 53.1671 47.1935 53.1802 47.1985C53.1872 47.2015 53.1952 47.2054 53.2023 47.2084C53.2093 47.2114 53.2153 47.2144 53.2214 47.2174C53.2334 47.2233 53.2455 47.2293 53.2565 47.2362C53.2696 47.2442 53.2827 47.2521 53.2957 47.2601C53.3058 47.266 53.3158 47.273 53.3249 47.28C53.3249 47.28 53.3259 47.281 53.3269 47.281C53.3329 47.2849 53.3399 47.2899 53.346 47.2949C53.3651 47.3098 53.3831 47.3257 53.4012 47.3416C53.4062 47.3465 53.4113 47.3515 53.4163 47.3565C53.4213 47.3614 53.4263 47.3664 53.4314 47.3714C53.4414 47.3813 53.4505 47.3922 53.4595 47.4032C53.5399 47.5055 53.5871 47.6257 53.5871 47.7559Z" fill="#FFB93E"/>
<path id="Vector_17" d="M38.2265 50.0152H21.4682C21.1085 50.0152 20.8121 49.7499 20.793 49.419C20.793 49.4081 20.792 49.3972 20.792 49.3863V47.7559C20.792 47.7449 20.792 47.734 20.793 47.7231C20.8111 47.3922 21.1075 47.127 21.4682 47.127H36.1687C36.1757 47.1508 36.1817 47.1746 36.1888 47.1985C36.4339 48.042 36.9856 49.1776 38.2265 50.0152Z" fill="#FFA412"/>
<g id="Group_7">
<path id="Vector_18" d="M49.7805 47.1289H49.4248V50.0161H49.7805V47.1289Z" fill="#FFA412"/>
<path id="Vector_19" d="M48.5774 47.1289H48.2217V50.0161H48.5774V47.1289Z" fill="#FFA412"/>
<path id="Vector_20" d="M47.134 47.1289H46.7783V50.0161H47.134V47.1289Z" fill="#FFA412"/>
<path id="Vector_21" d="M44.9221 47.1289H44.5664V50.0161H44.9221V47.1289Z" fill="#FFA412"/>
<path id="Vector_22" d="M42.5832 47.1289H42.2275V50.0161H42.5832V47.1289Z" fill="#FFA412"/>
<path id="Vector_23" d="M38.9973 47.1289H38.6416V50.0161H38.9973V47.1289Z" fill="#FFA412"/>
<path id="Vector_24" d="M35.6389 47.1289H35.2832V50.0161H35.6389V47.1289Z" fill="#FFA412"/>
<path id="Vector_25" d="M32.6409 47.1289H32.2852V50.0161H32.6409V47.1289Z" fill="#FFA412"/>
<path id="Vector_26" d="M50.926 47.1289H50.5703V50.0161H50.926V47.1289Z" fill="#FFA412"/>
<path id="Vector_27" d="M51.6829 47.1289H51.3271V50.0161H51.6829V47.1289Z" fill="#FFA412"/>
<path id="Vector_28" d="M52.4143 47.1289H52.0586V50.0161H52.4143V47.1289Z" fill="#FFA412"/>
<path id="Vector_29" d="M52.9641 47.1388V50.0062C52.9209 50.0132 52.8767 50.0161 52.8305 50.0161H52.6084V47.1289H52.8305C52.8757 47.1289 52.9199 47.1319 52.9641 47.1388Z" fill="#FFA412"/>
<path id="Vector_30" d="M53.4573 47.4034V49.7363C53.3709 49.8416 53.2473 49.925 53.1016 49.9717V47.1689C53.2473 47.2146 53.3709 47.2981 53.4573 47.4034Z" fill="#FFA412"/>
</g>
</g>
<g id="Group_8">
<path id="Vector_31" d="M55.2033 44.9443V46.5747C55.2033 46.7049 55.1551 46.8251 55.0737 46.9255C54.9873 47.0308 54.8637 47.1142 54.718 47.1609C54.6738 47.1758 54.6276 47.1858 54.5793 47.1937C54.5361 47.2007 54.4919 47.2036 54.4457 47.2036H23.1648C23.0392 47.2036 22.9207 47.1778 22.8162 47.1321C22.5951 47.0357 22.4363 46.8509 22.4112 46.6353C22.4102 46.6264 22.4092 46.6165 22.4092 46.6075C22.4092 46.5966 22.4082 46.5857 22.4082 46.5747V44.9443C22.4082 44.9334 22.4082 44.9225 22.4092 44.9116C22.4293 44.5807 22.7619 44.3154 23.1648 44.3154H54.4467C54.4919 44.3154 54.5371 44.3184 54.5803 44.3254C54.6276 44.3323 54.6748 44.3432 54.719 44.3582C54.8637 44.4048 54.9883 44.4873 55.0747 44.5936C55.1551 44.694 55.2033 44.8142 55.2033 44.9443Z" fill="#FFB93E"/>
<path id="Vector_32" d="M39.8417 47.2027H23.0834C22.9709 47.2027 22.8654 47.1768 22.7719 47.1311C22.574 47.0348 22.4333 46.85 22.4112 46.6344C22.4102 46.6254 22.4092 46.6155 22.4092 46.6065C22.4092 46.5956 22.4082 46.5847 22.4082 46.5738V44.9434C22.4082 44.9324 22.4082 44.9215 22.4092 44.9106C22.4273 44.5797 22.7247 44.3145 23.0844 44.3145H37.7849C38.013 45.1411 38.5375 46.2757 39.7402 47.1311C39.7734 47.156 39.8076 47.1798 39.8417 47.2027Z" fill="#FFA412"/>
<g id="Group_9">
<path id="Vector_33" d="M51.3977 44.3164H51.042V47.2036H51.3977V44.3164Z" fill="#FFA412"/>
<path id="Vector_34" d="M50.1936 44.3164H49.8379V47.2036H50.1936V44.3164Z" fill="#FFA412"/>
<path id="Vector_35" d="M48.7502 44.3164H48.3945V47.2036H48.7502V44.3164Z" fill="#FFA412"/>
<path id="Vector_36" d="M46.5373 44.3164H46.1816V47.2036H46.5373V44.3164Z" fill="#FFA412"/>
<path id="Vector_37" d="M44.1985 44.3164H43.8428V47.2036H44.1985V44.3164Z" fill="#FFA412"/>
<path id="Vector_38" d="M40.6125 44.3164H40.2568V47.2036H40.6125V44.3164Z" fill="#FFA412"/>
<path id="Vector_39" d="M37.2551 44.3164H36.8994V47.2036H37.2551V44.3164Z" fill="#FFA412"/>
<path id="Vector_40" d="M34.2571 44.3164H33.9014V47.2036H34.2571V44.3164Z" fill="#FFA412"/>
<path id="Vector_41" d="M52.5422 44.3164H52.1865V47.2036H52.5422V44.3164Z" fill="#FFA412"/>
<path id="Vector_42" d="M53.2991 44.3164H52.9434V47.2036H53.2991V44.3164Z" fill="#FFA412"/>
<path id="Vector_43" d="M54.0295 44.3164H53.6738V47.2036H54.0295V44.3164Z" fill="#FFA412"/>
<path id="Vector_44" d="M54.5793 44.3263V47.1937C54.5361 47.2007 54.4919 47.2036 54.4457 47.2036H54.2236V44.3164H54.4457C54.4919 44.3164 54.5361 44.3204 54.5793 44.3263Z" fill="#FFA412"/>
<path id="Vector_45" d="M55.0735 44.5919V46.9247C54.9871 47.03 54.8635 47.1135 54.7178 47.1602V44.3574C54.8635 44.4041 54.9871 44.4866 55.0735 44.5919Z" fill="#FFA412"/>
</g>
</g>
<g id="Group_10">
<path id="Vector_46" d="M55.9523 42.0479V43.6783C55.9523 43.8084 55.9051 43.9286 55.8227 44.029C55.7363 44.1343 55.6127 44.2177 55.468 44.2644C55.4238 44.2793 55.3776 44.2893 55.3293 44.2972C55.2861 44.3042 55.2419 44.3072 55.1957 44.3072H23.9148C23.5119 44.3072 23.1793 44.0419 23.1592 43.711C23.1592 43.7001 23.1582 43.6892 23.1582 43.6783V42.0479C23.1582 42.0369 23.1582 42.026 23.1592 42.0151C23.1783 41.7091 23.4637 41.4597 23.8254 41.4229C23.8545 41.4199 23.8847 41.4189 23.9148 41.4189H55.1967C55.2419 41.4189 55.2871 41.4219 55.3303 41.4289C55.3776 41.4358 55.4248 41.4468 55.469 41.4617C55.6137 41.5084 55.7383 41.5908 55.8237 41.6971C55.9051 41.7975 55.9523 41.9187 55.9523 42.0479Z" fill="#FFB93E"/>
<path id="Vector_47" d="M40.5918 44.3072H23.8335C23.4737 44.3072 23.1773 44.0419 23.1582 43.711C23.1582 43.7001 23.1572 43.6892 23.1572 43.6783V42.0479C23.1572 42.0369 23.1572 42.026 23.1582 42.0151C23.1753 41.7091 23.4305 41.4597 23.7531 41.4229C23.7792 41.4199 23.8053 41.4189 23.8335 41.4189H38.5339C38.5339 41.4199 38.5349 41.4219 38.5349 41.4229C38.771 42.2734 39.3177 43.4468 40.5918 44.3072Z" fill="#FFA412"/>
<g id="Group_11">
<path id="Vector_48" d="M52.1457 41.4199H51.79V44.3071H52.1457V41.4199Z" fill="#FFA412"/>
<path id="Vector_49" d="M50.9436 41.4199H50.5879V44.3071H50.9436V41.4199Z" fill="#FFA412"/>
<path id="Vector_50" d="M49.5002 41.4199H49.1445V44.3071H49.5002V41.4199Z" fill="#FFA412"/>
<path id="Vector_51" d="M47.2883 41.4199H46.9326V44.3071H47.2883V41.4199Z" fill="#FFA412"/>
<path id="Vector_52" d="M44.9485 41.4199H44.5928V44.3071H44.9485V41.4199Z" fill="#FFA412"/>
<path id="Vector_53" d="M41.3625 41.4199H41.0068V44.3071H41.3625V41.4199Z" fill="#FFA412"/>
<path id="Vector_54" d="M38.0051 41.4199H37.6494V44.3071H38.0051V41.4199Z" fill="#FFA412"/>
<path id="Vector_55" d="M35.0071 41.4199H34.6514V44.3071H35.0071V41.4199Z" fill="#FFA412"/>
<path id="Vector_56" d="M53.2932 41.4199H52.9375V44.3071H53.2932V41.4199Z" fill="#FFA412"/>
<path id="Vector_57" d="M54.0491 41.4199H53.6934V44.3071H54.0491V41.4199Z" fill="#FFA412"/>
<path id="Vector_58" d="M54.7795 41.4199H54.4238V44.3071H54.7795V41.4199Z" fill="#FFA412"/>
<path id="Vector_59" d="M55.3293 41.4299V44.2972C55.2861 44.3042 55.2419 44.3071 55.1957 44.3071H54.9736V41.4199H55.1957C55.2419 41.4199 55.2861 41.4229 55.3293 41.4299Z" fill="#FFA412"/>
<path id="Vector_60" d="M55.8225 41.6944V44.0273C55.7361 44.1326 55.6125 44.216 55.4668 44.2627V41.46C55.6125 41.5057 55.7371 41.5891 55.8225 41.6944Z" fill="#FFA412"/>
</g>
</g>
<g id="Group_12">
<path id="Vector_61" d="M53.6535 39.169V40.7994C53.6535 40.9295 53.6063 41.0497 53.5239 41.1501C53.4375 41.2554 53.3139 41.3389 53.1692 41.3856C53.125 41.4005 53.0788 41.4114 53.0305 41.4183C53.0155 41.4203 53.0014 41.4223 52.9863 41.4243C52.9783 41.4253 52.9702 41.4253 52.9612 41.4263C52.9532 41.4273 52.9451 41.4273 52.9361 41.4273C52.923 41.4283 52.909 41.4283 52.8959 41.4283H21.615C21.2121 41.4283 20.8795 41.163 20.8594 40.8322C20.8594 40.8212 20.8584 40.8103 20.8584 40.7994V39.169C20.8584 39.158 20.8584 39.1471 20.8594 39.1362C20.8594 39.1272 20.8604 39.1183 20.8614 39.1094C20.8916 38.8431 21.1237 38.6235 21.4291 38.5589C21.4362 38.5569 21.4442 38.556 21.4522 38.554C21.5045 38.544 21.5598 38.5391 21.616 38.5391H52.8979C52.921 38.5391 52.9431 38.5401 52.9652 38.542C52.9753 38.543 52.9853 38.544 52.9954 38.545C53.0074 38.546 53.0185 38.548 53.0305 38.55C53.0778 38.557 53.125 38.5679 53.1692 38.5828C53.3139 38.6295 53.4385 38.7119 53.5239 38.8182C53.6053 38.9176 53.6535 39.0388 53.6535 39.169Z" fill="#FFB93E"/>
<path id="Vector_62" d="M38.292 41.4273H21.5337C21.1739 41.4273 20.8775 41.162 20.8584 40.8312C20.8584 40.8202 20.8574 40.8093 20.8574 40.7984V39.168C20.8574 39.1571 20.8574 39.1461 20.8584 39.1352C20.8584 39.1263 20.8594 39.1173 20.8604 39.1084C20.8876 38.8361 21.1036 38.6136 21.3849 38.554C21.395 38.551 21.404 38.55 21.4141 38.548C21.4533 38.5411 21.4925 38.5381 21.5337 38.5381H36.2341C36.2361 38.545 36.2381 38.552 36.2401 38.5589C36.4773 39.4054 37.0249 40.5669 38.2859 41.4213C38.2879 41.4243 38.2899 41.4263 38.292 41.4273Z" fill="#FFA412"/>
<g id="Group_13">
<path id="Vector_63" d="M49.8469 38.54H49.4912V41.4273H49.8469V38.54Z" fill="#FFA412"/>
<path id="Vector_64" d="M48.6428 38.54H48.2871V41.4273H48.6428V38.54Z" fill="#FFA412"/>
<path id="Vector_65" d="M47.1995 38.54H46.8438V41.4273H47.1995V38.54Z" fill="#FFA412"/>
<path id="Vector_66" d="M44.9875 38.54H44.6318V41.4273H44.9875V38.54Z" fill="#FFA412"/>
<path id="Vector_67" d="M42.6477 38.54H42.292V41.4273H42.6477V38.54Z" fill="#FFA412"/>
<path id="Vector_68" d="M39.0618 38.54H38.7061V41.4273H39.0618V38.54Z" fill="#FFA412"/>
<path id="Vector_69" d="M35.7043 38.54H35.3486V41.4273H35.7043V38.54Z" fill="#FFA412"/>
<path id="Vector_70" d="M32.7063 38.54H32.3506V41.4273H32.7063V38.54Z" fill="#FFA412"/>
<path id="Vector_71" d="M50.9924 38.54H50.6367V41.4273H50.9924V38.54Z" fill="#FFA412"/>
<path id="Vector_72" d="M51.7483 38.54H51.3926V41.4273H51.7483V38.54Z" fill="#FFA412"/>
<path id="Vector_73" d="M52.4797 38.54H52.124V41.4273H52.4797V38.54Z" fill="#FFA412"/>
<path id="Vector_74" d="M53.0286 38.55V41.4173C52.9853 41.4243 52.9411 41.4273 52.8949 41.4273H52.6729V38.54H52.8949C52.9411 38.54 52.9853 38.543 53.0286 38.55Z" fill="#FFA412"/>
<path id="Vector_75" d="M53.5237 38.8146V41.1474C53.4373 41.2527 53.3137 41.3362 53.168 41.3829V38.5801C53.3137 38.6258 53.4373 38.7092 53.5237 38.8146Z" fill="#FFA412"/>
</g>
</g>
<g id="Group_14">
<path id="Vector_76" d="M53.5871 36.3008V37.9312C53.5871 38.0614 53.5399 38.1816 53.4575 38.2819C53.3711 38.3872 53.2475 38.4707 53.1028 38.5174C53.0676 38.5293 53.0315 38.5382 52.9953 38.5442H52.9943C52.9842 38.5462 52.9742 38.5482 52.9641 38.5492C52.9209 38.5561 52.8767 38.5591 52.8305 38.5591H21.5486C21.5155 38.5591 21.4823 38.5571 21.4512 38.5532C21.4391 38.5522 21.426 38.5502 21.414 38.5482C21.0733 38.4975 20.8111 38.2551 20.793 37.963C20.793 37.9521 20.792 37.9411 20.792 37.9302V36.2998C20.792 36.2889 20.792 36.278 20.793 36.267C20.8131 35.9362 21.1457 35.6709 21.5486 35.6709H52.8305C52.8506 35.6709 52.8707 35.6719 52.8908 35.6729C52.8988 35.6739 52.9079 35.6739 52.9159 35.6749C52.9249 35.6759 52.935 35.6769 52.944 35.6779C52.9511 35.6788 52.9571 35.6798 52.9641 35.6808C53.0114 35.6878 53.0586 35.6987 53.1028 35.7136C53.1098 35.7156 53.1159 35.7176 53.1229 35.7206C53.1289 35.7226 53.136 35.7246 53.142 35.7275C53.155 35.7325 53.1671 35.7375 53.1802 35.7424C53.1942 35.7484 53.2073 35.7553 53.2214 35.7623C53.2334 35.7683 53.2455 35.7742 53.2565 35.7812C53.2696 35.7891 53.2827 35.7971 53.2957 35.805C53.3058 35.811 53.3158 35.8179 53.3249 35.8249C53.3249 35.8249 53.3259 35.8259 53.3269 35.8259C53.3329 35.8309 53.3399 35.8348 53.346 35.8398C53.3651 35.8547 53.3831 35.8706 53.4012 35.8865C53.4062 35.8915 53.4113 35.8964 53.4163 35.9014C53.4213 35.9064 53.4263 35.9113 53.4314 35.9163C53.4414 35.9272 53.4505 35.9372 53.4595 35.9481C53.5399 36.0504 53.5871 36.1707 53.5871 36.3008Z" fill="#FFB93E"/>
<path id="Vector_77" d="M38.2265 38.5601H21.4682C21.4552 38.5601 21.4411 38.5601 21.428 38.5591C21.413 38.5581 21.3989 38.5571 21.3848 38.5551C21.0623 38.5184 20.8091 38.269 20.793 37.964C20.793 37.953 20.792 37.9421 20.792 37.9312V36.3008C20.792 36.2899 20.792 36.2789 20.793 36.268C20.8111 35.9371 21.1075 35.6719 21.4682 35.6719H36.1687C36.1757 35.6957 36.1817 35.7196 36.1888 35.7434C36.4319 36.58 36.9765 37.7027 38.1964 38.5392C38.2064 38.5462 38.2165 38.5531 38.2265 38.5601Z" fill="#FFA412"/>
<g id="Group_15">
<path id="Vector_78" d="M49.7805 35.6719H49.4248V38.5591H49.7805V35.6719Z" fill="#FFA412"/>
<path id="Vector_79" d="M48.5774 35.6719H48.2217V38.5591H48.5774V35.6719Z" fill="#FFA412"/>
<path id="Vector_80" d="M47.134 35.6719H46.7783V38.5591H47.134V35.6719Z" fill="#FFA412"/>
<path id="Vector_81" d="M44.9221 35.6719H44.5664V38.5591H44.9221V35.6719Z" fill="#FFA412"/>
<path id="Vector_82" d="M42.5832 35.6719H42.2275V38.5591H42.5832V35.6719Z" fill="#FFA412"/>
<path id="Vector_83" d="M38.9973 35.6719H38.6416V38.5591H38.9973V35.6719Z" fill="#FFA412"/>
<path id="Vector_84" d="M35.6389 35.6719H35.2832V38.5591H35.6389V35.6719Z" fill="#FFA412"/>
<path id="Vector_85" d="M32.6409 35.6719H32.2852V38.5591H32.6409V35.6719Z" fill="#FFA412"/>
<path id="Vector_86" d="M50.926 35.6719H50.5703V38.5591H50.926V35.6719Z" fill="#FFA412"/>
<path id="Vector_87" d="M51.6829 35.6719H51.3271V38.5591H51.6829V35.6719Z" fill="#FFA412"/>
<path id="Vector_88" d="M52.4143 35.6719H52.0586V38.5591H52.4143V35.6719Z" fill="#FFA412"/>
<path id="Vector_89" d="M52.9641 35.6818V38.5492C52.9209 38.5561 52.8767 38.5591 52.8305 38.5591H52.6084V35.6719H52.8305C52.8757 35.6719 52.9199 35.6758 52.9641 35.6818Z" fill="#FFA412"/>
<path id="Vector_90" d="M53.4573 35.9483V38.2812C53.3709 38.3865 53.2473 38.4699 53.1016 38.5166V35.7139C53.2473 35.7596 53.3709 35.842 53.4573 35.9483Z" fill="#FFA412"/>
</g>
</g>
<g id="Group_16">
<path id="Vector_91" d="M55.2033 33.4844V35.1148C55.2033 35.2449 55.1551 35.3651 55.0737 35.4655C54.9873 35.5708 54.8637 35.6543 54.718 35.701C54.6738 35.7159 54.6276 35.7268 54.5793 35.7337C54.5361 35.7407 54.4919 35.7437 54.4457 35.7437H23.1648C23.0392 35.7437 22.9207 35.7179 22.8162 35.6721C22.5951 35.5758 22.4363 35.391 22.4112 35.1754C22.4102 35.1664 22.4092 35.1565 22.4092 35.1476C22.4092 35.1366 22.4082 35.1257 22.4082 35.1148V33.4844C22.4082 33.4734 22.4082 33.4625 22.4092 33.4516C22.4293 33.1207 22.7619 32.8555 23.1648 32.8555H54.4467C54.4919 32.8555 54.5371 32.8594 54.5803 32.8654C54.6276 32.8724 54.6748 32.8833 54.719 32.8982C54.8637 32.9449 54.9883 33.0273 55.0747 33.1337C55.1551 33.234 55.2033 33.3542 55.2033 33.4844Z" fill="#FFB93E"/>
<path id="Vector_92" d="M39.8417 35.7437H23.0834C22.9709 35.7437 22.8654 35.7179 22.7719 35.6721C22.574 35.5758 22.4333 35.391 22.4112 35.1754C22.4102 35.1664 22.4092 35.1565 22.4092 35.1476C22.4092 35.1366 22.4082 35.1257 22.4082 35.1148V33.4844C22.4082 33.4734 22.4082 33.4625 22.4092 33.4516C22.4273 33.1207 22.7247 32.8555 23.0844 32.8555H37.7849C38.013 33.6821 38.5375 34.8177 39.7402 35.6721C39.7734 35.696 39.8076 35.7198 39.8417 35.7437Z" fill="#FFA412"/>
<g id="Group_17">
<path id="Vector_93" d="M51.3967 32.8564H51.041V35.7437H51.3967V32.8564Z" fill="#FFA412"/>
<path id="Vector_94" d="M50.1936 32.8564H49.8379V35.7437H50.1936V32.8564Z" fill="#FFA412"/>
<path id="Vector_95" d="M48.7502 32.8564H48.3945V35.7437H48.7502V32.8564Z" fill="#FFA412"/>
<path id="Vector_96" d="M46.5373 32.8564H46.1816V35.7437H46.5373V32.8564Z" fill="#FFA412"/>
<path id="Vector_97" d="M44.1985 32.8564H43.8428V35.7437H44.1985V32.8564Z" fill="#FFA412"/>
<path id="Vector_98" d="M40.6125 32.8564H40.2568V35.7437H40.6125V32.8564Z" fill="#FFA412"/>
<path id="Vector_99" d="M37.2551 32.8564H36.8994V35.7437H37.2551V32.8564Z" fill="#FFA412"/>
<path id="Vector_100" d="M34.2571 32.8564H33.9014V35.7437H34.2571V32.8564Z" fill="#FFA412"/>
<path id="Vector_101" d="M52.5432 32.8564H52.1875V35.7437H52.5432V32.8564Z" fill="#FFA412"/>
<path id="Vector_102" d="M53.2991 32.8564H52.9434V35.7437H53.2991V32.8564Z" fill="#FFA412"/>
<path id="Vector_103" d="M54.0295 32.8564H53.6738V35.7437H54.0295V32.8564Z" fill="#FFA412"/>
<path id="Vector_104" d="M54.5784 32.8664V35.7337C54.5352 35.7407 54.4909 35.7437 54.4447 35.7437H54.2227V32.8564H54.4447C54.4909 32.8564 54.5352 32.8594 54.5784 32.8664Z" fill="#FFA412"/>
<path id="Vector_105" d="M55.0735 33.1319V35.4648C54.9871 35.5701 54.8635 35.6535 54.7178 35.7002V32.8975C54.8635 32.9432 54.9871 33.0266 55.0735 33.1319Z" fill="#FFA412"/>
</g>
</g>
<g id="Group_18">
<path id="Vector_106" d="M57.76 30.5928V32.2232C57.76 32.3533 57.7127 32.4735 57.6303 32.5739C57.5439 32.6792 57.4203 32.7627 57.2756 32.8094C57.2314 32.8243 57.1852 32.8352 57.137 32.8421C57.0938 32.8491 57.0496 32.8521 57.0033 32.8521H25.7215C25.3185 32.8521 24.9859 32.5868 24.9658 32.256C24.9658 32.245 24.9648 32.2341 24.9648 32.2232V30.5928C24.9648 30.5818 24.9648 30.5709 24.9658 30.56C24.9849 30.254 25.2703 30.0046 25.632 29.9688C25.6612 29.9659 25.6913 29.9639 25.7215 29.9639H57.0033C57.0486 29.9639 57.0938 29.9678 57.137 29.9738C57.1842 29.9808 57.2314 29.9917 57.2756 30.0066C57.4203 30.0533 57.5449 30.1358 57.6303 30.2421C57.7117 30.3424 57.76 30.4626 57.76 30.5928Z" fill="#FFB93E"/>
<path id="Vector_107" d="M42.3984 32.8521H25.6401C25.2804 32.8521 24.984 32.5868 24.9649 32.256C24.9649 32.245 24.9639 32.2341 24.9639 32.2232V30.5928C24.9639 30.5818 24.9639 30.5709 24.9649 30.56C24.982 30.254 25.2372 30.0046 25.5597 29.9688C25.5858 29.9659 25.612 29.9639 25.6401 29.9639H40.3405C40.3405 29.9649 40.3415 29.9668 40.3415 29.9688C40.5777 30.8183 41.1253 31.9917 42.3984 32.8521Z" fill="#FFA412"/>
<g id="Group_19">
<path id="Vector_108" d="M53.9534 29.9639H53.5977V32.8511H53.9534V29.9639Z" fill="#FFA412"/>
<path id="Vector_109" d="M52.7502 29.9639H52.3945V32.8511H52.7502V29.9639Z" fill="#FFA412"/>
<path id="Vector_110" d="M51.3069 29.9639H50.9512V32.8511H51.3069V29.9639Z" fill="#FFA412"/>
<path id="Vector_111" d="M49.094 29.9639H48.7383V32.8511H49.094V29.9639Z" fill="#FFA412"/>
<path id="Vector_112" d="M46.7551 29.9639H46.3994V32.8511H46.7551V29.9639Z" fill="#FFA412"/>
<path id="Vector_113" d="M43.1702 29.9639H42.8145V32.8511H43.1702V29.9639Z" fill="#FFA412"/>
<path id="Vector_114" d="M39.8118 29.9639H39.4561V32.8511H39.8118V29.9639Z" fill="#FFA412"/>
<path id="Vector_115" d="M36.8137 29.9639H36.458V32.8511H36.8137V29.9639Z" fill="#FFA412"/>
<path id="Vector_116" d="M55.0989 29.9639H54.7432V32.8511H55.0989V29.9639Z" fill="#FFA412"/>
<path id="Vector_117" d="M55.8557 29.9639H55.5V32.8511H55.8557V29.9639Z" fill="#FFA412"/>
<path id="Vector_118" d="M56.5862 29.9639H56.2305V32.8511H56.5862V29.9639Z" fill="#FFA412"/>
<path id="Vector_119" d="M57.137 29.9738V32.8412C57.0937 32.8481 57.0495 32.8511 57.0033 32.8511H56.7812V29.9639H57.0033C57.0485 29.9639 57.0927 29.9678 57.137 29.9738Z" fill="#FFA412"/>
<path id="Vector_120" d="M57.6301 30.2394V32.5722C57.5437 32.6775 57.4201 32.761 57.2744 32.8077V30.0049C57.4201 30.0506 57.5437 30.1331 57.6301 30.2394Z" fill="#FFA412"/>
</g>
</g>
<g id="Group_20">
<path id="Vector_121" d="M53.6545 27.7129V29.3433C53.6545 29.4734 53.6073 29.5936 53.5249 29.694C53.4385 29.7993 53.3149 29.8828 53.1702 29.9295C53.126 29.9444 53.0797 29.9543 53.0315 29.9623C53.0164 29.9642 53.0024 29.9662 52.9873 29.9682C52.9752 29.9692 52.9642 29.9702 52.9521 29.9712C52.9461 29.9712 52.9401 29.9722 52.935 29.9722C52.923 29.9722 52.9109 29.9732 52.8979 29.9732H21.616C21.2131 29.9732 20.8805 29.7079 20.8604 29.3771C20.8604 29.3661 20.8594 29.3552 20.8594 29.3443V27.7139C20.8594 27.7029 20.8594 27.692 20.8604 27.6811C20.8805 27.3502 21.2131 27.085 21.616 27.085H52.8979C52.9109 27.085 52.925 27.085 52.9381 27.086C52.9702 27.0869 53.0004 27.0899 53.0315 27.0949C53.0787 27.1019 53.126 27.1128 53.1702 27.1277C53.1923 27.1346 53.2154 27.1426 53.2355 27.1515C53.2486 27.1575 53.2616 27.1625 53.2747 27.1694C53.2757 27.1694 53.2777 27.1704 53.2787 27.1714C53.2918 27.1774 53.3038 27.1843 53.3169 27.1913C53.3189 27.1923 53.3219 27.1933 53.3229 27.1952C53.335 27.2012 53.346 27.2082 53.3571 27.2161C53.3842 27.233 53.4093 27.2509 53.4324 27.2708C53.4405 27.2767 53.4475 27.2827 53.4535 27.2896C53.4545 27.2906 53.4565 27.2916 53.4576 27.2936C53.4626 27.2976 53.4666 27.3016 53.4706 27.3055C53.4716 27.3065 53.4726 27.3075 53.4736 27.3075C53.4807 27.3145 53.4887 27.3224 53.4957 27.3304C53.5058 27.3413 53.5158 27.3522 53.5259 27.3641C53.6063 27.4625 53.6545 27.5827 53.6545 27.7129Z" fill="#FFB93E"/>
<path id="Vector_122" d="M38.292 29.9712H21.5337C21.1739 29.9712 20.8775 29.706 20.8584 29.3751C20.8584 29.3642 20.8574 29.3532 20.8574 29.3423V27.7119C20.8574 27.701 20.8574 27.6901 20.8584 27.6791C20.8765 27.3483 21.1739 27.083 21.5337 27.083H36.2341C36.2401 27.1049 36.2461 27.1267 36.2532 27.1496C36.4974 27.9921 37.047 29.1267 38.2849 29.9663C38.2879 29.9682 38.2899 29.9702 38.292 29.9712Z" fill="#FFA412"/>
<g id="Group_21">
<path id="Vector_123" d="M49.8469 27.085H49.4912V29.9722H49.8469V27.085Z" fill="#FFA412"/>
<path id="Vector_124" d="M48.6438 27.085H48.2881V29.9722H48.6438V27.085Z" fill="#FFA412"/>
<path id="Vector_125" d="M47.2004 27.085H46.8447V29.9722H47.2004V27.085Z" fill="#FFA412"/>
<path id="Vector_126" d="M44.9885 27.085H44.6328V29.9722H44.9885V27.085Z" fill="#FFA412"/>
<path id="Vector_127" d="M42.6487 27.085H42.293V29.9722H42.6487V27.085Z" fill="#FFA412"/>
<path id="Vector_128" d="M39.0627 27.085H38.707V29.9722H39.0627V27.085Z" fill="#FFA412"/>
<path id="Vector_129" d="M35.7053 27.085H35.3496V29.9722H35.7053V27.085Z" fill="#FFA412"/>
<path id="Vector_130" d="M32.7073 27.085H32.3516V29.9722H32.7073V27.085Z" fill="#FFA412"/>
<path id="Vector_131" d="M50.9934 27.085H50.6377V29.9722H50.9934V27.085Z" fill="#FFA412"/>
<path id="Vector_132" d="M51.7493 27.085H51.3936V29.9722H51.7493V27.085Z" fill="#FFA412"/>
<path id="Vector_133" d="M52.4797 27.085H52.124V29.9722H52.4797V27.085Z" fill="#FFA412"/>
<path id="Vector_134" d="M53.0295 27.0949V29.9623C52.9863 29.9692 52.9421 29.9722 52.8959 29.9722H52.6738V27.085H52.8959C52.9421 27.085 52.9863 27.0879 53.0295 27.0949Z" fill="#FFA412"/>
<path id="Vector_135" d="M53.5237 27.3605V29.6933C53.4373 29.7986 53.3137 29.8821 53.168 29.9287V27.126C53.3137 27.1717 53.4373 27.2551 53.5237 27.3605Z" fill="#FFA412"/>
</g>
</g>
<g id="Group_22">
<path id="Vector_136" d="M55.9523 24.8945V26.5249C55.9523 26.6551 55.9051 26.7753 55.8227 26.8757C55.7363 26.981 55.6127 27.0644 55.468 27.1111C55.4238 27.126 55.3776 27.136 55.3293 27.1439C55.2861 27.1509 55.2419 27.1538 55.1957 27.1538H23.9148C23.7932 27.1538 23.6787 27.13 23.5772 27.0873C23.3491 26.9929 23.1863 26.8041 23.1612 26.5836C23.1602 26.5756 23.1592 26.5667 23.1592 26.5577C23.1592 26.5468 23.1582 26.5359 23.1582 26.5249V24.8945C23.1582 24.8836 23.1582 24.8727 23.1592 24.8617C23.1783 24.5557 23.4637 24.3064 23.8254 24.2696C23.8545 24.2666 23.8847 24.2656 23.9148 24.2656H55.1967C55.2419 24.2656 55.2871 24.2686 55.3303 24.2756C55.3776 24.2825 55.4248 24.2934 55.469 24.3074C55.6137 24.3541 55.7383 24.4365 55.8237 24.5428C55.9051 24.6442 55.9523 24.7644 55.9523 24.8945Z" fill="#FFB93E"/>
<path id="Vector_137" d="M40.5917 27.1538H23.8334C23.7249 27.1538 23.6224 27.13 23.532 27.0873C23.328 26.9929 23.1833 26.8041 23.1612 26.5836C23.1602 26.5756 23.1592 26.5667 23.1592 26.5577C23.1592 26.5468 23.1582 26.5359 23.1582 26.5249V24.8945C23.1582 24.8836 23.1582 24.8727 23.1592 24.8617C23.1763 24.5557 23.4315 24.3064 23.7541 24.2696C23.7802 24.2666 23.8063 24.2656 23.8344 24.2656H38.5349C38.5349 24.2666 38.5359 24.2686 38.5359 24.2696C38.765 25.0972 39.2915 26.2328 40.4963 27.0863C40.5274 27.1091 40.5596 27.132 40.5917 27.1538Z" fill="#FFA412"/>
<g id="Group_23">
<path id="Vector_138" d="M52.1467 24.2656H51.791V27.1528H52.1467V24.2656Z" fill="#FFA412"/>
<path id="Vector_139" d="M50.9436 24.2656H50.5879V27.1528H50.9436V24.2656Z" fill="#FFA412"/>
<path id="Vector_140" d="M49.5002 24.2656H49.1445V27.1528H49.5002V24.2656Z" fill="#FFA412"/>
<path id="Vector_141" d="M47.2873 24.2656H46.9316V27.1528H47.2873V24.2656Z" fill="#FFA412"/>
<path id="Vector_142" d="M44.9485 24.2656H44.5928V27.1528H44.9485V24.2656Z" fill="#FFA412"/>
<path id="Vector_143" d="M41.3625 24.2656H41.0068V27.1528H41.3625V24.2656Z" fill="#FFA412"/>
<path id="Vector_144" d="M38.0051 24.2656H37.6494V27.1528H38.0051V24.2656Z" fill="#FFA412"/>
<path id="Vector_145" d="M35.0071 24.2656H34.6514V27.1528H35.0071V24.2656Z" fill="#FFA412"/>
<path id="Vector_146" d="M53.2932 24.2656H52.9375V27.1528H53.2932V24.2656Z" fill="#FFA412"/>
<path id="Vector_147" d="M54.0491 24.2656H53.6934V27.1528H54.0491V24.2656Z" fill="#FFA412"/>
<path id="Vector_148" d="M54.7795 24.2656H54.4238V27.1528H54.7795V24.2656Z" fill="#FFA412"/>
<path id="Vector_149" d="M55.3293 24.2756V27.1429C55.2861 27.1499 55.2419 27.1528 55.1957 27.1528H54.9736V24.2656H55.1957C55.2419 24.2656 55.2861 24.2696 55.3293 24.2756Z" fill="#FFA412"/>
<path id="Vector_150" d="M55.8225 24.5421V26.8749C55.7361 26.9802 55.6125 27.0637 55.4668 27.1104V24.3076C55.6125 24.3533 55.7371 24.4358 55.8225 24.5421Z" fill="#FFA412"/>
</g>
</g>
<g id="Group_24">
<path id="Vector_151" d="M56.9318 22.0049V23.6353C56.9318 23.7654 56.8846 23.8857 56.8022 23.986C56.7158 24.0913 56.5922 24.1748 56.4475 24.2215C56.4033 24.2364 56.3571 24.2473 56.3089 24.2543C56.2938 24.2562 56.2797 24.2582 56.2646 24.2602C56.2566 24.2612 56.2486 24.2612 56.2395 24.2622C56.2315 24.2632 56.2234 24.2632 56.2144 24.2632C56.2013 24.2642 56.1873 24.2642 56.1742 24.2642H24.8933C24.4904 24.2642 24.1578 23.9989 24.1377 23.6681C24.1377 23.6571 24.1367 23.6462 24.1367 23.6353V22.0049C24.1367 21.994 24.1367 21.983 24.1377 21.9721C24.1578 21.6413 24.4904 21.376 24.8933 21.376H56.1752C56.2204 21.376 56.2657 21.38 56.3089 21.3859C56.3561 21.3929 56.4033 21.4038 56.4475 21.4187C56.5922 21.4654 56.7168 21.5479 56.8022 21.6542C56.8836 21.7545 56.9318 21.8747 56.9318 22.0049Z" fill="#FFB93E"/>
<path id="Vector_152" d="M41.5703 24.2642H24.812C24.4523 24.2642 24.1558 23.9989 24.1367 23.6681C24.1367 23.6571 24.1357 23.6462 24.1357 23.6353V22.0049C24.1357 21.994 24.1357 21.983 24.1367 21.9721C24.1548 21.6413 24.4523 21.376 24.812 21.376H39.5124C39.7465 22.2245 40.2921 23.3978 41.5642 24.2592C41.5663 24.2612 41.5683 24.2622 41.5703 24.2642Z" fill="#FFA412"/>
<g id="Group_25">
<path id="Vector_153" d="M53.1252 21.377H52.7695V24.2642H53.1252V21.377Z" fill="#FFA412"/>
<path id="Vector_154" d="M51.9221 21.377H51.5664V24.2642H51.9221V21.377Z" fill="#FFA412"/>
<path id="Vector_155" d="M50.4787 21.377H50.123V24.2642H50.4787V21.377Z" fill="#FFA412"/>
<path id="Vector_156" d="M48.2659 21.377H47.9102V24.2642H48.2659V21.377Z" fill="#FFA412"/>
<path id="Vector_157" d="M45.927 21.377H45.5713V24.2642H45.927V21.377Z" fill="#FFA412"/>
<path id="Vector_158" d="M42.3411 21.377H41.9854V24.2642H42.3411V21.377Z" fill="#FFA412"/>
<path id="Vector_159" d="M38.9836 21.377H38.6279V24.2642H38.9836V21.377Z" fill="#FFA412"/>
<path id="Vector_160" d="M35.9856 21.377H35.6299V24.2642H35.9856V21.377Z" fill="#FFA412"/>
<path id="Vector_161" d="M54.2707 21.377H53.915V24.2642H54.2707V21.377Z" fill="#FFA412"/>
<path id="Vector_162" d="M55.0276 21.377H54.6719V24.2642H55.0276V21.377Z" fill="#FFA412"/>
<path id="Vector_163" d="M55.7581 21.377H55.4023V24.2642H55.7581V21.377Z" fill="#FFA412"/>
<path id="Vector_164" d="M56.3079 21.3869V24.2542C56.2646 24.2612 56.2204 24.2642 56.1742 24.2642H55.9521V21.377H56.1742C56.2204 21.377 56.2646 21.3799 56.3079 21.3869Z" fill="#FFA412"/>
<path id="Vector_165" d="M56.802 21.6524V23.9853C56.7156 24.0906 56.592 24.174 56.4463 24.2207V21.418C56.592 21.4637 56.7156 21.5471 56.802 21.6524Z" fill="#FFA412"/>
</g>
</g>
</g>
<path id="Vector_166" d="M32.8338 48.6046C38.6397 42.8638 38.6397 33.5561 32.8338 27.8153C27.0278 22.0745 17.6145 22.0745 11.8085 27.8153C6.00256 33.5561 6.00256 42.8638 11.8085 48.6046C17.6145 54.3454 27.0278 54.3454 32.8338 48.6046Z" fill="#E2810E"/>
<path id="Vector_167" d="M31.5379 48.6036C37.3438 42.8628 37.3438 33.5551 31.5379 27.8143C25.7319 22.0735 16.3186 22.0735 10.5126 27.8143C4.70666 33.5551 4.70666 42.8628 10.5126 48.6036C16.3186 54.3444 25.7319 54.3444 31.5379 48.6036Z" fill="#FFB93E"/>
<path id="Vector_168" d="M15.1859 35.0078C16.069 34.7788 16.9521 34.5533 17.8335 34.319C17.9936 34.2771 18.1132 34.1704 18.2064 34.0254C19.0209 32.772 19.8389 31.5221 20.6605 30.274C21 29.7584 21.3642 29.7566 21.7019 30.267C22.5006 31.4715 23.2922 32.6776 24.0874 33.8838C24.149 35.3836 23.9484 36.8625 23.7127 38.3361C23.4259 40.1156 22.9298 41.8374 22.2103 43.4946C22.1118 43.7201 22.0467 43.97 21.8268 44.1256C21.1531 43.6956 20.5743 44.1344 19.985 44.3459C18.8767 44.7427 17.786 45.1849 16.683 45.594C16.0972 45.8107 15.8456 45.6359 15.8614 45.0224C15.8948 43.5942 15.9705 42.1678 16.0848 40.7449C16.1077 40.4495 16.0743 40.1768 15.8649 39.9425C15.4515 39.4775 15.1173 38.9461 14.6634 38.5144C14.2307 37.8746 13.6976 37.3117 13.2297 36.6981C13.154 36.5985 13.0749 36.5024 12.9992 36.4027C12.7107 36.0146 12.8339 35.6615 13.3053 35.5287C13.9316 35.3556 14.5596 35.1826 15.1859 35.0078Z" fill="#C75929"/>
<path id="Vector_169" d="M21.7881 44.1199C22.1515 43.2579 22.5379 42.4027 22.8149 41.5077C23.2083 40.2398 23.4994 38.9493 23.6828 37.6345C23.8434 36.4793 23.9563 35.3223 23.9792 34.1567C23.981 34.0821 23.9863 34.0093 24.0551 33.959C24.2262 34.2382 24.475 34.3874 24.8013 34.4689C26.1739 34.8141 27.5429 35.1749 28.9119 35.5339C29.6053 35.7161 29.7041 36.0751 29.2418 36.6336C28.3297 37.7333 27.4318 38.8434 26.5197 39.9431C26.3415 40.1582 26.278 40.3664 26.3062 40.6508C26.3591 41.1764 26.3521 41.7089 26.3838 42.2379C26.4368 43.1729 26.465 44.1095 26.5426 45.0427C26.5797 45.4919 26.2056 45.7955 25.7964 45.6428C24.4573 45.1398 23.1236 44.6281 21.7881 44.1199Z" fill="#B84029"/>
<path id="Vector_170" d="M21.0263 51.776C17.408 51.776 14.0067 50.3831 11.4485 47.8535C8.8902 45.324 7.48145 41.9609 7.48145 38.3831C7.48145 34.8054 8.8902 31.4423 11.4485 28.9127C14.0067 26.3832 17.408 24.9902 21.0263 24.9902C24.6447 24.9902 28.046 26.3832 30.6042 28.9127C33.1625 31.4423 34.5712 34.8054 34.5712 38.3831C34.5712 41.9609 33.1625 45.324 30.6042 47.8535C28.046 50.3831 24.6437 51.776 21.0263 51.776ZM21.0263 25.789C14.0027 25.789 8.28932 31.4393 8.28932 38.3831C8.28932 45.328 14.0037 50.9772 21.0263 50.9772C28.05 50.9772 33.7634 45.327 33.7634 38.3831C33.7634 31.4383 28.049 25.789 21.0263 25.789Z" fill="#FFA412"/>
</g>
<g id="Group_26">
<path id="Vector_171" d="M49.9999 3.39717C49.9999 3.39717 48.1973 5.90685 46.5444 5.94163C44.8915 5.9764 42.3774 4.77819 42.3774 4.77819C42.3774 4.77819 40.8601 1.43394 41.8891 0.126444C41.8891 0.126444 42.921 -0.321642 44.0002 0.469215C44.1851 0.606323 44.374 0.777212 44.5589 0.998771C44.8201 1.30975 45.1145 1.48759 45.426 1.57999C46.6057 1.93469 48.0054 1.10011 48.5289 1.90587C48.8344 2.37383 49.1669 2.72554 49.4403 2.97293C49.7648 3.25708 49.9999 3.39717 49.9999 3.39717Z" fill="#FFEDDC"/>
<path id="Vector_172" d="M26.5 21.4953C26.5 21.4953 32.8715 6.23056 44.3395 5.93945C44.3395 5.93945 54.9252 7.10289 55.514 21.4953H26.5Z" fill="#FFEDDC"/>
<path id="Vector_173" d="M41.1972 6.40913C41.1972 6.40913 45.7943 7.41956 47.2121 6.82642C47.2121 6.82642 47.4261 4.92578 45.4908 5.19205C44.1655 5.37486 43.3023 4.74495 42.7949 4.48961C42.0765 4.12697 41.0063 5.61331 41.1972 6.40913Z" fill="#DB6A1D"/>
<path id="Vector_174" d="M45.1977 3.54665C44.9033 3.76423 44.001 0.473633 44.001 0.473633C44.1859 0.610741 44.3748 0.78163 44.5597 1.00319C44.8209 1.31417 45.1153 1.49201 45.4268 1.58441C45.4308 1.67979 45.4831 3.33403 45.1977 3.54665Z" fill="#E5C1A1"/>
<path id="Vector_175" d="M49.4411 2.97429C49.3768 3.01204 47.2506 4.27085 46.9622 4.27085C46.6678 4.27085 48.5297 1.90723 48.5297 1.90723C48.8352 2.37518 49.1678 2.7269 49.4411 2.97429Z" fill="#E5C1A1"/>
<path id="Vector_176" d="M32.7239 17.2353C32.6063 17.1359 37.2325 10.4991 38.5066 10.4504C39.7807 10.4017 42.6434 11.9039 44.7163 12.0977C46.7893 12.2914 48.7989 11.7102 49.1908 12.9213C49.5826 14.1324 50.6608 18.4275 49.9996 19.115C49.3385 19.8036 35.2681 19.3843 32.7239 17.2353Z" fill="#F9DDBF"/>
</g>
</g>
</svg>
