<svg width="32" height="32" viewBox="0 0 32 32" fill="none" xmlns="http://www.w3.org/2000/svg">
<path d="M20.0804 24.942C20.608 24.942 21.0357 24.5142 21.0357 23.9866C21.0357 23.459 20.608 23.0312 20.0804 23.0312C19.5527 23.0312 19.125 23.459 19.125 23.9866C19.125 24.5142 19.5527 24.942 20.0804 24.942Z" fill="white"/>
<path d="M26.2151 24.942C26.7428 24.942 27.1705 24.5142 27.1705 23.9866C27.1705 23.459 26.7428 23.0312 26.2151 23.0312C25.6875 23.0312 25.2598 23.459 25.2598 23.9866C25.2598 24.5142 25.6875 24.942 26.2151 24.942Z" fill="white"/>
<path d="M16.0466 7.91018C16.362 8.45357 16.6764 8.9975 16.9912 9.54143C17.0159 9.62404 17.0851 9.58703 17.1334 9.58703C19.6481 9.58918 22.1629 9.5881 24.6781 9.58971C24.9099 9.58971 25.1405 9.57576 25.3739 9.58166C26.1667 9.60044 26.9601 9.58757 27.7534 9.58703C27.7529 9.58113 27.7524 9.57523 27.7518 9.56932C27.7577 9.56503 27.7631 9.5586 27.7658 9.5484C27.7668 8.77918 27.7663 8.00941 27.7663 7.24019C27.7663 7.06531 27.7808 7.08677 27.6097 7.08677C23.6579 7.08623 19.7055 7.08677 15.7537 7.08677C15.7215 7.08677 15.6893 7.0857 15.6572 7.08731C15.5976 7.08945 15.5922 7.12271 15.6116 7.16938C15.7564 7.41613 15.9028 7.66235 16.0466 7.91018Z" fill="#0A9494"/>
<path d="M26.4545 13.2578C25.2583 13.261 24.0616 13.26 22.8653 13.26C22.6642 13.26 22.4625 13.26 22.2613 13.26C21.2625 13.26 20.2632 13.26 19.2643 13.2594C19.1935 13.2594 19.126 13.2498 19.1893 13.3592C19.6238 14.108 20.055 14.859 20.4863 15.6095C20.5346 15.6937 20.5893 15.7377 20.7009 15.7371C22.6186 15.7323 24.5358 15.7323 26.4535 15.7366C26.5731 15.7366 26.5924 15.6937 26.5919 15.5891C26.5881 14.8558 26.5876 14.1225 26.5924 13.3898C26.5935 13.2793 26.5575 13.2578 26.4545 13.2578Z" fill="#0A9494"/>
<path d="M27.7518 19.4328C27.7196 19.4307 27.6879 19.4259 27.6557 19.4259C26.0191 19.4253 24.383 19.4259 22.7464 19.4259H20.7649C20.4977 19.4259 20.2306 19.4259 19.9635 19.4264C19.897 19.4264 19.8503 19.4205 19.809 19.3475C19.4619 18.736 19.1068 18.1293 18.7538 17.521C18.4347 16.9707 18.1139 16.4203 17.7953 15.8694C17.3919 15.171 16.9906 14.472 16.5878 13.7731C16.2638 13.2114 15.9387 12.6498 15.6142 12.0882C15.2151 11.3967 14.8154 10.7053 14.4169 10.0133C14.1353 9.52407 13.8547 9.03378 13.5736 8.54456C13.3081 8.08271 13.042 7.62192 12.776 7.1606C12.7502 7.11608 12.7363 7.0973 12.6993 7.16221C12.4911 7.52858 12.2744 7.89013 12.0636 8.25543C11.6876 8.90611 11.3148 9.5584 10.9393 10.2091C10.5901 10.8142 10.2371 11.4176 9.88788 12.0233C9.51238 12.6739 9.13957 13.3268 8.76354 13.978C8.41379 14.5841 8.06083 15.1881 7.71108 15.7943C7.30769 16.4927 6.90323 17.1906 6.50575 17.8922C6.39739 18.0837 6.2606 18.2591 6.1796 18.4657C6.10772 18.5338 6.05301 18.6121 6.03799 18.713C5.77192 19.1673 5.50425 19.6206 5.24033 20.0765C4.91204 20.6435 4.58643 21.2127 4.25975 21.7808C4.24205 21.8113 4.20611 21.8403 4.22328 21.8773C4.24259 21.9181 4.28818 21.8972 4.32144 21.8977C4.75272 21.8993 5.184 21.8988 5.61529 21.8988C8.89174 21.8988 12.1687 21.8988 15.4452 21.8977C15.4833 21.8977 15.5369 21.9191 15.5562 21.8789C15.5713 21.8478 15.5364 21.8086 15.5171 21.7749C15.0842 21.0244 14.6513 20.2734 14.2195 19.5219C14.1798 19.4532 14.1336 19.4237 14.0484 19.4243C12.9439 19.428 11.8399 19.4264 10.7354 19.4264C10.022 19.4264 9.30854 19.4264 8.59511 19.4264C8.53878 19.4264 8.45403 19.4452 8.51518 19.3395C8.85956 18.7446 9.20555 18.1508 9.54993 17.5559C9.94903 16.8671 10.3481 16.1789 10.7451 15.4896C11.1377 14.8084 11.5266 14.1255 11.9198 13.4442C12.1762 13.0001 12.4386 12.5591 12.6939 12.1139C12.7411 12.0318 12.7486 12.0587 12.7835 12.1198C13.0115 12.52 13.2443 12.9175 13.4744 13.3166C13.7764 13.8401 14.0779 14.3647 14.3799 14.8883C14.6341 15.3287 14.8911 15.7675 15.1443 16.2084C15.2789 16.4423 15.4082 16.6794 15.5401 16.9149C15.611 17.0399 15.6426 17.1868 15.7483 17.2925C15.7558 17.2979 15.7628 17.3022 15.7697 17.3049C15.8025 17.3644 15.8303 17.4266 15.8733 17.4797C15.8717 17.491 15.8695 17.5023 15.8679 17.5135C15.8835 17.5747 15.9167 17.6219 15.9741 17.6508C15.98 17.6889 15.9854 17.7276 16.0159 17.7517C16.017 17.7565 16.0181 17.7614 16.0202 17.7662C16.0353 17.8257 16.076 17.8681 16.1168 17.9105C16.1415 17.9464 16.1678 17.9813 16.1898 18.0188C16.5363 18.6202 16.8812 19.2226 17.2277 19.8239C17.608 20.4837 17.9889 21.143 18.3698 21.8027C18.38 21.8827 18.4239 21.9213 18.506 21.9213C18.7243 21.9202 18.9432 21.9213 19.1621 21.9213C21.9863 21.9213 24.8111 21.9208 27.6354 21.9234C27.7469 21.9234 27.7802 21.8923 27.7797 21.7808C27.7754 21.0351 27.7775 20.29 27.7764 19.5444C27.777 19.5053 27.7968 19.4607 27.7518 19.4328ZM18.9083 21.8805C18.9105 21.8778 18.9121 21.8757 18.9137 21.8725C18.9153 21.8703 18.9158 21.8677 18.9169 21.8655C18.9207 21.8703 18.9244 21.8752 18.9287 21.8805C18.9217 21.8805 18.9148 21.8805 18.9083 21.8805ZM19.1529 21.8693C19.1545 21.8666 19.1556 21.8639 19.1567 21.8618C19.1578 21.866 19.1588 21.8698 19.1604 21.873C19.1578 21.8714 19.1556 21.8703 19.1529 21.8693Z" fill="white"/>
</svg>
