<svg width="24" height="24" viewBox="0 0 24 24" fill="none" xmlns="http://www.w3.org/2000/svg">
<path d="M18.1864 22C17.2267 22 16.4763 21.4821 16.1296 20.5794C15.9991 20.2423 15.9706 20.2219 15.609 20.2219H8.69488C8.34142 20.2219 8.31423 20.2409 8.19732 20.5658C7.94447 21.2741 7.45507 21.7376 6.77943 21.9076C6.53338 21.9687 6.28868 22 6.05213 22C5.0883 22 4.33789 21.4807 3.99259 20.574C3.86617 20.2423 3.83761 20.2232 3.48824 20.2219L2.92271 20.2232C2.80308 20.2232 2.68345 20.2232 2.56246 20.2205C2.18998 20.2137 2.00102 20.0234 2.00102 19.6523C1.99966 16.0457 1.99966 12.4405 2.00102 8.83388C2.00102 8.4913 2.21989 8.28059 2.58422 8.26835C2.73375 8.26292 2.88465 8.26155 3.03419 8.26155C3.13479 8.26155 3.5399 8.26428 3.64186 8.26428H3.76013C3.88112 8.26428 3.96812 8.26292 4.01434 8.20446C4.06056 8.146 4.04289 8.06308 4.0157 7.94889C3.77372 6.88853 3.8648 5.86215 4.28759 4.89831C4.84496 3.62996 5.80744 2.73137 7.15192 2.22974C7.51217 2.09516 7.88873 2.03942 8.24083 2H9.29303C9.77019 2.02583 10.1903 2.11691 10.5763 2.28004C12.3558 3.03045 13.3985 4.3627 13.6758 6.24144C13.7533 6.77162 13.7221 7.32627 13.5752 7.98831C13.5521 8.09435 13.5358 8.16368 13.578 8.21669C13.6201 8.26971 13.6935 8.26971 13.805 8.27107C13.9355 8.27243 14.066 8.27243 14.1965 8.27243H14.8626C14.9007 8.27243 14.9388 8.27243 14.9768 8.27515C15.4445 8.30778 15.6294 8.50217 15.6361 8.97118C15.6389 9.16422 15.6389 9.35726 15.6375 9.5503C15.6375 9.6509 15.6375 9.7515 15.6375 9.85209C15.6375 10.1444 15.6633 10.1743 15.942 10.2164C16.9412 10.3673 17.8072 10.8309 18.5141 11.5935C18.8458 11.9511 19.0959 12.3806 19.3365 12.7966C19.3787 12.87 19.4208 12.9421 19.4643 13.0141C19.5472 13.1542 19.6302 13.2928 19.7145 13.4315C19.8436 13.6449 19.9714 13.8597 20.0965 14.0759C20.1699 14.2036 20.2732 14.273 20.4241 14.2961C20.7435 14.345 21.0032 14.4415 21.2166 14.5884C21.7033 14.9241 21.9562 15.3469 21.9874 15.8785V19.7936C21.9154 20.0805 21.7699 20.192 21.4341 20.2178C21.3566 20.2232 21.2724 20.2259 21.1677 20.2259C21.1106 20.2259 21.0535 20.2246 20.9964 20.2246C20.9379 20.2232 20.8808 20.2232 20.8224 20.2232H20.7911C20.4676 20.2246 20.4417 20.2423 20.3371 20.5427C20.0842 21.2686 19.5867 21.7417 18.8988 21.9116C18.6595 21.9701 18.4189 22 18.1864 22ZM18.2354 18.6354C17.5992 18.6368 17.0826 19.152 17.0826 19.7841C17.0826 20.4135 17.6005 20.9274 18.2354 20.9288C18.8621 20.9288 19.3732 20.419 19.3773 19.7936C19.3787 19.485 19.259 19.1928 19.0402 18.9725C18.824 18.755 18.5385 18.6354 18.2381 18.6354H18.2354ZM6.09699 18.6368C5.79384 18.6368 5.507 18.755 5.28813 18.9712C5.06926 19.1873 4.94827 19.4701 4.94827 19.7692C4.94827 20.4176 5.4499 20.9274 6.08748 20.9315C6.72233 20.9315 7.23756 20.4258 7.24164 19.8045C7.24436 19.4932 7.12473 19.1996 6.90586 18.978C6.69107 18.7605 6.40559 18.6395 6.10107 18.6381H6.09699V18.6368ZM15.7721 11.2945C15.715 11.2945 15.6729 11.3094 15.6416 11.3407C15.594 11.3883 15.5845 11.4603 15.5859 11.5527C15.5913 13.5035 15.5913 15.453 15.5913 17.4038V18.9753C15.5913 19.0133 15.5913 19.0799 15.6633 19.1166C15.7014 19.137 15.749 19.1465 15.802 19.1465C15.9543 19.1465 16.1595 19.0582 16.2234 18.9168C16.6081 18.0631 17.2715 17.6226 18.1932 17.609H18.2367C19.1394 17.609 19.8191 18.0386 20.2025 18.8516C20.2718 18.9997 20.3643 19.137 20.5627 19.137C20.594 19.137 20.628 19.133 20.6647 19.1262H20.681C20.7082 19.1302 20.7327 19.133 20.7544 19.133C20.8156 19.133 20.8618 19.1166 20.8958 19.0813C20.9379 19.0392 20.9556 18.9753 20.9556 18.876C20.9488 18.2357 20.9502 17.5846 20.9502 16.9551V16.2075C20.9502 15.6732 20.6552 15.3796 20.1182 15.3782H18.8458C18.3537 15.3782 17.8615 15.3782 17.3694 15.3768C17.2824 15.3768 17.1927 15.3768 17.1139 15.3564C16.88 15.2966 16.7237 15.0506 16.7563 14.7964C16.793 14.5122 16.9793 14.3409 17.2552 14.3369C17.4673 14.3341 17.678 14.3328 17.8928 14.3328L18.9872 14.3342L18.926 14.2308C18.8363 14.0799 18.7493 13.9304 18.6636 13.7822C18.3958 13.32 18.1443 12.8823 17.8221 12.4772C17.3123 11.8355 16.6584 11.4413 15.8795 11.3067C15.8333 11.2985 15.7993 11.2945 15.7721 11.2945ZM3.28976 9.3627C3.23946 9.3627 3.16605 9.36814 3.11576 9.41843C3.06274 9.47281 3.0573 9.55438 3.05866 9.62779C3.06274 10.8037 3.06274 11.9796 3.06138 13.1542V15.1389C3.06138 16.391 3.06138 17.6417 3.05866 18.8937C3.05866 18.9766 3.06818 19.0419 3.11304 19.0881C3.14566 19.1207 3.19324 19.137 3.25714 19.137C3.27073 19.137 3.28568 19.1357 3.30064 19.1343C3.36997 19.1289 3.44338 19.1248 3.52087 19.1248C3.60108 19.1248 3.68128 19.1275 3.76149 19.133C3.77508 19.1343 3.78732 19.1343 3.79955 19.1343C3.93957 19.1343 4.02522 19.0718 4.08639 18.925C4.41945 18.1107 5.18481 17.6022 6.0834 17.5982C6.99558 17.5982 7.76502 18.1066 8.10216 18.9236C8.16605 19.0772 8.2517 19.1343 8.41891 19.1343C9.38955 19.1316 10.3575 19.1316 11.3254 19.1316C12.3137 19.1316 13.302 19.133 14.2903 19.1357C14.3664 19.1357 14.4412 19.1289 14.4915 19.0772C14.5432 19.0256 14.55 18.9508 14.5486 18.876C14.5432 17.6743 14.5445 16.4712 14.5445 15.2694V13.2235C14.5445 12.0462 14.5432 10.8282 14.55 9.63051C14.55 9.5571 14.5432 9.47417 14.4901 9.41979C14.4398 9.3695 14.3664 9.3627 14.308 9.3627L14.274 9.36406C14.1204 9.3695 13.9613 9.37221 13.79 9.37221C13.6119 9.37221 13.4352 9.3695 13.2571 9.36406H13.2422C13.1035 9.36406 13.022 9.41843 12.9608 9.55302C12.5027 10.5372 11.9195 11.4521 11.2261 12.2719C10.7952 12.7817 10.2569 13.3486 9.53772 13.7007C9.29302 13.8203 9.04697 13.8815 8.80363 13.8815C8.55621 13.8815 8.30336 13.8189 8.05322 13.6939C7.58966 13.4641 7.15736 13.1243 6.69379 12.624C5.87813 11.7444 5.19025 10.7126 4.64648 9.5571C4.60026 9.45786 4.53365 9.36542 4.36644 9.36542H4.35148C4.17068 9.37086 3.98851 9.37357 3.80771 9.37357C3.63234 9.37357 3.47193 9.37085 3.31695 9.36406L3.28976 9.3627ZM8.80635 3.03997C8.31015 3.03997 7.8194 3.13649 7.34768 3.32681C5.58857 4.03779 4.62745 5.93556 5.11005 7.74361C5.50021 9.20636 6.22478 10.5508 7.32592 11.8559C7.64947 12.2393 7.96078 12.5071 8.30608 12.6988C8.46921 12.7885 8.63234 12.8347 8.79139 12.8347C8.96268 12.8347 9.13397 12.7817 9.30118 12.6784C9.53636 12.5329 9.75659 12.3562 9.95507 12.155C10.8591 11.2374 11.5755 10.1512 12.1451 8.83252C12.3708 8.31185 12.6291 7.61311 12.6318 6.82871C12.6304 6.79065 12.6291 6.7553 12.6277 6.7186C12.625 6.63431 12.6236 6.54867 12.6128 6.4603C12.3912 4.51087 10.7544 3.03997 8.80635 3.03997Z" fill="#0A9494"/>
<path d="M8.80229 8.7512C7.77048 8.7512 6.929 7.91243 6.92628 6.88062C6.92356 5.84473 7.76097 4.99644 8.79142 4.98828H8.80637C9.83954 4.98828 10.6824 5.83385 10.6838 6.8711C10.6851 7.90427 9.84498 8.74712 8.80909 8.7512H8.80229ZM8.81045 6.02961C8.34824 6.02961 7.97168 6.40481 7.96896 6.8643C7.96625 7.33059 8.33057 7.70035 8.79958 7.70715C9.26722 7.70715 9.64107 7.33466 9.64243 6.87653C9.64243 6.64951 9.55542 6.43472 9.39501 6.27431C9.23732 6.11661 9.02932 6.03097 8.81045 6.02961Z" fill="#0A9494"/>
</svg>
