<svg width="24" height="24" viewBox="0 0 24 24" fill="none" xmlns="http://www.w3.org/2000/svg">
<path d="M2.7197 11.2285C2.34767 11.2285 2.12446 11.0932 2 10.7929V10.5061C2.13799 10.2111 2.36797 10.084 2.76569 10.084H2.78058C3.57062 10.0894 4.36066 10.0921 5.14935 10.0921L7.89015 10.0907C8.22565 10.0907 8.43669 10.2287 8.51921 10.502C8.56791 10.663 8.54221 10.8334 8.45157 10.9714C8.36093 11.1081 8.21347 11.1974 8.04843 11.2163C7.97673 11.2244 7.90233 11.2244 7.81981 11.2244L5.13041 11.2231C4.32955 11.2231 3.53003 11.2244 2.72917 11.2298L2.7197 11.2285Z" fill="#0A9494"/>
<path d="M7.90644 8.73056H5.56336C4.93025 8.73056 4.29848 8.73056 3.66537 8.72921C3.45162 8.72921 3.26494 8.64669 3.1513 8.50329C3.04713 8.37071 3.01467 8.19891 3.05796 8.02033C3.12154 7.75924 3.33664 7.60367 3.63426 7.60232C3.97246 7.60096 4.31066 7.59961 4.64887 7.59961L6.40076 7.60096H7.83744C8.21623 7.60096 8.59637 7.60096 8.97516 7.60232C9.3066 7.60367 9.5474 7.80253 9.57446 8.09744C9.59069 8.2679 9.54199 8.42618 9.43782 8.54252C9.33366 8.66022 9.17944 8.7265 9.00357 8.72921C8.85747 8.73191 8.71136 8.73327 8.56391 8.73327C8.45568 8.73327 8.01602 8.73056 7.90644 8.73056Z" fill="#0A9494"/>
<path d="M4.97341 13.7237C4.52022 13.7237 4.06838 13.7223 3.61519 13.7196C3.28916 13.7169 3.04024 13.4761 3.03618 13.1568C3.03212 12.8416 3.27834 12.5995 3.60707 12.5913C3.79917 12.5873 3.99127 12.5859 4.18337 12.5859C4.32947 12.5859 4.47557 12.5873 4.62033 12.5873C4.74343 12.5873 4.991 12.5886 4.991 12.5886L5.05864 12.5913C5.2088 12.5913 5.36032 12.59 5.51048 12.5886C5.66064 12.5873 5.8108 12.5859 5.96096 12.5859C6.18688 12.5859 6.37358 12.5886 6.54674 12.5941C6.72936 12.5995 6.89035 12.686 6.9891 12.8281C7.09056 12.9742 7.11491 13.1595 7.05539 13.3354C6.97828 13.5654 6.76724 13.7142 6.51968 13.7155C6.00426 13.7223 5.48883 13.7237 4.97341 13.7237Z" fill="#0A9494"/>
<path d="M8.45835 18.8122C7.3991 18.8055 6.4873 18.1507 6.13422 17.1415C6.08146 16.99 6.00435 16.9345 5.84742 16.9345C5.58768 16.9386 5.34147 16.9399 5.09526 16.9399C4.87069 16.9399 4.64612 16.9386 4.42156 16.9359C4.06306 16.9305 3.81415 16.7127 3.80332 16.3934C3.79386 16.0917 3.97919 15.8644 4.27816 15.8144C4.34039 15.8036 4.40938 15.7982 4.50137 15.7982H4.65424C4.84364 15.7968 5.03168 15.7968 5.22107 15.7968C5.43346 15.7968 5.6445 15.7982 5.8569 15.8009C5.99894 15.8009 6.06928 15.7495 6.11257 15.6196C6.46836 14.559 7.31252 13.9245 8.42724 13.8785C8.457 13.8772 8.48677 13.8772 8.51653 13.8772C9.53925 13.8772 10.4835 14.5833 10.8136 15.5939C10.8637 15.7468 10.9354 15.8009 11.0882 15.8009C11.6605 15.7982 12.2314 15.7968 12.8009 15.7968C13.3704 15.7968 13.9413 15.7982 14.5108 15.8009C14.6664 15.8009 14.7381 15.7468 14.7882 15.5925C15.1223 14.5671 16.0639 13.8772 17.1299 13.8772C18.2216 13.8812 19.1415 14.5576 19.4838 15.602C19.5298 15.744 19.6069 15.8022 19.7462 15.8022H19.7679C19.9045 15.7968 20.0411 15.7955 20.1778 15.7955C20.3347 15.7955 20.4916 15.7982 20.6486 15.8009H20.6621C20.7148 15.8009 20.7744 15.7955 20.8177 15.7522C20.8623 15.7075 20.8677 15.6412 20.8664 15.5952C20.8623 14.6929 20.8623 13.7311 20.8664 12.569C20.8664 12.4554 20.815 12.3796 20.7663 12.3174L20.585 12.086C20.4105 11.8642 20.2292 11.6342 20.0587 11.4029C19.9559 11.2622 19.8423 11.2054 19.6691 11.2054C18.8168 11.2094 17.9673 11.2094 17.1191 11.2094H15.0858C14.5731 11.2094 14.3729 11.0119 14.3729 10.506C14.3729 9.57522 14.3729 6.51515 14.3729 6.51515C14.3729 6.16613 14.3417 6.13501 14.0022 6.13501H4.47432C4.3918 6.13501 4.31063 6.13366 4.23216 6.11337C3.95213 6.04167 3.78574 5.80492 3.80603 5.51001C3.82497 5.24486 4.02924 5.03923 4.30386 5.00947C4.38639 5.00135 4.47432 5 4.55143 5H14.7543C15.3171 5 15.5065 5.18804 15.5065 5.74405C15.5065 6.24053 15.5363 6.27029 16.0233 6.27029C16.2303 6.27029 16.4386 6.27165 16.6456 6.27165C16.8526 6.273 17.0609 6.273 17.2679 6.273C17.5614 6.273 17.8536 6.27165 18.1472 6.26488H18.1716C18.4922 6.26488 18.7005 6.39746 18.848 6.69643C19.1009 7.20644 19.3566 7.71374 19.6123 8.22105C19.8856 8.76353 20.1588 9.30601 20.4281 9.84984C20.6188 10.2354 20.8231 10.5587 21.0517 10.8387C21.2032 11.0241 21.352 11.2189 21.4968 11.4056C21.6009 11.5422 21.7065 11.6788 21.8133 11.8128C21.9391 11.971 22 12.1469 22 12.3498C21.9987 13.1737 21.9987 13.9989 21.9987 14.8228V16.2811C21.9987 16.7154 21.7755 16.9372 21.3358 16.9399C21.0855 16.9413 20.8352 16.9426 20.585 16.9426C20.3117 16.9426 20.0384 16.9413 19.7652 16.9386C19.6258 16.9386 19.5338 16.971 19.477 17.1334C19.1212 18.1548 18.204 18.8149 17.1421 18.8149C16.0815 18.8149 15.1656 18.1561 14.8071 17.1361C14.7571 16.9913 14.6799 16.9386 14.5244 16.9386C13.9508 16.9413 13.3812 16.9426 12.8104 16.9426C12.2408 16.9426 11.6699 16.9413 11.1004 16.9386C10.934 16.9386 10.8528 16.994 10.8001 17.1442C10.4402 18.1602 9.52708 18.8163 8.47594 18.8163L8.45835 18.8122ZM17.1367 15.0162C16.7782 15.0162 16.4413 15.1583 16.1856 15.4167C15.934 15.671 15.7974 16.0038 15.8014 16.3542C15.8095 17.0833 16.4075 17.6772 17.1339 17.6786C17.4924 17.6786 17.8307 17.5365 18.085 17.2795C18.338 17.0252 18.4759 16.691 18.4732 16.3393C18.4678 15.6115 17.8699 15.0189 17.1394 15.0162H17.1367ZM8.45024 15.0162C7.71972 15.0257 7.12989 15.625 7.13395 16.3528C7.13801 17.0833 7.7373 17.6786 8.46782 17.6786H8.48271C9.21323 17.6705 9.80305 17.0698 9.79764 16.3406C9.79223 15.6101 9.19564 15.0162 8.46647 15.0162H8.45024ZM15.7162 7.39313C15.6594 7.39313 15.5958 7.39854 15.5525 7.44318C15.5079 7.48783 15.5025 7.55141 15.5038 7.61228C15.5106 8.41856 15.5106 9.1369 15.5038 9.81196C15.5025 9.88772 15.5092 9.96618 15.5606 10.0176C15.612 10.069 15.6891 10.0758 15.7514 10.0758C16.0869 10.0717 16.4115 10.0703 16.7362 10.0703L17.8442 10.0717H19.2254L19.2092 9.99053C19.2065 9.97971 19.2051 9.97024 19.2038 9.96212C19.201 9.94318 19.1983 9.92424 19.1889 9.9053L18.825 9.18019C18.5476 8.62825 18.2717 8.0763 17.997 7.52435C17.9402 7.41071 17.8536 7.39448 17.7698 7.39448C17.4153 7.39583 17.0636 7.39719 16.7119 7.39719C16.3831 7.39719 16.0531 7.39583 15.7243 7.39313H15.7162Z" fill="#0A9494"/>
</svg>
