<svg width="24" height="24" viewBox="0 0 24 24" fill="none" xmlns="http://www.w3.org/2000/svg">
<path d="M20.8441 12.9796C20.7696 12.8811 20.7417 12.7854 20.7417 12.6643C20.7444 11.458 20.7404 10.2516 20.747 9.04527C20.7484 8.81251 20.6938 8.61168 20.5741 8.41217C19.4888 6.61128 18.4062 4.80907 17.3275 3.00419C16.9231 2.32719 16.3339 2 15.5479 2.00133C12.7761 2.00399 10.0042 2.00665 7.23374 2C6.4131 1.99867 5.81458 2.33917 5.39561 3.04542C4.32227 4.85296 3.23695 6.65384 2.15296 8.45473C2.04788 8.62897 2 8.80852 2 9.01202C2.00399 10.6453 2.00133 12.2786 2.00133 13.9119C2.00133 15.5253 2.00133 17.1373 2 18.7506C2 18.9342 2.01064 19.1164 2.0532 19.2946C2.26601 20.1751 3.00153 20.7444 3.93788 20.7457C6.84537 20.7484 9.75152 20.747 12.659 20.7444C12.788 20.7444 12.8865 20.779 12.9915 20.8561C14.2857 21.8151 15.7341 22.1862 17.3208 21.9122C21.4826 21.1939 23.3912 16.3406 20.8441 12.9796ZM11.9966 3.43779C11.9953 3.2835 12.0352 3.25025 12.1855 3.25158C13.324 3.25823 14.4612 3.25823 15.5997 3.25424C15.8751 3.25291 16.0826 3.35665 16.2249 3.5934C17.1346 5.11232 18.0457 6.6299 18.9568 8.14882C18.9728 8.17542 19.0047 8.20069 18.9781 8.25522C18.9275 8.25522 18.869 8.25522 18.8105 8.25522C16.6093 8.25522 14.408 8.25256 12.2068 8.25921C12.0365 8.25921 11.998 8.21665 11.9993 8.04906C12.0033 6.51286 12.0033 4.97532 11.9966 3.43779ZM4.67473 6.68709C5.28256 5.6736 5.89438 4.66143 6.49689 3.64394C6.65384 3.37793 6.86399 3.25158 7.17389 3.25291C8.30443 3.25956 9.4363 3.2569 10.5668 3.25291C10.6985 3.25291 10.7517 3.2702 10.7504 3.42316C10.7437 4.98064 10.7451 6.53813 10.7491 8.09695C10.7491 8.21133 10.7344 8.26054 10.5988 8.26054C8.32305 8.25522 6.04734 8.25655 3.73172 8.25655C4.05759 7.71389 4.36616 7.20049 4.67473 6.68709ZM11.4606 19.4941C8.98675 19.4941 6.51286 19.4862 4.0403 19.5008C3.51094 19.5034 3.24892 19.1989 3.25025 18.7094C3.26488 15.7141 3.25956 12.7175 3.25291 9.72227C3.25291 9.52941 3.31143 9.49749 3.48699 9.49749C8.74601 9.50148 14.005 9.50148 19.264 9.49749C19.4396 9.49749 19.5048 9.52808 19.4995 9.72227C19.4848 10.366 19.4941 11.0098 19.4941 11.6389C16.6904 10.1745 14.0981 10.386 12.0206 12.8692C10.3181 14.9028 10.366 17.1878 11.6668 19.4928C11.5936 19.4941 11.5271 19.4941 11.4606 19.4941ZM16.3778 20.7444C13.9625 20.7457 11.9993 18.7826 12.0006 16.3672C12.002 13.9558 13.9744 11.9927 16.3885 12.0006C18.7932 12.0086 20.7457 13.9704 20.7444 16.3778C20.743 18.7839 18.7826 20.7444 16.3778 20.7444Z" fill="#0A9494"/>
<path d="M6.99441 12.6215C6.59539 12.6215 6.19505 12.6241 5.79604 12.6215C5.40766 12.6188 5.13367 12.3634 5.12968 12.0083C5.12569 11.6452 5.40367 11.3832 5.80402 11.3819C6.60338 11.3805 7.40141 11.3805 8.20076 11.3819C8.6051 11.3832 8.8751 11.6359 8.87377 12.0043C8.87244 12.3714 8.60111 12.6188 8.19411 12.6215C7.79377 12.6228 7.39475 12.6215 6.99441 12.6215Z" fill="#0A9494"/>
<path d="M19.49 15.1188C19.4927 15.3104 19.4209 15.4593 19.2958 15.5843C18.265 16.6138 17.2369 17.6459 16.2035 18.6727C15.9321 18.9427 15.569 18.9467 15.2977 18.6794C14.6752 18.0662 14.0581 17.4477 13.4436 16.8253C13.1856 16.5633 13.1883 16.1762 13.433 15.9328C13.6817 15.6854 14.0581 15.6841 14.3241 15.9448C14.7644 16.3757 15.2006 16.812 15.6316 17.2536C15.7273 17.352 15.7752 17.3427 15.867 17.2509C16.7062 16.4037 17.5495 15.5604 18.3954 14.7198C18.7532 14.3647 19.2918 14.4671 19.4554 14.9127C19.482 14.9845 19.486 15.0563 19.49 15.1188Z" fill="#0A9494"/>
</svg>
