<svg width="24" height="24" viewBox="0 0 24 24" fill="none" xmlns="http://www.w3.org/2000/svg">
<path d="M9.57804 17.9923C9.3281 17.9909 9.07958 17.9894 8.82963 17.9894L6.52299 17.9909C6.16163 17.9909 5.80171 17.9909 5.44036 17.9894C5.28611 17.9894 5.23755 17.9594 5.22326 17.9409C5.20898 17.9237 5.18756 17.8737 5.20898 17.7281C5.37609 16.6197 5.54605 15.5114 5.71602 14.4031L5.81599 13.7489C6.07594 12.0564 6.33588 10.3639 6.59583 8.67143L6.6501 8.31293C6.70723 7.93587 6.76579 7.54453 6.83578 7.16461C6.88005 6.91895 6.93861 6.87181 7.19855 6.87181H7.21427C7.25997 6.87181 7.30567 6.87181 7.35281 6.87324C7.39994 6.87467 7.4485 6.87467 7.49563 6.87467C7.56133 6.87467 7.62704 6.87324 7.69274 6.86896C7.69559 6.86896 7.69845 6.86896 7.7013 6.86896C7.7013 6.87467 7.7013 6.88038 7.7013 6.8861C7.69559 7.36599 7.69702 7.85303 7.69702 8.32579V8.65286C7.69702 9.06277 7.9284 9.32843 8.29546 9.32843C8.6511 9.32272 8.87248 9.06706 8.87248 8.65857V8.48575C8.87391 7.97015 8.87677 7.43741 8.86962 6.91323C8.86962 6.89324 8.86963 6.87895 8.87105 6.87038C8.87962 6.86896 8.89248 6.86896 8.91105 6.86896C9.52234 6.87181 10.1322 6.87324 10.7435 6.87324C11.3577 6.87324 11.9718 6.87181 12.5888 6.86896C12.5974 6.86896 12.606 6.86896 12.6117 6.86896C12.6117 6.8761 12.6117 6.8861 12.6117 6.89895C12.606 7.46883 12.6074 8.04585 12.6088 8.60573V8.68571C12.6103 9.06277 12.8516 9.327 13.1973 9.327C13.5458 9.327 13.7814 9.06991 13.7843 8.68571C13.7857 8.45147 13.7857 8.21581 13.7857 7.98158C13.7857 7.77448 13.7857 7.56881 13.7857 7.36171C13.7857 7.30029 13.78 7.23174 13.7743 7.16318C13.7657 7.06606 13.7529 6.90466 13.7857 6.8661C13.8029 6.8461 13.8528 6.84182 13.8914 6.84182C13.9428 6.84182 14 6.84896 14.0628 6.8561C14.1299 6.86324 14.1985 6.87181 14.2656 6.87181H14.3156C14.5698 6.87181 14.6141 6.89324 14.6627 7.19603C14.7155 7.52596 14.7655 7.85589 14.8155 8.18725L14.9897 9.33414C15.0812 9.93401 15.1711 10.5339 15.2654 11.1338C15.3182 11.4665 15.5482 11.6808 15.8538 11.6808C15.8853 11.6808 15.9181 11.6779 15.951 11.6736C16.1066 11.6508 16.2352 11.5765 16.3223 11.458C16.4209 11.3251 16.4594 11.1438 16.4294 10.9467L16.3237 10.2454C16.1638 9.18418 15.9981 8.08584 15.8281 7.0075C15.7096 6.2548 15.2368 5.76348 14.5641 5.69492C14.4527 5.6835 14.3342 5.67778 14.1913 5.67778C14.0871 5.67778 13.9814 5.68064 13.8771 5.6835L13.7829 5.68635C13.7829 5.68492 13.7829 5.6835 13.7829 5.68207C13.7914 5.43641 13.7886 5.18932 13.7829 4.95937C13.7486 3.47968 12.6374 2.21852 11.1948 2.02857C11.052 2.01 10.9078 2 10.7664 2C9.39808 2 8.21548 2.87124 7.82271 4.16668C7.68559 4.61944 7.69131 5.07648 7.69702 5.51925C7.69702 5.51925 7.69845 5.68064 7.69845 5.68635C7.69702 5.68635 7.69559 5.68635 7.69559 5.68635C7.62846 5.68064 7.55991 5.67921 7.49278 5.67921C7.44279 5.67921 7.3928 5.68064 7.34281 5.68064C7.29568 5.68207 7.24854 5.68207 7.20141 5.68207C6.31732 5.6835 5.82171 6.0877 5.68316 6.91752C5.45893 8.26294 5.24897 9.63408 5.04616 10.9595C4.97903 11.3937 4.91333 11.8279 4.8462 12.2635C4.72766 13.0305 4.61054 13.7989 4.49342 14.5659C4.33631 15.5942 4.1792 16.6226 4.01924 17.6509C3.91212 18.3451 4.25776 18.8992 4.9219 19.0978C5.13186 19.1606 5.34467 19.1692 5.54462 19.1692H6.39444H9.4695V19.0264L9.48949 19.1692C9.61375 19.1692 9.76801 19.1692 9.91083 19.0792C10.1251 18.9449 10.2265 18.685 10.1651 18.4322C10.1022 18.1694 9.87084 17.9951 9.57804 17.9923ZM12.6145 5.66779C12.6145 5.67636 12.6145 5.68493 12.6145 5.69064C12.6074 5.69064 12.5874 5.69064 12.5874 5.69064C12.2975 5.68635 12.009 5.68635 11.719 5.68635L10.7392 5.68778L9.75515 5.68635C9.47378 5.68635 9.19241 5.68778 8.90248 5.69207C8.88962 5.69207 8.87962 5.69207 8.87248 5.69064C8.87248 5.68207 8.87248 5.66921 8.87248 5.6535C8.87676 5.54353 8.87819 5.43355 8.87819 5.32357C8.87819 5.07077 8.8782 4.83082 8.93818 4.59516C9.15385 3.73963 9.87227 3.18546 10.7678 3.18546C10.8378 3.18546 10.9092 3.18832 10.9806 3.19546C11.8604 3.28115 12.576 4.06099 12.6088 4.97222C12.6131 5.07648 12.6117 5.18075 12.6117 5.28501C12.6088 5.4107 12.6074 5.53924 12.6145 5.66779Z" fill="#0A9494"/>
<path d="M15.5068 12.3516C12.8474 12.3516 10.6836 14.514 10.6836 17.172C10.6836 18.4545 11.1863 19.6643 12.1004 20.5798C13.0145 21.4953 14.2228 21.9995 15.5026 21.9995H15.5111C18.1706 21.9952 20.3344 19.8285 20.3344 17.172C20.333 14.5168 18.1691 12.3544 15.5068 12.3516ZM19.1561 17.1648C19.1603 19.1687 17.5278 20.804 15.5026 20.8112C13.5016 20.8112 11.8691 19.1815 11.8633 17.1791C11.8605 16.2065 12.2375 15.2924 12.9245 14.6025C13.613 13.9112 14.5271 13.5313 15.5011 13.5299L15.5068 13.3871V13.5299C17.515 13.5285 19.1518 15.1595 19.1561 17.1648Z" fill="#0A9494"/>
<path d="M15.0168 17.6361C15.0111 17.6304 15.0054 17.6247 14.9996 17.6175C14.7383 17.3362 14.4612 17.0605 14.1941 16.7949L14.1584 16.7606C14.0341 16.6363 13.8885 16.5706 13.7356 16.5706C13.6499 16.5706 13.5628 16.5906 13.4785 16.632C13.2586 16.7363 13.1458 16.9305 13.1429 17.2048C13.1372 17.3376 13.2072 17.4761 13.3586 17.629C13.5971 17.8689 13.8342 18.1117 14.0713 18.3531L14.5212 18.8101C14.7154 19.0087 14.8868 19.1001 15.0582 19.1001C15.2982 19.1001 15.4824 18.9144 15.6009 18.7744L17.6377 16.3507C17.8148 16.1407 17.8947 15.9422 17.8776 15.7594C17.8633 15.6151 17.7905 15.488 17.6576 15.3823C17.5462 15.2923 17.4291 15.248 17.3077 15.248C17.1135 15.248 16.9249 15.3609 16.7307 15.5908L16.2994 16.1036C15.8766 16.6078 15.4524 17.1105 15.0339 17.6175C15.0268 17.6233 15.0225 17.6304 15.0168 17.6361Z" fill="#0A9494"/>
</svg>
