<svg width="24" height="24" viewBox="0 0 24 24" fill="none" xmlns="http://www.w3.org/2000/svg">
<path d="M21.9944 7.8319C21.9956 7.24112 21.7195 6.8282 21.2145 6.56079C20.5653 6.21877 19.9024 5.90161 19.2519 5.55958C18.3204 5.07079 17.3701 4.61558 16.4336 4.13301C15.221 3.50741 13.9946 2.90793 12.782 2.28109C12.5171 2.14427 12.2559 2.00373 11.9462 2C11.8156 2 11.6862 2 11.5557 2C11.4076 2.04229 11.2497 2.03731 11.1079 2.11318C10.2547 2.57088 9.39777 3.01862 8.54456 3.47508C7.12172 4.23873 5.68893 4.98871 4.26361 5.75112C3.74248 6.02972 3.21016 6.28842 2.70023 6.58816C2.32337 6.80954 2.04851 7.11799 2 7.57942C2 10.5184 2 13.4573 2 16.3963C2.03482 16.6749 2.14427 16.9124 2.347 17.1139C2.5261 17.2918 2.73132 17.4211 2.95146 17.5343C3.72009 17.9286 4.48126 18.3403 5.24367 18.7457C6.40781 19.3651 7.5732 19.9832 8.73858 20.6014C9.47861 20.9944 10.2211 21.3824 10.9587 21.7804C11.4897 22.0665 12.0134 22.069 12.5419 21.8115C13.0096 21.5839 13.471 21.3451 13.9312 21.1038C14.9386 20.5765 15.961 20.0778 16.9759 19.5641C18.3726 18.8552 19.7668 18.1413 21.1673 17.441C21.7145 17.1674 21.9981 16.7333 21.9956 16.1003C21.9881 13.3429 21.9906 10.588 21.9944 7.8319ZM11.0843 3.51239C11.2559 3.42159 11.4313 3.33578 11.5979 3.23752C11.7161 3.16787 11.8206 3.16538 11.9449 3.22882C14.6588 4.60688 17.3751 5.98121 20.0914 7.35803C20.0703 7.42644 20.0056 7.43266 19.9571 7.45629C18.9895 7.9401 18.0206 8.42019 17.053 8.90524C16.9597 8.95251 16.8863 8.96246 16.7856 8.91022C14.17 7.52221 11.5519 6.13917 8.93509 4.75488C8.91271 4.74245 8.89032 4.72752 8.84555 4.70016C9.6092 4.2947 10.3467 3.90417 11.0843 3.51239ZM11.1825 20.37C11.1825 20.4074 11.1776 20.4459 11.1738 20.4832C11.1017 20.4932 11.0582 20.4484 11.0084 20.4223C8.47864 19.0815 5.95012 17.7383 3.41786 16.4C3.24125 16.3067 3.16538 16.1973 3.16538 15.9908C3.1716 13.5208 3.16912 11.0519 3.16912 8.58187C3.16912 8.51844 3.16912 8.45501 3.16912 8.36422C3.30344 8.43387 3.41786 8.49357 3.53104 8.55202C6.0235 9.85173 8.51595 11.1527 11.0097 12.4499C11.1116 12.5034 11.185 12.5457 11.185 12.6875C11.1813 15.2483 11.1825 17.8092 11.1825 20.37ZM11.6265 11.4524C9.81193 10.5059 7.99607 9.55945 6.18021 8.61172C5.45013 8.23114 4.7213 7.85055 3.99247 7.46872C3.9365 7.43887 3.86934 7.42644 3.83079 7.35928C5.05089 6.71253 6.271 6.06703 7.48863 5.4178C7.55703 5.38173 7.61051 5.37427 7.68389 5.41407C10.2995 6.80084 12.9175 8.18512 15.5344 9.57065C15.5555 9.58184 15.5729 9.60174 15.6003 9.62537C14.3516 10.2472 13.1116 10.8616 11.8741 11.4835C11.7721 11.5358 11.7061 11.4947 11.6265 11.4524ZM20.5815 16.3702C17.8863 17.7308 15.1948 19.0965 12.5021 20.4596C12.4623 20.4795 12.4213 20.4981 12.3516 20.5305C12.3516 20.4472 12.3516 20.3912 12.3516 20.334C12.3516 17.8054 12.3529 15.2782 12.3467 12.7496C12.3467 12.5942 12.3977 12.522 12.5295 12.4574C13.6849 11.8877 14.8379 11.3131 15.9921 10.7398C16.0493 10.7112 16.1065 10.6863 16.1948 10.6452C16.1948 10.7995 16.1948 10.9313 16.1948 11.0631C16.1948 11.5706 16.1936 12.0768 16.1948 12.5842C16.196 12.9661 16.4348 13.2272 16.7744 13.2297C17.1102 13.231 17.3602 12.9636 17.3627 12.588C17.3664 11.7945 17.3652 11.0022 17.3627 10.2087C17.3627 10.1129 17.3726 10.047 17.4771 9.996C18.5592 9.46493 19.6362 8.92514 20.7158 8.38909C20.7369 8.3779 20.7606 8.37168 20.8016 8.35551C20.8016 8.42889 20.8016 8.48486 20.8016 8.54083C20.8016 11.0233 20.8004 13.5058 20.8041 15.9883C20.8066 16.1699 20.7531 16.2844 20.5815 16.3702Z" fill="#0A9494"/>
</svg>
