<svg width="80" height="81" viewBox="0 0 80 81" fill="none" xmlns="http://www.w3.org/2000/svg">
<g id="Group">
<path id="Vector" d="M57.626 60.3272L18.6712 23.7409C17.2984 22.4526 17.1432 20.312 18.3294 18.9883C19.5133 17.6614 21.606 17.6291 22.9757 18.9196L61.9305 55.5059C63.3033 56.7942 63.4585 58.9348 62.2723 60.2585C61.0884 61.5855 58.9988 61.6155 57.626 60.3272Z" stroke="#FFA412" stroke-width="1.5" stroke-miterlimit="10"/>
<path id="Vector_2" d="M32.2376 35.6925L19.4592 23.6948L10.0225 46.0188L17.0907 52.6548L29.866 64.6547L36.9342 71.2906L57.7912 59.6901L32.2376 35.6925Z" stroke="#FFA412" stroke-width="1.5" stroke-miterlimit="10" stroke-linecap="round" stroke-linejoin="round"/>
<path id="Vector_3" d="M38.3745 41.9736L23.479 58.6521" stroke="#FFA412" stroke-width="1.5" stroke-miterlimit="10" stroke-linecap="round" stroke-linejoin="round"/>
<path id="Vector_4" d="M49.4427 52.0713L34.5473 68.7498" stroke="#FFA412" stroke-width="1.5" stroke-miterlimit="10" stroke-linecap="round" stroke-linejoin="round"/>
<path id="Vector_5" d="M28.4506 32.1338L17.0913 52.6547" stroke="#FFA412" stroke-width="1.5" stroke-miterlimit="10" stroke-linecap="round" stroke-linejoin="round"/>
<path id="Vector_6" d="M14.741 34.8568L46.8132 64.9755" stroke="#FFA412" stroke-width="1.5" stroke-miterlimit="10" stroke-linecap="round" stroke-linejoin="round"/>
<path id="Vector_7" d="M46.1272 15.2509C43.0205 15.6489 40.0853 17.0896 37.8742 19.567L31.7766 26.3936L35.2932 29.6969L41.3908 22.8704C44.8959 18.9475 51.0514 18.8547 55.11 22.6685C59.1687 26.4824 59.6233 32.7789 56.1182 36.7017L50.0206 43.5282L53.5372 46.8316L59.6348 40.005C64.8 34.2216 64.1293 24.8898 58.1458 19.2695C56.2435 17.4815 54.0195 16.2745 51.7098 15.6474" stroke="#FFA412" stroke-width="1.5" stroke-miterlimit="10" stroke-linecap="round" stroke-linejoin="round"/>
<path id="Vector_8" d="M25.8362 25.246L36.3838 35.1526" stroke="#FFA412" stroke-width="1.5" stroke-miterlimit="10" stroke-linecap="round" stroke-linejoin="round"/>
<path id="Vector_9" d="M39.3722 37.9603L41.5419 39.9963" stroke="#FFA412" stroke-width="1.5" stroke-miterlimit="10" stroke-linecap="round" stroke-linejoin="round"/>
</g>
</svg>
