<svg width="80" height="69" viewBox="0 0 80 69" fill="none" xmlns="http://www.w3.org/2000/svg">
<g id="Group">
<path id="Vector" d="M13.2618 40.5029L16.7712 15.9368C16.825 15.5638 17.2169 15.2974 17.6058 15.3628L61.2459 22.7438C61.6392 22.8108 61.9347 23.1965 61.8825 23.5654L58.3732 48.1315L63.8864 49.0631L67.3958 24.497C67.8628 21.2362 65.431 18.0924 61.9935 17.5098L18.3533 10.1287C14.9158 9.54612 11.7221 11.7386 11.2551 14.9995L7.74576 39.5656L13.2618 40.5029Z" stroke="#FFA412" stroke-width="2.5" stroke-miterlimit="10"/>
<path id="Vector_2" d="M21.3609 48.4809L5.11678 45.7344C3.24796 45.4181 1.92526 43.709 2.17426 41.9346C2.4276 40.1618 4.16381 38.9692 6.03422 39.2813L65.5907 49.3531C67.4596 49.6693 68.7823 51.3785 68.5333 53.1529C68.2799 54.9257 66.5437 56.1183 64.6733 55.8061L29.9418 49.9324" stroke="#FFA412" stroke-width="2.5" stroke-miterlimit="10" stroke-linecap="round"/>
<path id="Vector_3" d="M43.5765 24.736L23.5439 38.4935" stroke="#FFA412" stroke-width="2" stroke-miterlimit="10" stroke-linecap="round"/>
<path id="Vector_4" d="M45.5232 32.2121L37.8006 37.5128" stroke="#FFA412" stroke-width="2" stroke-miterlimit="10" stroke-linecap="round"/>
<path id="Vector_5" d="M40.2035 48.3654L50.3168 50.0739" stroke="#FFA412" stroke-width="2" stroke-miterlimit="10" stroke-linecap="round" stroke-linejoin="round"/>
<path id="Vector_6" d="M53.6234 50.6342L56.3822 51.1008" stroke="#FFA412" stroke-width="2" stroke-miterlimit="10" stroke-linecap="round" stroke-linejoin="round"/>
</g>
</svg>
