<svg width="32" height="32" viewBox="0 0 32 32" fill="none" xmlns="http://www.w3.org/2000/svg">
<g id="Group 809">
<rect id="Rectangle 4554" width="32" height="32" rx="16" fill="#0A9494"/>
<g id="Group 511">
<g id="Group 75">
<path id="Vector" d="M18.2018 23.0013C18.59 23.0013 18.9046 22.6866 18.9046 22.2985C18.9046 21.9104 18.59 21.5957 18.2018 21.5957C17.8137 21.5957 17.499 21.9104 17.499 22.2985C17.499 22.6866 17.8137 23.0013 18.2018 23.0013Z" fill="white"/>
<g id="Group">
<path id="Vector_2" d="M22.7135 23.0013C23.1017 23.0013 23.4163 22.6866 23.4163 22.2985C23.4163 21.9104 23.1017 21.5957 22.7135 21.5957C22.3254 21.5957 22.0107 21.9104 22.0107 22.2985C22.0107 22.6866 22.3254 23.0013 22.7135 23.0013Z" fill="white"/>
</g>
<g id="Group_2">
<path id="Vector_3" d="M15.2336 10.4735C15.4657 10.8733 15.6969 11.2734 15.9285 11.6735C15.9467 11.7343 15.9976 11.7071 16.0331 11.7071C17.883 11.7086 19.733 11.7079 21.5833 11.709C21.7537 11.709 21.9234 11.6988 22.0951 11.7031C22.6783 11.7169 23.2619 11.7075 23.8456 11.7071C23.8452 11.7027 23.8448 11.6984 23.8444 11.694C23.8487 11.6909 23.8527 11.6862 23.8546 11.6787C23.8554 11.1128 23.855 10.5465 23.855 9.98066C23.855 9.85202 23.8657 9.8678 23.7398 9.8678C20.8327 9.86741 17.9253 9.8678 15.0182 9.8678C14.9945 9.8678 14.9708 9.86701 14.9471 9.8682C14.9033 9.86977 14.8994 9.89424 14.9136 9.92857C15.0201 10.1101 15.1279 10.2912 15.2336 10.4735Z" fill="white"/>
<path id="Vector_4" d="M22.8914 14.4082C22.0114 14.4106 21.1311 14.4098 20.2511 14.4098C20.1031 14.4098 19.9547 14.4098 19.8068 14.4098C19.072 14.4098 18.3369 14.4098 17.6021 14.4094C17.55 14.4094 17.5003 14.4023 17.5468 14.4828C17.8665 15.0337 18.1837 15.5861 18.501 16.1382C18.5365 16.2001 18.5768 16.2325 18.6589 16.2321C20.0696 16.2285 21.4799 16.2285 22.8906 16.2317C22.9786 16.2317 22.9928 16.2001 22.9924 16.1232C22.9897 15.5837 22.9893 15.0443 22.9928 14.5053C22.9936 14.424 22.9672 14.4082 22.8914 14.4082Z" fill="white"/>
<path id="Vector_5" d="M23.8448 18.9512C23.8212 18.9496 23.7979 18.9461 23.7742 18.9461C22.5703 18.9457 21.3667 18.9461 20.1628 18.9461H18.7051C18.5086 18.9461 18.312 18.9461 18.1155 18.9464C18.0666 18.9464 18.0323 18.9421 18.0019 18.8884C17.7466 18.4386 17.4853 17.9923 17.2257 17.5448C16.9909 17.1399 16.7549 16.7351 16.5205 16.3298C16.2238 15.816 15.9286 15.3018 15.6323 14.7877C15.3939 14.3745 15.1548 13.9614 14.916 13.5482C14.6225 13.0396 14.3285 12.5309 14.0353 12.0219C13.8281 11.662 13.6217 11.3013 13.415 10.9414C13.2196 10.6017 13.0239 10.2627 12.8282 9.92333C12.8092 9.89058 12.799 9.87677 12.7717 9.92452C12.6186 10.194 12.4592 10.46 12.3041 10.7287C12.0275 11.2074 11.7533 11.6872 11.477 12.1659C11.2201 12.611 10.9605 13.0549 10.7036 13.5005C10.4274 13.9791 10.1531 14.4594 9.8765 14.9384C9.61921 15.3843 9.35956 15.8286 9.10228 16.2746C8.80553 16.7883 8.508 17.3017 8.21559 17.8179C8.13588 17.9587 8.03526 18.0878 7.97567 18.2397C7.92279 18.2898 7.88254 18.3474 7.87149 18.4216C7.67577 18.7559 7.47886 19.0893 7.28471 19.4247C7.04321 19.8418 6.80368 20.2605 6.56337 20.6784C6.55034 20.7009 6.52391 20.7222 6.53653 20.7494C6.55074 20.7794 6.58428 20.764 6.60875 20.7644C6.92601 20.7656 7.24328 20.7652 7.56054 20.7652C9.97081 20.7652 12.3815 20.7652 14.7917 20.7644C14.8198 20.7644 14.8592 20.7802 14.8734 20.7506C14.8845 20.7277 14.8588 20.6989 14.8446 20.674C14.5262 20.122 14.2077 19.5695 13.8901 19.0167C13.8609 18.9662 13.8269 18.9445 13.7642 18.9449C12.9517 18.9476 12.1396 18.9464 11.3271 18.9464C10.8022 18.9464 10.2774 18.9464 9.75259 18.9464C9.71116 18.9464 9.64881 18.9603 9.69379 18.8825C9.94713 18.4449 10.2017 18.0081 10.455 17.5704C10.7486 17.0638 11.0422 16.5575 11.3342 16.0504C11.623 15.5493 11.9091 15.0469 12.1984 14.5458C12.387 14.219 12.58 13.8947 12.7678 13.5671C12.8025 13.5068 12.808 13.5265 12.8337 13.5715C13.0014 13.8659 13.1727 14.1583 13.3419 14.4519C13.5641 14.837 13.7859 15.2229 14.008 15.6081C14.1951 15.932 14.3841 16.2548 14.5704 16.5792C14.6694 16.7512 14.7645 16.9257 14.8616 17.0989C14.9137 17.1908 14.937 17.299 15.0147 17.3767C15.0202 17.3806 15.0253 17.3838 15.0305 17.3858C15.0545 17.4296 15.0751 17.4753 15.1066 17.5144C15.1055 17.5227 15.1039 17.531 15.1027 17.5393C15.1141 17.5843 15.1386 17.619 15.1808 17.6403C15.1852 17.6683 15.1891 17.6967 15.2116 17.7145C15.2124 17.718 15.2132 17.7216 15.2148 17.7251C15.2258 17.7689 15.2558 17.8001 15.2858 17.8313C15.3039 17.8577 15.3233 17.8834 15.3395 17.911C15.5944 18.3534 15.8481 18.7965 16.103 19.2389C16.3828 19.7242 16.663 20.2092 16.9431 20.6946C16.9506 20.7534 16.983 20.7818 17.0434 20.7818C17.204 20.781 17.365 20.7818 17.526 20.7818C19.6036 20.7818 21.6816 20.7814 23.7592 20.7834C23.8413 20.7834 23.8658 20.7605 23.8654 20.6784C23.8622 20.1299 23.8638 19.5818 23.863 19.0333C23.8634 19.0045 23.878 18.9717 23.8448 18.9512ZM17.3393 20.7518C17.3409 20.7498 17.3421 20.7482 17.3433 20.7459C17.3445 20.7443 17.3449 20.7423 17.3456 20.7407C17.3484 20.7443 17.3512 20.7478 17.3543 20.7518C17.3492 20.7518 17.3441 20.7518 17.3393 20.7518ZM17.5193 20.7435C17.5205 20.7415 17.5212 20.7396 17.522 20.738C17.5228 20.7411 17.5236 20.7439 17.5248 20.7463C17.5228 20.7451 17.5212 20.7443 17.5193 20.7435Z" fill="white"/>
</g>
</g>
</g>
</g>
</svg>
