<svg width="20" height="20" viewBox="0 0 20 20" fill="none" xmlns="http://www.w3.org/2000/svg">
<g id="Buy">
<g id="Iconly/Light/Buy">
<g id="Buy_2">
<path id="Stroke-1" d="M2.29199 2.70801L4.02533 3.00801L4.82783 12.5688C4.89199 13.3497 5.54449 13.9488 6.32783 13.9463H15.4187C16.1662 13.948 16.8003 13.398 16.9062 12.658L17.697 7.19301C17.7853 6.58217 17.3612 6.01551 16.7512 5.92717C16.6978 5.91967 4.30366 5.91551 4.30366 5.91551" stroke="#040D12" stroke-width="1.5" stroke-linecap="round" stroke-linejoin="round"/>
<path id="Stroke-3 (Stroke)" fill-rule="evenodd" clip-rule="evenodd" d="M11.1465 8.99561C11.1465 8.65043 11.4263 8.37061 11.7715 8.37061H14.0823C14.4275 8.37061 14.7073 8.65043 14.7073 8.99561C14.7073 9.34078 14.4275 9.62061 14.0823 9.62061H11.7715C11.4263 9.62061 11.1465 9.34078 11.1465 8.99561Z" fill="#040D12"/>
<path id="Union" fill-rule="evenodd" clip-rule="evenodd" d="M5.96212 16.21C5.36536 16.21 4.88379 16.6939 4.88379 17.2883C4.88379 17.8828 5.36462 18.3675 5.96212 18.3675C6.55963 18.3675 7.04046 17.8828 7.04046 17.2883C7.04046 16.6939 6.55888 16.21 5.96212 16.21ZM15.3623 16.21C14.7656 16.21 14.284 16.6939 14.284 17.2883C14.284 17.8828 14.7648 18.3675 15.3623 18.3675C15.9584 18.3675 16.4415 17.8843 16.4415 17.2883C16.4415 16.6924 15.9576 16.21 15.3623 16.21Z" fill="#040D12"/>
</g>
</g>
</g>
</svg>
