<svg width="20" height="20" viewBox="0 0 20 20" fill="none" xmlns="http://www.w3.org/2000/svg">
<g id="Group 877">
<path id="Vector" d="M10.5366 18.3332C10.4494 18.3332 10.3629 18.3332 10.2756 18.3332C10.2635 18.3232 10.252 18.3103 10.2384 18.3046C7.8077 17.3077 5.37626 16.3115 2.94481 15.316C2.58439 15.1687 2.5 15.0486 2.5 14.6681C2.5 11.5523 2.5 8.43647 2.5 5.32065C2.5 4.9452 2.5851 4.82005 2.92908 4.67917C5.32477 3.69658 7.72117 2.71542 10.1154 1.72854C10.3157 1.6463 10.4973 1.64559 10.6968 1.72783C13.1018 2.71685 15.5082 3.7023 17.9139 4.68847C18.2136 4.81147 18.3115 4.9595 18.3115 5.28775C18.3123 8.42503 18.3123 11.563 18.3115 14.7003C18.3115 15.0278 18.2121 15.1766 17.9132 15.2996C16.0246 16.0734 14.1352 16.8464 12.2472 17.6216C11.6758 17.8562 11.1073 18.0957 10.5366 18.3332ZM10.9285 17.0273C11.0022 17.0002 11.058 16.9816 11.1116 16.9594C13.1047 16.142 15.0977 15.3232 17.093 14.5108C17.2253 14.4572 17.2696 14.3949 17.2689 14.2541C17.2646 11.5788 17.266 8.90345 17.266 6.22815C17.266 6.17094 17.266 6.11373 17.266 6.03935C17.1967 6.06295 17.1509 6.07582 17.1066 6.0937C15.0877 6.92111 13.0696 7.74995 11.0501 8.57306C10.94 8.61811 10.9264 8.68105 10.9271 8.78188C10.9292 11.4736 10.9285 14.1654 10.9285 16.8564C10.9285 16.9086 10.9285 16.9608 10.9285 17.0273ZM3.55696 6.0322C3.55124 6.08655 3.54695 6.11301 3.54695 6.14019C3.54624 8.86555 3.54695 11.5909 3.54409 14.3163C3.54409 14.4193 3.58986 14.455 3.67281 14.4886C5.33621 15.1687 6.99889 15.851 8.66157 16.5325C9.06204 16.697 9.46323 16.8593 9.87586 17.0273C9.87944 16.9859 9.88373 16.9601 9.88373 16.9344C9.88373 14.204 9.88301 11.4729 9.8873 8.74255C9.8873 8.63671 9.8401 8.60453 9.75786 8.57092C9.05346 8.28558 8.35049 7.99738 7.6468 7.70918C7.41796 7.6155 7.18911 7.5211 6.94096 7.41956C6.94096 7.50466 6.94096 7.5633 6.94096 7.62265C6.94096 8.28486 6.94239 8.94708 6.93882 9.60929C6.9381 9.70512 6.92881 9.80666 6.89663 9.89605C6.81224 10.1299 6.56266 10.2615 6.3188 10.2179C6.07995 10.175 5.8983 9.96542 5.89687 9.70941C5.8933 8.85196 5.89258 7.99381 5.89759 7.13636C5.8983 7.02695 5.86541 6.97331 5.76243 6.93255C5.27828 6.74018 4.797 6.54066 4.31429 6.34257C4.069 6.24245 3.82371 6.14162 3.55696 6.0322ZM7.69328 6.5943C7.77338 6.62862 7.82701 6.65294 7.88208 6.6751C8.66014 6.99477 9.43963 7.31014 10.2155 7.63624C10.3514 7.69345 10.4623 7.69417 10.5981 7.63767C12.1879 6.98047 13.7805 6.3297 15.3724 5.67678C15.7278 5.53089 16.0832 5.38429 16.4572 5.23054C16.4179 5.2098 16.4014 5.19836 16.3828 5.19121C15.4746 4.81791 14.5664 4.44318 13.6553 4.07489C13.6003 4.05272 13.5166 4.06201 13.4594 4.08704C12.8701 4.33806 12.2837 4.59479 11.6959 4.85009C10.3722 5.42649 9.04917 6.0036 7.69328 6.5943ZM12.2108 3.48633C12.1328 3.45201 12.0856 3.42912 12.037 3.4091C11.5507 3.20886 11.0623 3.01149 10.5781 2.80625C10.4587 2.75547 10.3579 2.75762 10.2384 2.80625C8.65871 3.45773 7.07684 4.10421 5.49568 4.75283C5.1231 4.90587 4.75123 5.05962 4.3572 5.22267C4.41655 5.24985 4.45016 5.26701 4.48449 5.28131C5.04658 5.5123 5.6101 5.73971 6.16934 5.97642C6.28948 6.0272 6.38674 6.0272 6.50616 5.97499C8.04656 5.29991 9.58981 4.63054 11.1323 3.95904C11.482 3.80671 11.8317 3.65296 12.2108 3.48633Z" fill="#040D12"/>
</g>
</svg>
