<svg width="20" height="20" viewBox="0 0 20 20" fill="none" xmlns="http://www.w3.org/2000/svg">
<g id="Group 880">
<g id="Group 879">
<path id="Vector" d="M13.3304 10.0023C13.3304 10.6329 13.3253 11.264 13.3331 11.8946C13.3354 12.094 13.2608 12.2221 13.0798 12.3214C11.9497 12.9422 10.8219 13.5675 9.69821 14.199C9.49558 14.3129 9.32611 14.316 9.12071 14.2004C8.00164 13.5706 6.8775 12.9484 5.75059 12.3311C5.55487 12.2239 5.4752 12.086 5.47658 11.8711C5.48257 10.6236 5.48257 9.37566 5.47658 8.12816C5.47566 7.91279 5.55855 7.77629 5.75382 7.66949C6.88026 7.05173 8.00394 6.42864 9.12348 5.7998C9.3215 5.68856 9.48683 5.68413 9.68716 5.79714C10.8067 6.42643 11.9304 7.04907 13.0568 7.66683C13.2512 7.77319 13.3373 7.90614 13.3336 8.12418C13.3235 8.74948 13.3304 9.3761 13.3304 10.0023ZM9.76591 13.3765C9.80782 13.3575 9.83775 13.3464 9.86538 13.3313C10.7588 12.8359 11.6513 12.3382 12.5466 11.8458C12.6248 11.8029 12.6364 11.7523 12.6359 11.6779C12.6345 10.695 12.635 9.71202 12.6345 8.72909C12.6345 8.69364 12.6304 8.65818 12.6276 8.60766C12.5825 8.62982 12.5489 8.64445 12.5171 8.66217C11.632 9.15275 10.7473 9.6451 9.86077 10.1335C9.78387 10.176 9.75532 10.2221 9.75532 10.3076C9.75854 11.2906 9.75716 12.2735 9.75762 13.2564C9.75762 13.2914 9.76268 13.3264 9.76591 13.3765ZM6.18487 8.5988C6.1798 8.6409 6.17566 8.65818 6.17566 8.67547C6.1752 9.68144 6.17658 10.6879 6.17289 11.6938C6.17243 11.7807 6.2171 11.8148 6.28342 11.8516C7.17315 12.344 8.06197 12.8376 8.9517 13.3304C8.98209 13.3473 9.01709 13.3566 9.05255 13.3703C9.05762 13.3464 9.06084 13.3375 9.06084 13.3287C9.0613 12.3134 9.06315 11.2977 9.05762 10.2824C9.05716 10.2336 9.0042 10.1671 8.95677 10.1401C8.52157 9.89194 8.08177 9.65087 7.64335 9.40757C7.16394 9.14167 6.68454 8.87578 6.18487 8.5988ZM6.54039 8.00807C6.56066 8.02624 6.57263 8.0413 6.58829 8.05017C7.50657 8.56025 8.42486 9.07032 9.34453 9.57863C9.37262 9.59414 9.42282 9.603 9.44768 9.58926C9.82762 9.38275 10.2052 9.17225 10.5852 8.96175C10.5709 8.94358 10.5668 8.93339 10.5589 8.9294C9.63236 8.41445 8.70624 7.89905 7.77782 7.3872C7.74835 7.3708 7.69216 7.37169 7.66223 7.38809C7.28921 7.59105 6.91848 7.79801 6.54039 8.00807ZM12.29 8.01604C11.3372 7.4878 10.4111 6.9724 9.4813 6.46276C9.43986 6.44016 9.35972 6.44858 9.31459 6.47207C9.06084 6.60502 8.8117 6.74683 8.56164 6.88643C8.51927 6.90991 8.4792 6.93695 8.42348 6.97107C9.37354 7.49799 10.2997 8.0125 11.2276 8.52435C11.2594 8.54208 11.316 8.55183 11.3446 8.53632C11.6559 8.36969 11.9631 8.1973 12.29 8.01604Z" fill="#040D12"/>
<path id="Vector_2" d="M15.2081 15.0356C14.9384 15.0356 14.7148 15.0393 14.4905 15.035C14.1791 15.0288 13.9782 14.8494 13.9733 14.581C13.9683 14.3064 14.1742 14.1147 14.4948 14.111C15.0422 14.1048 15.5896 14.1018 16.137 14.1042C16.4454 14.1055 16.6113 14.2492 16.6659 14.5558C16.7661 15.1185 16.8631 15.6819 16.9565 16.2458C16.9995 16.5063 16.8294 16.7416 16.5775 16.7877C16.3317 16.8332 16.0952 16.6654 16.0436 16.4C15.9981 16.1672 15.9613 15.9319 15.9207 15.6978C15.8956 15.6739 15.8704 15.6505 15.8452 15.6266C15.8151 15.6911 15.8003 15.7703 15.753 15.8176C13.9984 17.5734 11.8728 18.4231 9.39514 18.3254C5.50571 18.1718 2.21035 15.2696 1.55792 11.4502C1.20528 9.38543 1.57512 7.44962 2.65944 5.65388C2.78907 5.43886 2.97092 5.34302 3.16628 5.3805C3.3555 5.41675 3.52629 5.55927 3.53427 5.75095C3.5398 5.88795 3.49803 6.04584 3.42676 6.16441C2.9316 6.99746 2.58326 7.88642 2.45179 8.84542C2.09609 11.441 2.85419 13.6693 4.77525 15.4583C6.23371 16.8166 7.99873 17.4598 9.99229 17.4008C11.992 17.3418 13.7005 16.5776 15.1086 15.1542C15.135 15.1277 15.1571 15.097 15.2081 15.0356Z" fill="#040D12"/>
<path id="Vector_3" d="M5.25245 4.14033C5.51109 4.17904 5.73041 4.20975 5.94912 4.24539C6.2655 4.29638 6.44735 4.5157 6.39943 4.78171C6.34844 5.06124 6.11806 5.20561 5.80659 5.15954C5.29729 5.0852 4.788 5.01209 4.27809 4.9439C3.84805 4.88615 3.71228 4.73564 3.71289 4.30006C3.71351 3.77295 3.71105 3.24523 3.71781 2.71812C3.72088 2.45887 3.88307 2.27272 4.11038 2.24262C4.34628 2.2119 4.55578 2.33784 4.6209 2.55839C4.64056 2.62474 4.64117 2.69785 4.6424 2.76788C4.64547 2.96079 4.64301 3.15369 4.64424 3.3466C4.64424 3.35827 4.65039 3.37056 4.65837 3.40066C4.70322 3.37424 4.74622 3.35336 4.78431 3.32571C6.33984 2.17627 8.08643 1.63195 10.0192 1.6682C13.8693 1.74008 17.2844 4.64656 17.978 8.43216C18.2815 10.0903 18.1156 11.6937 17.47 13.2486C17.3612 13.511 17.1954 13.6191 16.9545 13.5939C16.7616 13.5736 16.5841 13.4262 16.565 13.2247C16.5534 13.1043 16.5847 12.9691 16.6314 12.8549C17.0356 11.8719 17.2205 10.8509 17.1984 9.78864C17.1302 6.47547 14.6986 3.50264 11.4561 2.78938C9.29055 2.31327 7.29269 2.71382 5.46931 3.97446C5.40726 4.01808 5.3489 4.06661 5.25245 4.14033Z" fill="#040D12"/>
</g>
</g>
</svg>
