<svg width="16" height="16" viewBox="0 0 16 16" fill="none" xmlns="http://www.w3.org/2000/svg">
<g id="Group 2530">
<g id="Group">
<path id="Vector" d="M2.88384 12.9537C1.7727 11.9439 1.06845 10.7055 0.780624 9.23101C0.738438 9.01532 0.743881 8.79145 0.666992 8.58256C0.666992 8.51452 0.666992 8.44647 0.666992 8.37843C0.691488 8.30086 0.691488 8.22329 0.666992 8.14572C0.666992 8.04842 0.666992 7.9518 0.666992 7.8545C0.691488 7.77693 0.691488 7.69936 0.666992 7.62179C0.666992 7.55375 0.666992 7.4857 0.666992 7.41766C0.745242 7.21285 0.738438 6.99307 0.778583 6.78145C1.00245 5.60703 1.50256 4.56732 2.28234 3.66031C2.90562 2.93565 3.65137 2.37293 4.51824 1.96875C4.59309 1.97623 4.58084 2.03475 4.57472 2.0783C4.50599 2.56277 4.44884 3.04996 4.35086 3.52966C4.34201 3.56164 4.32568 3.59022 4.30391 3.61472C3.80991 3.97467 3.36763 4.38701 3.01108 4.88577C2.47762 5.63084 2.14557 6.45553 2.04555 7.36867C1.93396 8.39 2.07889 9.37254 2.52594 10.3027C2.69672 10.6579 2.90902 10.9893 3.14785 11.3029C3.1635 11.3322 3.17507 11.3628 3.17983 11.3955C3.12948 11.8745 3.0383 12.3481 2.97502 12.8257C2.9689 12.8802 2.96209 12.9455 2.88384 12.9537Z" fill="#F5E166"/>
<path id="Vector_2" d="M15.3849 6.30858C15.4883 6.64675 15.5352 6.99513 15.5781 7.34419C15.5822 7.37958 15.5631 7.42381 15.6087 7.44762C15.6087 7.54492 15.6087 7.64154 15.6087 7.73885C15.5849 7.79736 15.5849 7.8552 15.6087 7.91372C15.6087 7.94298 15.6087 7.97223 15.6087 8.00081C15.5938 8.01306 15.5781 8.02939 15.5597 8.03007C15.2685 8.04912 14.9766 8.07362 14.6867 8.01714C14.6391 7.9804 14.6344 7.92665 14.6337 7.87357C14.6235 7.40884 14.5656 6.95022 14.4622 6.49706C14.45 6.44194 14.4323 6.38274 14.4772 6.33103C14.5187 6.30041 14.5677 6.29565 14.616 6.29633C14.8718 6.30109 15.1283 6.27932 15.3849 6.30858Z" fill="#E6A42E"/>
<path id="Vector_3" d="M14.6742 7.99609C14.9852 7.99745 15.2968 7.99881 15.6078 8.00086C15.6078 8.02059 15.6078 8.03964 15.6078 8.05937C15.584 8.12742 15.584 8.19546 15.6078 8.2635C15.6078 8.31181 15.6078 8.3608 15.6078 8.40912C15.586 8.43837 15.586 8.46763 15.6078 8.49621C15.6078 8.535 15.6078 8.57378 15.6078 8.61257C15.5261 8.80377 15.5486 9.0147 15.4962 9.21135C15.4567 9.35968 15.4282 9.51074 15.3948 9.66111C15.3785 9.672 15.3628 9.68765 15.3445 9.68901C15.0566 9.71214 14.7688 9.73256 14.4824 9.67676C14.4374 9.63934 14.4463 9.59035 14.4565 9.5434C14.562 9.06709 14.628 8.58671 14.6334 8.09816C14.6334 8.0689 14.6409 8.041 14.6552 8.01515C14.662 8.00834 14.6681 8.00222 14.6742 7.99609Z" fill="#C75929"/>
<path id="Vector_4" d="M0.666992 8.14746C0.71122 8.22503 0.713262 8.3026 0.666992 8.38017C0.666992 8.30328 0.666992 8.22571 0.666992 8.14746Z" fill="#F7E888"/>
<path id="Vector_5" d="M0.666992 7.62109C0.713262 7.69866 0.71122 7.77623 0.666992 7.8538C0.666992 7.77623 0.666992 7.69866 0.666992 7.62109Z" fill="#F7E888"/>
<path id="Vector_6" d="M15.6087 8.26272C15.5624 8.19468 15.5631 8.12664 15.6087 8.05859C15.6087 8.12664 15.6087 8.19468 15.6087 8.26272Z" fill="#CB6539"/>
<path id="Vector_7" d="M15.6084 7.91315C15.5648 7.85464 15.5635 7.7968 15.6084 7.73828C15.6084 7.7968 15.6084 7.85464 15.6084 7.91315Z" fill="#E9AD42"/>
<path id="Vector_8" d="M15.609 8.49628C15.5648 8.46702 15.5737 8.43776 15.609 8.40918C15.609 8.43844 15.609 8.46702 15.609 8.49628Z" fill="#E4B19B"/>
<path id="Vector_9" d="M7.20039 14.6618C6.67238 14.6394 6.15117 14.5713 5.6388 14.438C5.0686 14.2896 4.52833 14.0685 4.02005 13.7691C3.98399 13.7242 3.97854 13.6711 3.98671 13.6174C4.04523 13.2248 4.09966 12.8308 4.16634 12.4395C4.16975 12.4205 4.17927 12.4035 4.19084 12.3871C4.20173 12.3749 4.21465 12.3654 4.2303 12.3599C4.42014 12.4246 4.57256 12.5559 4.74539 12.6512C5.39112 13.0063 6.077 13.2268 6.81119 13.2921C6.89352 13.2996 6.97313 13.3241 7.05614 13.3193C7.84953 13.3547 8.61706 13.2363 9.35192 12.9308C10.0616 12.6362 10.6801 12.2123 11.2109 11.6536C12.0342 10.7874 12.5132 9.76068 12.6398 8.58148C12.7936 7.14781 12.4261 5.84546 11.5286 4.71118C10.6325 3.57894 9.45467 2.91824 8.02236 2.71547C7.69847 2.6692 7.37322 2.67397 7.0473 2.68349C6.61114 2.72364 6.17838 2.78215 5.75924 2.91552C5.72658 2.92573 5.69323 2.93185 5.65853 2.92573C5.64152 2.92164 5.62723 2.9128 5.61567 2.89987C5.59049 2.8536 5.6007 2.80529 5.60818 2.75766C5.66194 2.40247 5.70957 2.04729 5.76672 1.69278C5.77829 1.6227 5.78305 1.54513 5.8613 1.50702C6.34237 1.40632 6.82684 1.33964 7.31879 1.33691C7.32083 1.34304 7.32355 1.34916 7.32559 1.35597C7.32083 1.36073 7.31607 1.36549 7.31131 1.37026C7.28341 1.37842 7.25415 1.36753 7.22013 1.37842C7.26231 1.37094 7.29974 1.37978 7.3358 1.36685C7.52768 1.34916 7.71344 1.39203 7.89852 1.42809C9.07431 1.6574 10.1229 2.15956 11.0183 2.95226C12.2982 4.0845 13.0712 5.50048 13.2712 7.20225C13.4155 8.43043 13.2597 9.62663 12.7235 10.7514C11.7028 12.8907 10.0208 14.1808 7.68214 14.6094C7.5583 14.6319 7.43242 14.6475 7.30518 14.6407C7.25483 14.6475 7.20652 14.6265 7.17862 14.6271C7.18202 14.6265 7.20516 14.6258 7.20039 14.6618Z" fill="#F5E166"/>
<path id="Vector_10" d="M7.29263 14.6128C7.85807 14.5781 8.39901 14.4339 8.92975 14.2447C9.60746 14.0025 10.226 13.6493 10.7826 13.1982C11.3922 12.7035 11.9107 12.1231 12.321 11.4495C12.7463 10.7507 13.0307 9.99815 13.1777 9.19728C13.2886 8.59577 13.3008 7.98815 13.2491 7.37712C13.1763 6.51637 12.9355 5.70666 12.5415 4.94253C12.1353 4.15391 11.5794 3.48164 10.903 2.90735C10.062 2.1929 9.09781 1.7302 8.02273 1.49273C7.79138 1.4417 7.55799 1.40156 7.3212 1.38795C7.311 1.3825 7.3076 1.37638 7.311 1.37026C7.31372 1.36413 7.31712 1.36073 7.32052 1.36073L7.3212 1.36005C7.40558 1.32535 7.49608 1.36277 7.58113 1.33828C7.62196 1.33759 7.6621 1.33759 7.70293 1.33691C7.75328 1.35461 7.80499 1.34236 7.85602 1.34576C7.93087 1.34236 8.00572 1.34712 8.07921 1.35937C8.62015 1.37978 9.13456 1.52063 9.63808 1.70367C10.4226 1.98945 11.1296 2.40928 11.7597 2.9577C11.776 2.97199 11.791 2.98764 11.8059 3.00329C12.2142 3.36529 12.568 3.7749 12.879 4.22195C12.9817 4.3696 13.0743 4.5227 13.1668 4.67648C13.4696 5.2045 13.6962 5.76381 13.85 6.35239C13.986 6.89333 14.0663 7.4404 14.0452 7.99971C14.0636 8.55903 13.9867 9.10678 13.8506 9.64772C13.6935 10.2363 13.4771 10.8011 13.1661 11.327C12.7892 11.9728 12.3176 12.5409 11.7631 13.0417C11.1303 13.5922 10.4199 14.0134 9.63195 14.3005C9.15701 14.4734 8.67118 14.6081 8.2221 14.6258C8.32961 14.621 8.49835 14.5979 8.66778 14.6006C8.76508 14.6006 8.86238 14.5992 8.95969 14.6013C9.01208 14.6026 9.06856 14.5965 9.10734 14.6455C9.0427 14.6768 8.97398 14.6632 8.90661 14.6632C8.38744 14.6646 7.86759 14.6646 7.34842 14.6646C7.33209 14.6455 7.27425 14.6707 7.29263 14.6128Z" fill="#E9B04D"/>
<path id="Vector_11" d="M5.86273 1.50879C5.76747 1.76735 5.76952 2.04361 5.7178 2.31034C5.6797 2.50698 5.65724 2.70635 5.62799 2.90504C5.60145 2.97376 5.53272 2.98193 5.47625 3.0037C5.12106 3.14251 4.78085 3.31058 4.45764 3.51335C4.41613 3.53988 4.37463 3.58683 4.31543 3.54533C4.39096 3.05065 4.46717 2.55666 4.54269 2.06198C4.54814 2.02728 4.55222 1.99394 4.5182 1.9708C4.89448 1.77008 5.29797 1.64556 5.7076 1.53737C5.75863 1.52376 5.81102 1.51763 5.86273 1.50879Z" fill="#FAF3AE"/>
<path id="Vector_12" d="M15.3848 6.30674C15.3426 6.35233 15.2868 6.33736 15.2351 6.33804C14.9799 6.34008 14.7254 6.34076 14.4703 6.34212C14.4642 6.33804 14.4574 6.33395 14.4512 6.32987C14.4199 6.29721 14.4056 6.2557 14.3948 6.2142C14.2675 5.73585 14.0702 5.28541 13.8436 4.84585C13.8143 4.78869 13.7286 4.71656 13.8388 4.6492C14.0933 4.62675 14.3478 4.64172 14.6016 4.64036C14.6411 4.64036 14.6765 4.65465 14.7091 4.67642C15.0201 5.1847 15.2405 5.72973 15.3848 6.30674Z" fill="#C75929"/>
<path id="Vector_13" d="M11.7847 3.02161C11.7738 3.01208 11.7636 3.00188 11.7528 2.99235C11.8535 2.91818 11.9685 2.96241 12.0773 2.95289C12.1488 2.94676 12.2216 2.95152 12.3005 2.95493C11.3356 2.14589 10.2388 1.64237 8.997 1.45661C8.90582 1.443 8.81396 1.4328 8.72279 1.41579C8.69285 1.41034 8.62412 1.40082 8.69217 1.34434C8.83097 1.35115 8.96978 1.33073 9.10791 1.35523C9.95437 1.35387 10.7627 1.54167 11.5384 1.86896C12.1903 2.14385 12.7904 2.50516 13.3123 2.98691C13.281 3.02501 13.2368 3.03045 13.1939 3.02841C12.7931 3.00936 12.3944 3.06448 11.9943 3.06516C11.9208 3.06652 11.8494 3.05971 11.7847 3.02161Z" fill="#C75929"/>
<path id="Vector_14" d="M13.3301 2.99907C13.8827 3.46993 14.3372 4.02176 14.6965 4.65184C14.4018 4.68246 14.1065 4.65661 13.8119 4.66477C13.7275 4.66749 13.6969 4.59945 13.6622 4.54366C13.4608 4.21705 13.2315 3.91221 12.9784 3.62303C12.8341 3.45836 12.6715 3.31275 12.5225 3.15421C12.4898 3.11951 12.4388 3.08141 12.4585 3.03241C12.481 2.97662 12.5442 3.00792 12.5885 3.00656C12.8355 3.00043 13.0831 3.01404 13.3301 2.99907Z" fill="#E6A42E"/>
<path id="Vector_15" d="M13.3308 2.99985C13.1396 3.04544 12.9457 3.01074 12.7531 3.02026C12.6633 3.02434 12.5728 3.02094 12.4782 3.02094C12.4905 3.08899 12.5361 3.11348 12.5694 3.14546C13.0015 3.55848 13.388 4.00825 13.6914 4.5247C13.7513 4.62608 13.8248 4.65806 13.9391 4.65398C14.1916 4.64582 14.444 4.65194 14.6964 4.65194C14.7005 4.6601 14.7053 4.66895 14.7094 4.67712C14.4059 4.67848 14.1024 4.67984 13.7989 4.6812C13.5758 4.75537 13.3526 4.74992 13.1294 4.68052C12.8708 4.24844 12.5776 3.84291 12.2333 3.47207C12.0883 3.31625 11.9257 3.17948 11.7842 3.02162C12.2938 3.01074 12.8028 2.99917 13.3124 2.98828C13.322 2.98828 13.3281 2.99168 13.3308 2.99985Z" fill="#E18324"/>
<path id="Vector_16" d="M9.10826 1.35685C8.95993 1.36025 8.81159 1.36297 8.66394 1.36637C8.54486 1.4419 8.41966 1.38066 8.29787 1.38066C8.22642 1.38066 8.15498 1.36569 8.08421 1.38475C8.00528 1.37522 7.92635 1.36637 7.84742 1.35685C7.83721 1.35209 7.83381 1.34732 7.83721 1.34256C7.84062 1.3378 7.84402 1.33507 7.84674 1.33507C8.26725 1.33235 8.68843 1.32759 9.10826 1.35685Z" fill="#C96541"/>
<path id="Vector_17" d="M7.5819 1.33691C7.4982 1.3825 7.40838 1.34848 7.32197 1.35869C7.32197 1.3512 7.32129 1.34372 7.32129 1.33691C7.4077 1.33691 7.4948 1.33691 7.5819 1.33691Z" fill="#EFC658"/>
<path id="Vector_18" d="M7.8467 1.33691C7.8467 1.34372 7.8467 1.3512 7.84738 1.35801C7.79839 1.35665 7.74667 1.37502 7.70312 1.33759C7.75076 1.33691 7.79839 1.33691 7.8467 1.33691Z" fill="#CF734E"/>
<path id="Vector_19" d="M4.22492 12.3787C4.1909 12.5814 4.15076 12.7829 4.1249 12.9863C4.09088 13.2476 4.02692 13.5048 4.02079 13.7695C3.73433 13.6443 3.4921 13.4504 3.2451 13.2646C3.11854 13.1693 2.98585 13.0782 2.88379 12.9536C2.97361 12.8026 2.95523 12.6284 2.98245 12.4651C3.04233 12.1045 3.09336 11.7425 3.1478 11.3812C3.1893 11.3635 3.2104 11.3948 3.23217 11.4193C3.51387 11.7309 3.81326 12.0248 4.14667 12.2821C4.18001 12.3065 4.22356 12.3263 4.22492 12.3787Z" fill="#FAF3AE"/>
<path id="Vector_20" d="M14.4697 9.66113C14.7786 9.66113 15.0868 9.66113 15.3957 9.66181C15.244 10.2483 15.0297 10.809 14.7058 11.3241C14.6745 11.3479 14.6391 11.3636 14.5996 11.3636C14.3458 11.3643 14.0914 11.3833 13.8376 11.3527C13.7375 11.3044 13.7954 11.2397 13.8246 11.1846C13.9852 10.8805 14.1274 10.5681 14.2499 10.247C14.322 10.0578 14.3499 9.85302 14.4506 9.67406C14.4567 9.6693 14.4636 9.66522 14.4697 9.66113Z" fill="#E6A42E"/>
<path id="Vector_21" d="M9.10737 14.6445C8.94951 14.6411 8.79165 14.6383 8.63379 14.6349C8.64672 14.5669 8.70455 14.5798 8.74878 14.5751C10.0423 14.4315 11.1895 13.9422 12.202 13.1298C12.2585 13.0842 12.3047 13.0271 12.366 12.9862C12.4034 12.9645 12.4429 12.9495 12.4857 12.9434C12.7307 12.9264 12.9756 12.9366 13.2213 12.9372C13.2689 12.9372 13.3179 12.9413 13.3533 12.9822C12.1387 14.0457 10.7268 14.6091 9.10737 14.6445Z" fill="#E6A42E"/>
<path id="Vector_22" d="M13.353 12.9826C13.0543 12.9819 12.7549 12.9812 12.4562 12.9806C12.4385 12.922 12.4827 12.8901 12.5161 12.8588C13.0046 12.4042 13.4115 11.8844 13.7606 11.3176C13.7742 11.3101 13.7871 11.3108 13.7987 11.3203C14.1008 11.321 14.4029 11.3223 14.705 11.323C14.4478 11.8123 14.1042 12.2375 13.7232 12.6342C13.6068 12.7567 13.4898 12.8805 13.353 12.9826Z" fill="#C75929"/>
<path id="Vector_23" d="M7.29256 14.6133C7.31093 14.6303 7.32999 14.648 7.34836 14.665C7.29869 14.6643 7.2497 14.663 7.20002 14.6623C7.18097 14.6507 7.1626 14.6391 7.12109 14.6133C7.1939 14.6133 7.24289 14.6133 7.29256 14.6133Z" fill="#F1D25E"/>
<path id="Vector_24" d="M4.22582 12.3803C3.82164 12.0966 3.47871 11.7461 3.1487 11.3828C3.13917 11.3624 3.12964 11.342 3.12012 11.3215C3.25961 10.2989 3.42019 9.27889 3.57261 8.25756C3.79443 6.76605 4.01625 5.27454 4.23943 3.78371C4.24896 3.72111 4.26801 3.66191 4.28434 3.60136C4.29454 3.58298 4.30543 3.56393 4.31632 3.54556C4.5776 3.40947 4.81984 3.24073 5.09337 3.12709C5.27165 3.05293 5.4506 2.97944 5.62887 2.90527C5.63908 2.90595 5.64861 2.90663 5.65881 2.90799C5.66085 3.13186 5.60642 3.34892 5.57444 3.56802C5.41522 4.64242 5.25736 5.7175 5.09337 6.79123C5.08521 6.84362 5.08317 6.89805 5.05323 6.94432C5.00356 7.01169 4.92667 7.03006 4.85182 7.04775C4.67287 7.09062 4.49595 7.13961 4.31904 7.19064C4.14281 7.24167 4.10606 7.34782 4.21698 7.49343C4.39253 7.7241 4.57624 7.94864 4.75996 8.1725C4.80351 8.22558 4.84638 8.27661 4.85046 8.34942C4.83413 8.64064 4.77697 8.92643 4.73342 9.21357C4.58713 10.1873 4.44492 11.1616 4.29659 12.1347C4.28434 12.2143 4.2891 12.3014 4.22854 12.3681L4.22582 12.3803Z" fill="#E9B04D"/>
<path id="Vector_25" d="M4.28325 3.60059C4.31251 3.80744 4.24583 4.00544 4.21997 4.20685C4.16349 4.65049 4.09001 5.09141 4.02264 5.5337C3.93691 6.09437 3.84913 6.65505 3.76544 7.21641C3.67358 7.83492 3.58853 8.45412 3.49599 9.07263C3.40413 9.68638 3.30615 10.2988 3.21157 10.9118C3.19728 11.0071 3.18571 11.103 3.17755 11.1983C3.17346 11.248 3.17415 11.2963 3.11971 11.3208C2.54474 10.5845 2.17119 9.76055 2.03578 8.83448C1.88064 7.77436 2.00244 6.75235 2.45221 5.77321C2.84345 4.92267 3.42114 4.2259 4.17302 3.67067C4.20772 3.64413 4.24651 3.62372 4.28325 3.60059Z" fill="#E6A42E"/>
<path id="Vector_26" d="M14.0099 8.00478C14.0174 7.4686 13.948 6.94127 13.8282 6.42005C13.8221 6.39216 13.8119 6.36494 13.8037 6.33704C14.0255 6.26628 14.248 6.27036 14.4705 6.33432C14.4705 6.33432 14.4712 6.34248 14.4712 6.34316C14.6025 6.88615 14.6842 7.43526 14.6753 7.99594V8.0041C14.4528 8.07214 14.2317 8.07146 14.0099 8.00478Z" fill="#E18324"/>
<path id="Vector_27" d="M14.0106 8.00556C14.2324 8.00556 14.4542 8.00488 14.676 8.00488C14.6849 8.56624 14.608 9.11739 14.4712 9.66106L14.4733 9.66446C14.2494 9.72842 14.0262 9.74203 13.8037 9.65833C13.9466 9.11671 14.0126 8.56556 14.0106 8.00556Z" fill="#B84029"/>
<path id="Vector_28" d="M5.01548 6.95265C5.05427 6.72062 5.09509 6.48859 5.13047 6.25589C5.18355 5.90342 5.23186 5.55028 5.28425 5.19849C5.34889 4.76506 5.40945 4.33162 5.48362 3.90023C5.54009 3.56886 5.54282 3.22796 5.65713 2.90679C6.11302 2.75506 6.58252 2.67885 7.06086 2.64551C7.75082 2.68429 8.40063 2.87549 9.00758 3.19666C10.3814 3.92336 11.3074 5.02838 11.7368 6.5233C12.1267 7.8828 11.9954 9.2076 11.349 10.4657C10.7726 11.5871 9.90031 12.4097 8.74425 12.9296C8.3741 13.0963 7.98897 13.2099 7.59432 13.2963C7.41809 13.3351 7.23778 13.3256 7.06154 13.3569C6.43486 13.3167 5.82928 13.1881 5.25023 12.9405C4.88892 12.7853 4.54462 12.6002 4.22754 12.3669C4.27789 12.0008 4.32552 11.634 4.3786 11.268C4.44256 10.8264 4.5106 10.3848 4.57864 9.94315C4.65417 9.44984 4.73174 8.95652 4.80659 8.46253C4.81407 8.4149 4.81203 8.36591 4.81475 8.3176C4.88484 8.31079 4.91818 8.36251 4.95424 8.40674C5.06787 8.54554 5.17946 8.68639 5.29174 8.82656C5.36658 8.92046 5.42374 9.02525 5.40265 9.14705C5.35842 9.40153 5.37543 9.65941 5.3591 9.91525C5.33937 10.2187 5.30807 10.5236 5.31895 10.8291C5.32712 11.057 5.39516 11.1081 5.61222 11.0257C6.10281 10.8406 6.59409 10.6576 7.0806 10.463C7.25819 10.3916 7.42353 10.365 7.59432 10.4671C8.09172 10.6637 8.59184 10.8515 9.09196 11.0407C9.27091 11.1087 9.39883 11.0223 9.37297 10.844C9.33827 10.6032 9.35188 10.3603 9.33419 10.1187C9.30901 9.77168 9.292 9.42262 9.28384 9.07356C9.28112 8.95516 9.34984 8.87283 9.4172 8.79118C9.74993 8.38564 10.0765 7.97534 10.4079 7.56912C10.4236 7.55007 10.4392 7.5317 10.4535 7.51196C10.5692 7.35274 10.5352 7.23775 10.348 7.184C10.0908 7.11051 9.83295 7.03975 9.57438 6.97374C9.28248 6.8989 8.99397 6.81044 8.70071 6.74172C8.58299 6.7145 8.50474 6.64033 8.4367 6.54847C8.13867 6.08918 7.84064 5.63057 7.53853 5.174C7.50655 5.12569 7.47797 5.07329 7.4283 5.03995C7.34188 4.98212 7.24798 5.00797 7.17177 5.12228C6.97989 5.40807 6.79277 5.69589 6.60837 5.98643C6.47841 6.19056 6.3362 6.38721 6.211 6.59474C6.16881 6.66483 6.10349 6.70633 6.0266 6.72743C5.73198 6.80772 5.43803 6.89277 5.14136 6.96626C5.09713 6.97578 5.0529 6.98939 5.01548 6.95265Z" fill="#E6A42E"/>
<path id="Vector_29" d="M7.06055 13.3568C7.33 13.284 7.60898 13.2622 7.87979 13.1921C8.68678 12.9825 9.40328 12.6083 10.0354 12.0653C10.9206 11.3053 11.4908 10.3554 11.7691 9.22789C11.9039 8.68287 11.942 8.12627 11.8957 7.57172C11.8086 6.5327 11.4561 5.58281 10.8131 4.75541C9.99593 3.70346 8.94058 3.0203 7.62463 2.75562C7.43683 2.71751 7.24903 2.68213 7.06055 2.64471C7.97029 2.59639 8.83784 2.76718 9.65776 3.15911C10.1545 3.39658 10.6042 3.70686 11.0084 4.08586C11.6773 4.71322 12.1549 5.45898 12.4448 6.32517C12.5843 6.74363 12.6639 7.17367 12.6945 7.61595C12.7959 9.07411 12.3672 10.3629 11.431 11.4733C10.6328 12.4198 9.60673 13.0104 8.39283 13.2649C7.95464 13.3574 7.50827 13.3779 7.06055 13.3568Z" fill="#E18324"/>
<path id="Vector_30" d="M7.32066 1.35938C7.32066 1.3689 7.32134 1.37775 7.32202 1.38727C7.28392 1.38727 7.2465 1.38727 7.20839 1.38727C7.20771 1.37979 7.20703 1.3723 7.20703 1.36482C7.24446 1.36278 7.28256 1.36142 7.32066 1.35938Z" fill="#EFC658"/>
<path id="Vector_31" d="M13.7684 11.3242C13.6725 11.5753 13.4976 11.7774 13.3445 11.9917C13.1227 12.3034 12.8573 12.5769 12.5824 12.8423C12.5375 12.8858 12.498 12.9348 12.4565 12.9811C12.4273 12.9913 12.3987 13.0008 12.3694 13.011C12.166 13.0777 11.9625 13.09 11.7598 13.009C11.8666 12.8498 12.0285 12.7457 12.1592 12.6089C12.5327 12.2163 12.8485 11.7835 13.1295 11.3229C13.3431 11.248 13.5561 11.2446 13.7684 11.3242Z" fill="#B84029"/>
<path id="Vector_32" d="M14.4703 6.3348C14.2478 6.33548 14.0253 6.33616 13.8035 6.33752C13.6572 5.75371 13.4245 5.2046 13.1299 4.68066C13.3531 4.68066 13.5762 4.68135 13.7994 4.68135C14.0818 5.20868 14.322 5.75303 14.4703 6.3348Z" fill="#B84029"/>
<path id="Vector_33" d="M13.7688 11.3249C13.5558 11.3242 13.3429 11.3242 13.1299 11.3235C13.4129 10.8288 13.63 10.3063 13.7811 9.75716C13.7899 9.72518 13.796 9.69184 13.8035 9.65918C14.0267 9.66122 14.2499 9.66326 14.4731 9.66462C14.32 10.2457 14.0818 10.7921 13.8008 11.3215C13.7899 11.3222 13.7797 11.3235 13.7688 11.3249Z" fill="#E18324"/>
<path id="Vector_34" d="M8.08301 1.38302C8.27489 1.3279 8.46949 1.37417 8.66274 1.36464C8.96961 1.42316 9.28057 1.45582 9.58608 1.52931C10.57 1.7661 11.4437 2.21859 12.233 2.84323C12.2813 2.88133 12.316 2.93644 12.3643 2.99156C12.1629 2.99156 11.9581 2.99156 11.7526 2.99156C11.247 2.57173 10.7068 2.2043 10.1046 1.93417C9.45952 1.6443 8.78998 1.44766 8.08301 1.38302Z" fill="#B84029"/>
<path id="Vector_35" d="M11.7598 13.0088C11.9632 13.0095 12.166 13.0101 12.3694 13.0108C12.2313 13.1979 12.0292 13.3109 11.8462 13.4429C11.0644 14.007 10.188 14.3574 9.24625 14.5472C9.04416 14.5881 8.83799 14.6071 8.63318 14.6357C8.44947 14.6357 8.26575 14.6357 8.08203 14.6357C8.5733 14.5683 9.05573 14.4642 9.52251 14.2989C10.2914 14.0267 10.9963 13.6416 11.6169 13.1081C11.6611 13.0707 11.7121 13.0414 11.7598 13.0088Z" fill="#E18424"/>
<path id="Vector_36" d="M5.01589 6.95372C5.35746 6.86458 5.69904 6.77681 6.03994 6.68563C6.10186 6.6693 6.14813 6.62779 6.18419 6.57131C6.49923 6.08344 6.81563 5.59693 7.13339 5.1111C7.26472 4.91038 7.40557 4.9097 7.53621 5.10838C7.84513 5.5772 8.15132 6.0467 8.45888 6.5162C8.48269 7.10001 8.40512 7.67566 8.31394 8.24926C8.20303 8.94194 8.01115 9.61217 7.73285 10.2572C7.69475 10.345 7.66957 10.4423 7.58452 10.5029C7.32391 10.3355 7.10005 10.5063 6.87211 10.5886C6.44343 10.743 6.02157 10.9152 5.59493 11.0744C5.36835 11.1588 5.27105 11.0907 5.27717 10.8519C5.2901 10.296 5.31936 9.74077 5.36359 9.1869C5.37243 9.07191 5.3595 8.96576 5.27853 8.87458C5.11863 8.69358 4.98935 8.48673 4.8138 8.31867C4.64641 8.06963 4.44024 7.85053 4.25924 7.6117C4.22999 7.57291 4.19937 7.53549 4.17011 7.4967C4.05852 7.34565 4.10615 7.2082 4.2885 7.15649C4.53074 7.08912 4.77365 7.02176 5.01589 6.95372Z" fill="#C75929"/>
<path id="Vector_37" d="M7.58496 10.5016C7.72513 10.1634 7.87415 9.82797 7.98097 9.47687C8.13271 8.97947 8.24498 8.47323 8.31575 7.95746C8.37767 7.50429 8.42121 7.05044 8.43006 6.59319C8.43074 6.56393 8.43278 6.53536 8.45932 6.51562C8.52532 6.62517 8.62126 6.68369 8.74714 6.71567C9.27652 6.85108 9.80453 6.99261 10.3326 7.13346C10.6 7.2049 10.6381 7.34575 10.4598 7.56485C10.108 7.99625 9.76167 8.43172 9.40988 8.86312C9.34116 8.94749 9.31666 9.02914 9.32755 9.14073C9.34796 9.34691 9.34524 9.5558 9.35749 9.76333C9.3779 10.1301 9.38879 10.4975 9.41873 10.8636C9.43302 11.0398 9.28877 11.1589 9.13091 11.099C8.61446 10.9017 8.10005 10.701 7.58496 10.5016Z" fill="#B84029"/>
</g>
</g>
</svg>
