<svg width="20" height="20" viewBox="0 0 20 20" fill="none" xmlns="http://www.w3.org/2000/svg">
<g id="Group 882">
<g id="Group 881">
<g id="Group">
<path id="Vector" d="M10.6645 1.6665C10.9951 1.72049 11.3298 1.75704 11.6554 1.83013C14.1314 2.38497 16.0817 4.45483 16.4912 6.96158C16.7802 8.72827 16.3981 10.3405 15.3524 11.7932C15.2868 11.8846 15.2951 11.9485 15.3358 12.0407C15.9106 13.3373 16.482 14.6355 17.0535 15.9337C17.0859 16.0077 17.1233 16.0832 17.1374 16.1613C17.2063 16.5451 16.8649 16.8316 16.4829 16.7045C15.8458 16.4944 15.2112 16.2743 14.5758 16.0592C14.5301 16.0434 14.4836 16.0301 14.4213 16.0101C14.3956 16.0633 14.369 16.114 14.3457 16.1671C14.0883 16.7635 13.8283 17.359 13.5758 17.9571C13.4827 18.1764 13.3407 18.325 13.0924 18.325C12.8448 18.325 12.7053 18.1739 12.6106 17.9562C12.1073 16.8059 11.5956 15.6588 11.0948 14.5068C11.0383 14.3764 10.9718 14.3531 10.8406 14.3564C10.4353 14.3672 10.0291 14.3664 9.62294 14.3556C9.5025 14.3523 9.4427 14.3772 9.39286 14.4926C8.88703 15.6538 8.37455 16.8125 7.8629 17.9712C7.73 18.2727 7.47085 18.4131 7.21669 18.2868C7.09708 18.2279 6.98163 18.1058 6.92515 17.9837C6.64358 17.3682 6.38194 16.7444 6.11365 16.1231C6.0987 16.0891 6.08209 16.0558 6.06049 16.0093C5.60948 16.1621 5.16511 16.3133 4.72074 16.4645C4.49564 16.5409 4.26889 16.6157 4.04463 16.6946C3.82784 16.7701 3.62517 16.761 3.46155 16.5824C3.29875 16.4047 3.30539 16.2053 3.39925 15.9935C3.97984 14.682 4.55545 13.368 5.13936 12.0573C5.19086 11.9419 5.18006 11.8696 5.1078 11.7683C4.13267 10.4036 3.71322 8.88276 3.95741 7.22156C4.32288 4.73308 5.70915 3.02121 8.03234 2.07018C8.55562 1.85588 9.1088 1.74292 9.67444 1.69641C9.72261 1.69225 9.76913 1.67813 9.81647 1.66816C10.1005 1.6665 10.3821 1.6665 10.6645 1.6665ZM10.2359 13.4137C13.1937 13.417 15.6074 11.0083 15.6107 8.04967C15.6141 5.07695 13.212 2.65243 10.255 2.64329C7.2956 2.63415 4.87606 5.05868 4.87191 8.03887C4.86775 10.9958 7.27733 13.4104 10.2359 13.4137ZM8.48419 14.1438C7.51654 13.8564 6.67016 13.3738 5.92428 12.6927C5.51977 13.6097 5.12524 14.5068 4.71575 15.4345C5.21661 15.2634 5.67593 15.104 6.13691 14.9503C6.44174 14.849 6.66683 14.9511 6.79973 15.2435C6.86036 15.3764 6.91684 15.511 6.97499 15.6447C7.1112 15.9595 7.24659 16.2743 7.39444 16.6157C7.76406 15.7776 8.12122 14.9669 8.48419 14.1438ZM13.0874 16.6123C13.1214 16.5376 13.1472 16.4836 13.1704 16.4296C13.3374 16.0417 13.5027 15.653 13.6721 15.2668C13.8117 14.947 14.0359 14.8498 14.3698 14.9594C14.4678 14.9918 14.5642 15.0259 14.6622 15.0591C15.0185 15.1787 15.3749 15.2992 15.7669 15.4312C15.3557 14.5001 14.9604 13.6031 14.5584 12.6936C13.8083 13.3805 12.9628 13.8581 12.0001 14.1455C12.3631 14.9702 12.7211 15.7817 13.0874 16.6123Z" fill="#040D12"/>
<path id="Vector_2" d="M13.5538 7.16271C13.4765 7.2873 13.4184 7.42933 13.3187 7.53233C12.9782 7.88201 12.626 8.21923 12.2722 8.55563C12.1891 8.63453 12.1609 8.7043 12.1833 8.82308C12.2763 9.3123 12.3519 9.80568 12.4383 10.2957C12.4748 10.5026 12.4208 10.6745 12.2555 10.8007C12.0894 10.9287 11.9059 10.9353 11.7206 10.8381C11.2696 10.6022 10.8186 10.3663 10.3701 10.1255C10.2804 10.0773 10.2106 10.0731 10.1176 10.1238C9.68899 10.3564 9.25459 10.5773 8.82517 10.8082C8.62333 10.917 8.42482 10.9511 8.23129 10.8049C8.04689 10.6654 8.00868 10.4785 8.05105 10.2542C8.14324 9.76498 8.22381 9.27243 8.30023 8.78072C8.30936 8.72008 8.2778 8.63204 8.23461 8.58802C7.88659 8.23834 7.53441 7.89281 7.17725 7.55226C7.0103 7.39278 6.91977 7.21338 6.99618 6.98579C7.0726 6.75821 7.25367 6.67265 7.48292 6.64358C7.96134 6.58212 8.43728 6.50487 8.91487 6.44092C9.02451 6.42597 9.08182 6.3753 9.12834 6.27812C9.33599 5.84371 9.55443 5.41346 9.76374 4.97906C9.86342 4.77224 10.0046 4.62938 10.2463 4.63187C10.4797 4.63436 10.6193 4.77224 10.7164 4.97324C10.9307 5.41679 11.1533 5.85617 11.3676 6.29971C11.4067 6.38111 11.454 6.42015 11.5462 6.43261C12.0454 6.50072 12.5438 6.57547 13.0421 6.64857C13.3303 6.69093 13.5131 6.8803 13.5139 7.13862C13.5272 7.1461 13.5405 7.1544 13.5538 7.16271ZM11.9366 7.47585C11.6716 7.43764 11.4017 7.39362 11.1301 7.36122C10.895 7.33298 10.7281 7.2275 10.6284 7.00573C10.5138 6.75156 10.3825 6.50487 10.2422 6.22247C10.1101 6.48909 9.98385 6.72083 9.88003 6.9617C9.76873 7.22002 9.58433 7.34295 9.30691 7.36704C9.05192 7.38946 8.79942 7.44013 8.54941 7.47834C8.75041 7.69014 8.93314 7.89779 9.13249 8.08717C9.30774 8.25412 9.36339 8.44017 9.31688 8.6744C9.26206 8.94601 9.22219 9.22177 9.17153 9.52162C9.44396 9.37792 9.69231 9.25748 9.93069 9.11961C10.1458 8.99585 10.346 9 10.5595 9.12127C10.7987 9.25748 11.0462 9.37958 11.3136 9.51995C11.2621 9.21844 11.2206 8.94186 11.1666 8.66693C11.1218 8.43934 11.1758 8.25744 11.3469 8.09381C11.5487 7.89945 11.7339 7.68848 11.9366 7.47585Z" fill="#040D12"/>
</g>
</g>
</g>
</svg>
