<svg width="20" height="20" viewBox="0 0 20 20" fill="none" xmlns="http://www.w3.org/2000/svg">
<g id="Group 887">
<g id="Group 886">
<path id="Vector" d="M3.34153 8.22387C3.34153 7.21121 3.34102 6.19906 3.34153 5.18641C3.34153 4.40865 3.76443 3.94995 4.54219 3.86376C6.25398 3.67423 7.79287 3.05374 9.15786 2.0053C9.7466 1.55265 10.2476 1.55366 10.8409 2.00782C12.2341 3.07491 13.8038 3.69692 15.5513 3.87334C16.1895 3.93786 16.6507 4.43939 16.6517 5.07854C16.6547 7.1225 16.7031 9.16797 16.6391 11.2099C16.5574 13.7988 15.3119 15.7192 13.031 16.9532C12.2296 17.3866 11.4004 17.7697 10.5848 18.177C10.2391 18.3499 9.87816 18.3978 9.52885 18.2254C8.51418 17.7239 7.46674 17.2712 6.50651 16.68C4.44995 15.4138 3.4126 13.52 3.34657 11.1111C3.31935 10.1489 3.34153 9.18612 3.34153 8.22387ZM4.56135 5.07703C4.55832 5.14306 4.55379 5.19851 4.55379 5.25395C4.55278 7.19105 4.52556 9.12865 4.55883 11.0652C4.59562 13.206 5.58156 14.8119 7.4617 15.8452C8.25459 16.2812 9.07771 16.6628 9.89126 17.061C9.95478 17.0923 10.0626 17.0822 10.1292 17.0494C10.8974 16.6734 11.6706 16.3049 12.4257 15.9042C14.391 14.8613 15.4092 13.2191 15.4374 10.9982C15.4621 9.09287 15.4425 7.18702 15.4425 5.28117C15.4425 5.21464 15.4425 5.1481 15.4425 5.07653C13.402 4.86583 11.5935 4.13696 9.99208 2.88034C8.39522 4.14351 6.58565 4.86734 4.56135 5.07703Z" fill="#040D12"/>
<path id="Vector_2" d="M9.35319 10.5367C9.98226 9.93888 10.6138 9.34359 11.2399 8.74275C11.4849 8.50736 11.7152 8.25734 11.9556 8.01741C12.2238 7.75026 12.5817 7.73363 12.8327 7.97053C13.0878 8.21147 13.0878 8.58649 12.8201 8.8602C11.8342 9.8668 10.8457 10.8704 9.85574 11.8725C9.56691 12.1648 9.21407 12.1618 8.92525 11.8674C8.33953 11.2701 7.75684 10.6703 7.17566 10.0684C6.90901 9.7927 6.90599 9.42071 7.16104 9.17927C7.41156 8.94185 7.77448 8.95647 8.0381 9.22362C8.43581 9.62636 8.82897 10.0336 9.22264 10.4404C9.27456 10.4944 9.31589 10.5579 9.36227 10.6168C9.35874 10.5906 9.35571 10.5639 9.35319 10.5367Z" fill="#040D12"/>
</g>
</g>
</svg>
